<svg width="81" height="47" viewBox="0 0 81 47" fill="none" xmlns="http://www.w3.org/2000/svg">
<g clip-path="url(#clip0_343_194)">
<g clip-path="url(#clip1_343_194)">
<g clip-path="url(#clip2_343_194)">
<mask id="mask0_343_194" style="mask-type:luminance" maskUnits="userSpaceOnUse" x="0" y="6" width="81" height="35">
<path d="M0.0615234 6.87695H80.9945V40.3664H0.0615234V6.87695Z" fill="white"/>
</mask>
<g mask="url(#mask0_343_194)">
<path d="M32.3895 25.9474C32.3476 26.2543 32.2965 26.5604 32.2332 26.8627C29.1633 29.6265 26.1149 32.529 23.205 35.1458C21.1519 37.0063 19.1658 38.7324 17.2764 40.2911C16.856 40.3317 16.4341 40.3559 16.0117 40.3637L15.6908 40.3664H15.6443C18.0104 38.5562 20.5528 36.4645 23.2055 34.1248C26.1656 31.5462 29.2568 28.6777 32.3895 25.9474ZM32.3895 23.1566V23.9161C29.2731 26.6185 26.1725 29.4865 23.2217 32.0476C19.7239 35.1198 16.4164 37.7678 13.4698 39.9013C12.9498 39.8274 12.4338 39.7277 11.9237 39.6027C15.8579 36.9862 19.6256 34.1276 23.205 31.0433C26.1725 28.5521 29.2564 25.7799 32.3895 23.1566ZM31.4592 29.2033C31.3067 29.6497 31.1338 30.089 30.9411 30.5196C28.3396 33.0927 25.7665 35.73 23.3003 38.1361C22.9256 38.5155 22.5433 38.8874 22.1538 39.2515C21.5482 39.5054 20.9278 39.7224 20.2961 39.9013C21.3111 38.9771 22.314 38.0396 23.3045 37.0891C25.9353 34.6146 28.6768 31.8657 31.4592 29.2033ZM32.2923 20.8309C32.3304 21.0542 32.3639 21.2853 32.3895 21.5128C29.2405 24.0589 26.1125 26.766 23.158 29.1796C19.4882 32.2482 15.6357 35.0915 11.6218 37.6938C10.9381 38.1445 10.2753 38.5575 9.64221 38.9711C9.14824 38.7724 8.67102 38.5827 8.20263 38.3594C9.2622 37.7064 10.4101 37.0408 11.626 36.2928C15.6475 33.8499 19.5002 31.1394 23.158 28.1795C26.1 25.8734 29.1768 23.2775 32.2923 20.8309ZM32.2085 18.9704C32.2718 19.1927 32.3346 19.3983 32.3895 19.6127C29.3936 22.0058 26.44 24.5129 23.6078 26.7506C19.967 29.7218 16.1354 32.4511 12.1376 34.9211C10.2571 36.0803 8.56543 37.0417 7.08864 38.0408C6.67254 37.779 6.26825 37.4988 5.87697 37.2012C7.61051 35.9709 9.72686 34.9044 12.1209 33.5104C16.1327 31.1908 19.9731 28.5865 23.6124 25.7176C26.3851 23.5887 29.2638 21.2291 32.2085 18.9704ZM31.2034 17.1099C31.2899 17.2926 31.3764 17.5052 31.4592 17.7085C28.7512 19.8127 26.0804 21.9961 23.5171 23.9459C19.9532 26.7618 16.1942 29.3217 12.2683 31.6062C9.34964 33.3067 6.85654 34.5169 4.96996 36.1803C4.69916 35.9432 4.44112 35.692 4.19691 35.4277L4.01644 35.2277L4.24343 34.9993C6.19186 33.1322 8.95335 31.9843 12.2558 30.1838C16.1911 28.0608 19.956 25.6361 23.5166 22.9314C26.0018 21.1063 28.5819 19.0685 31.2034 17.1099ZM29.7247 15.2493C29.8378 15.4368 29.955 15.6279 30.0638 15.8238C27.6489 17.6052 25.259 19.4197 22.9487 21.0844C19.3301 23.7662 15.5147 26.1717 11.5348 28.2805C8.18681 30.0703 5.38672 31.2192 3.41503 33.1043C3.02884 33.4768 2.67731 33.8836 2.36476 34.3197C2.10894 34.0286 1.90428 33.729 1.69032 33.4206C2.13507 32.6034 2.72358 31.8731 3.42758 31.2647C5.39509 29.5461 8.19053 28.5554 11.5395 26.8906C15.5191 24.9365 19.3309 22.6578 22.9361 20.0774C25.1209 18.5787 27.4102 16.8936 29.7247 15.2493ZM74.1244 20.0904C77.8417 20.0904 80.6046 22.6021 80.9813 26.3697H76.41C76.3347 24.8878 75.4556 23.9585 74.1495 23.9585C72.6425 23.9585 71.7634 25.1138 71.7634 27.0981C71.7634 29.1326 72.6173 30.2628 74.1495 30.2628C75.4807 30.2628 76.3096 29.3586 76.41 27.8265H80.9813C80.6046 31.6945 77.9673 34.1058 74.1244 34.1058C70.1056 34.1058 67.3176 31.2173 67.3176 27.0981C67.3176 23.0794 70.2312 20.0904 74.1244 20.0904ZM43.0294 28.4795C44.6369 28.4795 45.742 29.6098 45.742 31.2424C45.742 32.8499 44.6369 33.9802 43.0294 33.9802C41.4219 33.9802 40.2916 32.8499 40.2916 31.2424C40.2916 29.6098 41.4219 28.4795 43.0294 28.4795ZM51.4185 20.3416V33.8546H47.1235V20.3416H51.4185ZM61.5658 20.0904C64.2282 20.0904 66.112 21.8737 66.112 25.1641V33.8546H61.817V26.5958C61.817 24.8878 61.2142 23.9585 59.9081 23.9585C58.8532 23.9585 57.8987 24.712 57.8987 26.7465V33.8546H53.6037V20.3416H57.5471V21.9742C58.602 20.7937 59.8578 20.0904 61.5658 20.0904ZM28.7187 12.9237C28.8573 13.1032 28.9954 13.2855 29.1336 13.4702C27.1265 14.8949 25.1483 16.328 23.2324 17.6364C19.6453 20.1767 15.8596 22.4243 11.9121 24.3575C8.59845 25.9939 5.81604 26.9958 3.87504 28.7181C2.86681 29.6051 2.09819 30.7318 1.64008 31.9941C1.49616 31.7559 1.35798 31.5142 1.22565 31.2694C1.57957 29.5402 2.52011 27.9865 3.88806 26.8711C5.83697 25.3143 8.60264 24.4613 11.9204 22.9621C15.8727 21.1964 19.6609 19.0843 23.2408 16.6508C25.0241 15.4665 26.8567 14.1949 28.7187 12.9237ZM25.6539 9.66774C25.8907 9.8324 26.119 10.0059 26.3423 10.1836C25.4445 10.7714 24.5401 11.349 23.6292 11.9162C20.055 14.2441 16.2732 16.2365 12.3321 17.868C9.02126 19.2374 6.25419 19.9644 4.30854 21.4142C3.25269 22.1919 2.43685 23.2412 1.91032 24.7464C2.32936 24.156 2.84276 23.6387 3.42991 23.2152C5.42067 21.7854 8.23705 21.0514 11.6255 19.6639C15.6532 18.0182 19.5175 15.9983 23.1678 13.6307C24.519 12.7902 25.8605 11.9343 27.1921 11.0631C27.3782 11.2371 27.5605 11.4194 27.7386 11.6022C26.1883 12.6544 24.6636 13.6935 23.1682 14.6609C19.5108 17.1354 15.6478 19.2916 11.6218 21.1058C8.23751 22.6291 5.40812 23.5073 3.41735 25.1199C2.53546 25.8213 1.81823 26.7116 1.29403 27.8911C1.25681 28.3516 1.23449 28.8386 1.22798 29.3554L1.22612 29.647V28.0484C0.895407 28.8312 0.647957 29.7382 0.489812 30.7959L0.451671 31.0638L0.294922 30.7457C0.358645 28.6647 0.700517 27.0772 1.27635 25.8418C1.51822 22.4914 2.59639 20.6569 4.31599 19.5285C6.26163 18.2522 9.01661 17.6773 12.3358 16.4433C16.2778 14.9722 20.0615 13.1072 23.6292 10.8766C24.2953 10.4906 24.9706 10.0878 25.6539 9.66774ZM23.0841 8.27235C23.2957 8.37468 23.5041 8.48026 23.7101 8.58957L24.0171 8.75702L23.5176 9.05424C19.9652 11.2608 16.2034 13.1106 12.287 14.5767C8.99614 15.8047 6.24628 16.3996 4.30994 17.6866C2.3736 18.9736 1.25449 21.1872 1.22565 25.4822C1.22565 24.6706 1.22565 23.8552 1.24612 23.0435C1.27123 18.9485 2.38569 16.9219 4.3225 15.7921C6.25884 14.6619 8.99614 14.2325 12.2995 13.1455C16.0545 11.9018 19.6691 10.2685 23.0841 8.27235ZM19.23 7.34208C19.75 7.45139 20.2579 7.58628 20.7612 7.7421C17.8574 9.2361 14.8288 10.4737 11.7097 11.4408C8.31007 12.5055 5.46951 12.9432 3.47317 14.0665C1.51217 15.1703 0.362366 17.1461 0.297713 21.0798L0.295852 21.2505L0.307946 18.8974C0.296356 17.8194 0.424084 16.7444 0.687958 15.6991C1.35202 14.5099 2.15521 13.404 3.0806 12.4046C3.21223 12.3278 3.34758 12.2576 3.48573 12.1939C5.48207 11.2264 8.3017 10.9524 11.7139 10.0226C14.2894 9.33962 16.8035 8.443 19.23 7.34208ZM49.2333 14.7405C50.8659 14.7405 51.9962 15.7703 51.9962 17.2019C51.9962 18.6085 50.8659 19.6383 49.2333 19.6383C47.6007 19.6383 46.4704 18.6085 46.4704 17.2019C46.4704 15.7703 47.6007 14.7405 49.2333 14.7405ZM15.6447 6.87695C14.4717 7.3453 13.275 7.75191 12.0595 8.09513C10.4892 8.56817 9.03614 8.88586 7.7375 9.20261C10.1562 7.71791 12.8739 6.91881 15.6447 6.87695Z" fill="#FF7070"/>
<path d="M80.9812 26.3695C80.6045 22.6019 77.8416 20.0902 74.1243 20.0902C70.2311 20.0902 67.3175 23.0791 67.3175 27.0979C67.3175 31.2171 70.1055 34.1055 74.1243 34.1055C77.9672 34.1055 80.6045 31.6943 80.9812 27.8263H76.4099C76.3094 29.3584 75.4806 30.2626 74.1494 30.2626C72.6172 30.2626 71.7632 29.1323 71.7632 27.0979C71.7632 25.1136 72.6424 23.9582 74.1494 23.9582C75.4555 23.9582 76.3346 24.8876 76.4099 26.3695H80.9812Z" fill="#121212"/>
<path d="M45.7419 31.2422C45.7419 29.6096 44.6368 28.4793 43.0293 28.4793C41.4218 28.4793 40.2915 29.6096 40.2915 31.2422C40.2915 32.8497 41.4218 33.9799 43.0293 33.9799C44.6368 33.9799 45.7419 32.8497 45.7419 31.2422Z" fill="#121212"/>
<path d="M51.4184 33.8544V20.3414H47.1234V33.8544H51.4184Z" fill="#121212"/>
<path d="M66.1119 25.1638C66.1119 21.8735 64.2281 20.0902 61.5657 20.0902C59.8577 20.0902 58.6019 20.7935 57.547 21.974V20.3414H53.6036V33.8544H57.8986V26.7462C57.8986 24.7117 58.8531 23.9582 59.908 23.9582C61.2141 23.9582 61.8169 24.8876 61.8169 26.5955V33.8544H66.1119V25.1638Z" fill="#121212"/>
<path d="M51.9961 17.2017C51.9961 15.77 50.8658 14.7402 49.2332 14.7402C47.6006 14.7402 46.4703 15.77 46.4703 17.2017C46.4703 18.6083 47.6006 19.6381 49.2332 19.6381C50.8658 19.6381 51.9961 18.6083 51.9961 17.2017Z" fill="#121212"/>
</g>
</g>
</g>
</g>
<defs>
<clipPath id="clip0_343_194">
<rect width="80.9329" height="46.3678" fill="white" transform="translate(0.059082 0.4375)"/>
</clipPath>
<clipPath id="clip1_343_194">
<rect width="80.9329" height="46.3678" fill="white" transform="translate(0.0595703 0.4375)"/>
</clipPath>
<clipPath id="clip2_343_194">
<rect width="80.9329" height="33.4895" fill="white" transform="translate(0.0600586 6.87695)"/>
</clipPath>
</defs>
</svg>
