<svg width="21" height="19" viewBox="0 0 21 19" fill="none" xmlns="http://www.w3.org/2000/svg">
<path d="M9.95266 15.3058V11.8251H8.88424V15.3058C8.20046 15.5437 7.70898 16.1923 7.70898 16.9489C7.70898 17.9002 8.47824 18.6785 9.43982 18.6785C10.38 18.6785 11.1493 17.9002 11.1493 16.9489C11.1279 16.1923 10.6364 15.5437 9.95266 15.3058Z" fill="#196061"/>
<path d="M5.99924 13.1223L4.24704 13.4033C3.99062 13.4466 3.79831 13.6844 3.79831 13.9438V15.3058C3.11452 15.5437 2.62305 16.1923 2.62305 16.9489C2.62305 17.9002 3.39231 18.6785 4.33251 18.6785C5.27272 18.6785 6.06335 17.9002 6.06335 16.9489C6.06335 16.1923 5.57188 15.5437 4.88809 15.3058V14.3978L6.64029 14.1168C6.89671 14.0735 7.08903 13.8573 7.08903 13.5763V11.8251H6.02061V13.1223H5.99924Z" fill="#196061"/>
<path d="M12.5596 9.44686C12.8588 9.14418 13.2434 8.97122 13.6708 8.97122C13.9058 8.97122 14.1195 9.01446 14.3332 9.12256C14.5469 8.49559 15.1452 8.06319 15.8076 8.06319H16.7905C17.2393 8.06319 17.6666 8.25777 17.9444 8.60369C18.0513 8.30101 18.1154 7.95509 18.1154 7.60918C18.1154 6.07418 17.0042 4.82023 15.5512 4.5608C15.5084 2.57178 13.8845 0.971924 11.8972 0.971924C10.5296 0.971924 9.37574 1.72861 8.73469 2.83122C8.20048 2.46368 7.55943 2.24749 6.85427 2.24749C5.16618 2.24749 3.7986 3.50143 3.54218 5.14453C3.52081 5.14453 3.49945 5.14453 3.45671 5.14453C1.93956 5.12291 0.700195 6.37685 0.700195 7.91185C0.700195 9.44685 1.93956 10.7008 3.45671 10.7008H11.5126C11.5767 10.5062 11.7049 10.3116 11.8545 10.1603L12.5596 9.44686Z" fill="#196061"/>
<path d="M20.5948 12.9708L19.7401 12.8411C19.6332 12.5817 19.6119 12.5168 19.505 12.2358L20.0179 11.5439C20.1461 11.3494 20.1461 11.0899 19.9751 10.9386L19.27 10.2251C19.099 10.0522 18.8426 10.0522 18.6717 10.1819L17.9879 10.7008C17.7315 10.5927 17.6674 10.571 17.3896 10.4629L17.2614 9.59815C17.2186 9.36034 17.0263 9.18738 16.7913 9.18738H15.8083C15.5733 9.18738 15.3809 9.36034 15.3596 9.59815L15.2314 10.4629C14.9749 10.571 14.9108 10.5927 14.6331 10.7008L13.9493 10.1819C13.757 10.0522 13.5005 10.0522 13.351 10.2251L12.6458 10.9386C12.4749 11.1115 12.4749 11.371 12.6031 11.5439L13.1159 12.2358C13.0091 12.4952 12.9877 12.5601 12.8808 12.8411L12.0261 12.9708C11.7911 13.0141 11.6201 13.2086 11.6201 13.4248V14.4194C11.6201 14.6572 11.7911 14.8517 12.0261 14.895L12.8808 15.0247C12.9877 15.2841 13.0091 15.349 13.1159 15.6301L12.6031 16.3219C12.4749 16.5165 12.4749 16.7759 12.6458 16.9272L13.351 17.6407C13.5219 17.8136 13.7783 17.8353 13.9493 17.6839L14.6331 17.1651C14.8895 17.2732 14.9536 17.2948 15.2314 17.4029L15.3596 18.2677C15.4023 18.5055 15.5946 18.6784 15.8083 18.6784H16.7913C17.0263 18.6784 17.2186 18.5055 17.2614 18.2677L17.3896 17.4029C17.646 17.2948 17.7101 17.2732 17.9879 17.1651L18.6717 17.6839C18.864 17.8136 19.1204 17.8136 19.27 17.6407L19.9751 16.9272C20.1461 16.7543 20.1675 16.4948 20.0179 16.3219L19.505 15.6084C19.6119 15.349 19.6332 15.2841 19.7401 15.0247L20.5948 14.895C20.8299 14.8517 21.0008 14.6572 21.0008 14.4194V13.4248C21.0008 13.2086 20.8299 13.0141 20.5948 12.9708ZM16.2998 15.7165C15.3382 15.7165 14.5476 14.9166 14.5476 13.9437C14.5476 12.9708 15.3382 12.1709 16.2998 12.1709C17.2614 12.1709 18.052 12.9708 18.052 13.9437C18.052 14.9382 17.2827 15.7165 16.2998 15.7165Z" fill="#196061"/>
</svg>
