<svg width="114" height="32" viewBox="0 0 114 32" fill="none" xmlns="http://www.w3.org/2000/svg">
<g clip-path="url(#clip0_343_206)">
<mask id="mask0_343_206" style="mask-type:luminance" maskUnits="userSpaceOnUse" x="0" y="0" width="114" height="32">
<path d="M113.561 0.201172H0.439453V31.7992H113.561V0.201172Z" fill="white"/>
</mask>
<g mask="url(#mask0_343_206)">
<path d="M17.1603 27.02C19.2006 26.8473 21.1528 26.1119 22.7996 24.8954L25.8615 28.5291C23.522 30.326 20.726 31.4319 17.7904 31.7218C14.8547 32.0117 11.8965 31.4738 9.25076 30.1692C6.60499 28.8646 4.37733 26.8453 2.82 24.3399C1.26265 21.8345 0.43785 18.9432 0.438966 15.9933C0.440082 13.0433 1.26707 10.1526 2.8263 7.64843C4.38554 5.14425 6.61474 3.12662 9.26149 1.82399C11.9082 0.521357 14.8668 -0.0142408 17.8023 0.277833C20.7377 0.569908 23.5327 1.67799 25.871 3.47662L22.8075 7.1104C21.1618 5.89239 19.2103 5.15515 17.1701 4.98081C15.1302 4.80645 13.0818 5.20184 11.2532 6.12291C9.42467 7.04398 7.8877 8.45458 6.81349 10.1976C5.73926 11.9406 5.17001 13.9476 5.16909 15.995C5.16819 18.0425 5.73566 20.05 6.80834 21.794C7.881 23.5379 9.41673 24.9499 11.2445 25.8725C13.0722 26.7954 15.1202 27.1925 17.1603 27.02Z" fill="black"/>
<path d="M26.9486 27.6113L23.8867 23.9775H23.8915C24.9701 22.9474 25.8287 21.7093 26.4154 20.3379C27.0018 18.9665 27.3044 17.4906 27.3044 15.999C27.3044 14.5075 27.0018 13.0314 26.4154 11.6601C25.8287 10.2888 24.9701 9.05063 23.8915 8.0205L26.9565 4.38672C28.5596 5.86672 29.8388 7.66274 30.7136 9.66162C31.5883 11.6605 32.0395 13.8189 32.0387 16.0007C32.0381 18.1826 31.5854 20.3407 30.7094 22.339C29.8333 24.3373 28.5528 26.1324 26.9486 27.6113Z" fill="#FF9900"/>
<path d="M89.9355 1.14941V26.5227H92.9595V1.14941H89.9355Z" fill="black"/>
<path fill-rule="evenodd" clip-rule="evenodd" d="M104.942 24.1239C101.709 24.1239 99.2415 22.3513 98.6506 19.223H113.214C113.284 18.7712 113.318 18.3193 113.318 17.8675C113.318 13.0014 109.912 8.69141 104.664 8.69141C99.2415 8.69141 95.5571 12.6886 95.5571 17.8327C95.5571 23.0464 99.2762 26.9741 104.872 26.9741C108.348 26.9741 110.99 25.4099 112.519 23.0464L109.947 21.5866C109.078 23.0117 107.34 24.1239 104.942 24.1239ZM98.6506 16.5814C99.1372 13.5575 101.396 11.5416 104.664 11.5416C107.271 11.5416 109.738 13.1404 110.26 16.5814H98.6506Z" fill="black"/>
<path d="M80.1721 26.9741C74.9236 26.9741 71.0308 22.9769 71.0308 17.8327C71.0308 12.6886 74.9236 8.69141 80.1721 8.69141C83.6131 8.69141 86.5328 10.4988 87.8536 13.2447L85.3163 14.7045C84.4473 12.8624 82.5009 11.6458 80.1721 11.6458C76.6963 11.6458 74.0547 14.3222 74.0547 17.8327C74.0547 21.3085 76.6963 23.9849 80.1721 23.9849C82.5356 23.9849 84.4473 22.7683 85.4205 20.9609L87.9926 22.4555C86.5328 25.1666 83.5784 26.9741 80.1721 26.9741Z" fill="black"/>
<path d="M71.0384 8.83105C68.8487 8.83105 66.7285 9.63049 65.6162 12.0635V9.14388H62.5923V26.5228H65.6162V17.312C65.6162 13.2105 68.4316 11.8897 71.0384 11.994V8.83105Z" fill="black"/>
<path d="M57.5273 5.98073C56.3803 5.98073 55.4766 5.07703 55.4766 3.96478C55.4766 2.85253 56.3803 1.91406 57.5273 1.91406C58.6395 1.91406 59.5432 2.85253 59.5432 3.96478C59.5432 5.07703 58.6395 5.98073 57.5273 5.98073Z" fill="black"/>
<path d="M55.998 26.5225V9.14355H59.022V26.5225H55.998Z" fill="black"/>
<path d="M37.0933 17.8327C37.0933 22.9769 40.9861 26.9741 46.2346 26.9741C49.6409 26.9741 52.5953 25.1666 54.0551 22.4555L51.483 20.9609C50.5098 22.7683 48.5981 23.9849 46.2346 23.9849C42.7588 23.9849 40.1172 21.3085 40.1172 17.8327C40.1172 14.3222 42.7588 11.6458 46.2346 11.6458C48.5634 11.6458 50.5098 12.8624 51.3788 14.7045L53.9161 13.2447C52.5953 10.4988 49.6756 8.69141 46.2346 8.69141C40.9861 8.69141 37.0933 12.6886 37.0933 17.8327Z" fill="black"/>
</g>
</g>
<defs>
<clipPath id="clip0_343_206">
<rect width="113.121" height="31.5981" fill="white" transform="translate(0.439453 0.201172)"/>
</clipPath>
</defs>
</svg>
