<svg width="61" height="60" viewBox="0 0 61 60" fill="none" xmlns="http://www.w3.org/2000/svg">
<g clip-path="url(#clip0_343_222)">
<mask id="mask0_343_222" style="mask-type:luminance" maskUnits="userSpaceOnUse" x="0" y="0" width="61" height="60">
<path d="M60.8335 0H0.833496V60H60.8335V0Z" fill="white"/>
</mask>
<g mask="url(#mask0_343_222)">
<mask id="mask1_343_222" style="mask-type:luminance" maskUnits="userSpaceOnUse" x="0" y="4" width="61" height="52">
<path d="M5.10869 49.8271C9.62669 57.3271 20.4987 57.5101 25.0107 49.9951C26.4392 47.6149 27.2421 44.9122 27.3447 42.1381L27.4887 38.2951C27.4887 38.2951 20.6337 44.5501 17.8077 44.1661C16.8537 44.0371 17.5797 42.2671 17.9247 41.3911C19.2357 38.0911 27.2007 29.9731 27.2007 29.9731C27.2007 29.9731 27.8337 18.4741 28.9587 15.3211C29.5407 13.6891 30.2157 12.9421 30.8337 12.6451C31.4517 12.9451 32.1267 13.6891 32.7087 15.3211C33.8337 18.4741 34.4667 29.9731 34.4667 29.9731C34.4667 29.9731 42.4317 38.0731 43.7427 41.3911C44.0877 42.2671 44.8137 44.0371 43.8597 44.1661C41.0307 44.5501 34.1787 38.2951 34.1787 38.2951L34.3227 42.1381C34.431 45.0685 35.3208 47.917 36.8997 50.3881C41.4297 57.4741 51.9447 57.2881 56.3697 50.1391C59.2554 45.4768 60.8001 40.1092 60.8337 34.6261C60.9567 18.3421 47.8377 4.78511 31.5537 4.40411C26.1858 4.27556 20.8817 5.59007 16.195 8.21048C11.5083 10.8309 7.61081 14.6611 4.90922 19.3014C2.20765 23.9418 0.801005 29.2222 0.83609 34.5916C0.871175 39.961 2.34671 45.2224 5.10869 49.8271Z" fill="white"/>
</mask>
<g mask="url(#mask1_343_222)">
<path d="M5.10869 49.8261C9.62669 57.3261 20.4987 57.5091 25.0107 49.9941C26.4392 47.6139 27.2421 44.9112 27.3447 42.1371L27.4887 38.2941C27.4887 38.2941 20.6337 44.5491 17.8077 44.1651C16.8537 44.0361 17.5797 42.2661 17.9247 41.3901C19.2357 38.0901 27.2007 29.9721 27.2007 29.9721C27.2007 29.9721 27.8337 18.4731 28.9587 15.3201C29.5407 13.6881 30.2157 12.9411 30.8337 12.6441C31.4517 12.9441 32.1267 13.6881 32.7087 15.3201C33.8337 18.4731 34.4667 29.9721 34.4667 29.9721C34.4667 29.9721 42.4317 38.0721 43.7427 41.3901C44.0877 42.2661 44.8137 44.0361 43.8597 44.1651C41.0307 44.5491 34.1787 38.2941 34.1787 38.2941L34.3227 42.1371C34.431 45.0675 35.3208 47.916 36.8997 50.3871C41.4297 57.4731 51.9447 57.2871 56.3697 50.1381C59.2554 45.4758 60.8001 40.1082 60.8337 34.6251C60.9567 18.3411 47.8377 4.78413 31.5537 4.40313C26.1858 4.27458 20.8817 5.58909 16.195 8.2095C11.5083 10.8299 7.61081 14.6601 4.90922 19.3005C2.20765 23.9408 0.801005 29.2212 0.83609 34.5906C0.871175 39.96 2.34671 45.2214 5.10869 49.8261Z" fill="#FBB03B"/>
<path d="M80.7085 14.6997C80.7085 30.1287 67.6135 42.6357 51.4585 42.6357C35.3035 42.6357 22.2085 30.1377 22.2085 14.6997C22.2085 -0.738253 30.0535 -6.11426 46.2085 -6.11426C62.3635 -6.11426 80.7085 -0.720255 80.7085 14.6997Z" fill="url(#paint0_linear_343_222)"/>
<path d="M34.9586 60.4586C34.9586 77.7506 -8.54146 64.8146 -8.54146 47.5196C-8.54146 30.2246 -10.4465 29.1445 5.70854 29.1445C21.8635 29.1445 34.9586 43.1636 34.9586 60.4586Z" fill="url(#paint1_linear_343_222)"/>
</g>
</g>
</g>
<defs>
<linearGradient id="paint0_linear_343_222" x1="68.6635" y1="37.1547" x2="33.9985" y2="-4.34126" gradientUnits="userSpaceOnUse">
<stop stop-color="#01DDA5"/>
<stop offset="1" stop-color="#3CADE2"/>
</linearGradient>
<linearGradient id="paint1_linear_343_222" x1="28.8595" y1="68.9006" x2="-3.49846" y2="30.1676" gradientUnits="userSpaceOnUse">
<stop stop-color="#FF8A11"/>
<stop offset="1" stop-color="#E81894"/>
</linearGradient>
<clipPath id="clip0_343_222">
<rect width="60" height="60" fill="white" transform="translate(0.833496)"/>
</clipPath>
</defs>
</svg>
