<svg width="131" height="34" viewBox="0 0 131 34" fill="none" xmlns="http://www.w3.org/2000/svg">
<g clip-path="url(#clip0_343_279)">
<mask id="mask0_343_279" style="mask-type:luminance" maskUnits="userSpaceOnUse" x="0" y="0" width="131" height="34">
<path d="M130.5 0.729492H0.5V33.2702H130.5V0.729492Z" fill="white"/>
</mask>
<g mask="url(#mask0_343_279)">
<path fill-rule="evenodd" clip-rule="evenodd" d="M19.2588 0.941406L25.4794 8.3161L26.9304 21.9437L15.9506 33.4821L3.17578 21.9058L9.60818 5.539L19.2588 0.941406ZM10.166 6.79547L15.2969 12.2157L10.0497 19.8264L4.55036 21.0841L10.166 6.79547ZM4.78158 22.038L14.5335 30.8751L10.061 20.8308L4.78158 22.038ZM11.132 20.8295L16.0748 31.9301L25.3683 22.1638L11.132 20.8295ZM25.7965 20.5347L24.5911 9.21469L16.8314 12.3317L25.7965 20.5347ZM16.0516 11.5875L24.1972 8.31551L18.9983 2.1522L10.8119 6.05229L16.0516 11.5875ZM16.0093 12.908L25.0108 21.1443L11.2218 19.852L16.0093 12.908Z" fill="url(#paint0_linear_343_279)"/>
<path d="M65.9105 26.5158C63.1543 26.5158 60.8276 25.6209 58.9663 23.7954C57.105 21.9698 56.1743 19.679 56.1743 16.9586C56.1743 14.2382 57.105 11.9831 58.9663 10.1576C60.8276 8.33203 63.1543 7.40137 65.9105 7.40137C68.2371 7.40137 70.2417 8.08147 71.9956 9.44167C73.7495 10.7661 74.8592 12.52 75.3245 14.6319H72.0672C71.1007 12.0905 68.7741 10.3723 65.9105 10.3723C64.0134 10.3723 62.4742 11.0166 61.2214 12.2695C59.9686 13.5223 59.3601 15.0614 59.3601 16.9586C59.3601 18.8557 59.9686 20.4307 61.2214 21.6835C62.4742 22.9363 64.0134 23.5448 65.9105 23.5448C68.7741 23.5448 71.1007 21.8266 72.0672 19.2852H75.3245C74.8592 21.3971 73.7495 23.1511 71.9956 24.5113C70.2417 25.8357 68.2371 26.5158 65.9105 26.5158Z" fill="black"/>
<path d="M105.725 9.29849C104.472 8.04567 102.826 7.40137 100.786 7.40137C97.7431 7.40137 95.5238 8.65418 94.1994 11.1956C93.1613 8.79736 90.8705 7.40137 87.9711 7.40137C85.3223 7.40137 83.3178 8.40362 81.9934 10.4439V7.8309H78.915V26.0862H81.9934V15.2404C81.9934 12.341 83.9979 10.3723 87.0046 10.3723C89.8682 10.3723 91.7296 12.2695 91.7296 15.1688V26.0862H94.8079V15.2404C94.8079 12.341 96.8124 10.3723 99.8192 10.3723C102.683 10.3723 104.544 12.2695 104.544 15.1688V26.0862H107.622V14.3098C107.622 12.1979 106.978 10.5513 105.725 9.29849Z" fill="black"/>
<path fill-rule="evenodd" clip-rule="evenodd" d="M130.376 18.1398V18.1395C130.408 17.7153 130.439 17.3217 130.439 16.9586C130.439 14.2382 129.508 11.9831 127.647 10.1576C125.821 8.33203 123.495 7.40137 120.738 7.40137C117.982 7.40137 115.656 8.33203 113.794 10.1576C111.969 11.9831 111.038 14.2382 111.038 16.9586C111.038 19.679 111.969 21.9698 113.794 23.7954C115.656 25.6209 117.982 26.5158 120.738 26.5158C125.177 26.5158 128.756 24.0101 130.081 20.2517H126.68C125.714 22.292 123.459 23.688 120.738 23.688C119.092 23.688 117.66 23.1868 116.479 22.1846C115.298 21.1823 114.582 19.8579 114.331 18.2472H130.367L130.376 18.1398ZM127.146 15.491H114.367C114.976 12.341 117.481 10.2292 120.738 10.2292C123.996 10.2292 126.573 12.3768 127.146 15.491Z" fill="black"/>
<path fill-rule="evenodd" clip-rule="evenodd" d="M53.515 7.83008H39.6267V10.8011H50.4367V14.3805H44.9959C43.0988 14.3805 41.5238 14.9532 40.271 16.1345C39.0182 17.28 38.4097 18.7117 38.4097 20.4299C38.4097 22.1838 39.0182 23.6156 40.271 24.7969C41.5238 25.9423 43.0988 26.515 44.9959 26.515C47.4657 26.515 49.6134 25.4412 50.7589 23.723V26.0855H53.515V7.83008ZM50.4367 20.1077C50.4367 22.2554 48.3964 23.723 45.3896 23.723C43.2062 23.723 41.5954 22.327 41.5954 20.4299C41.5954 18.5686 43.2062 17.1726 45.3896 17.1726H50.4367V20.1077Z" fill="black"/>
</g>
</g>
<defs>
<linearGradient id="paint0_linear_343_279" x1="15.0531" y1="0.941406" x2="15.0531" y2="33.4821" gradientUnits="userSpaceOnUse">
<stop stop-color="#FFAC0B"/>
<stop offset="1" stop-color="#0B99FF"/>
</linearGradient>
<clipPath id="clip0_343_279">
<rect width="130" height="32.5407" fill="white" transform="translate(0.5 0.729492)"/>
</clipPath>
</defs>
</svg>
