<svg width="1440" height="837" viewBox="0 0 1440 837" fill="none" xmlns="http://www.w3.org/2000/svg">
<g opacity="0.32">
<mask id="path-1-inside-1_195_48" fill="white">
<path d="M1395 0H1440V46.5H1395V0Z"/>
<path d="M1305 0H1350V46.5H1305V0Z"/>
<path d="M1260 0H1305V46.5H1260V0Z"/>
<path d="M1215 0H1260V46.5H1215V0Z"/>
<path d="M1170 0H1215V46.5H1170V0Z"/>
<path d="M1125 0H1170V46.5H1125V0Z"/>
<path d="M1080 0H1125V46.5H1080V0Z"/>
<path d="M1035 0H1080V46.5H1035V0Z"/>
<path d="M990 0H1035V46.5H990V0Z"/>
<path d="M945 0H990V46.5H945V0Z"/>
<path d="M900 0H945V46.5H900V0Z"/>
<path d="M855 0H900V46.5H855V0Z"/>
<path d="M810 0H855V46.5H810V0Z"/>
<path d="M765 0H810V46.5H765V0Z"/>
<path d="M720 0H765V46.5H720V0Z"/>
<path d="M675 0H720V46.5H675V0Z"/>
<path d="M630 0H675V46.5H630V0Z"/>
<path d="M585 0H630V46.5H585V0Z"/>
<path d="M540 0H585V46.5H540V0Z"/>
<path d="M495 0H540V46.5H495V0Z"/>
<path d="M450 0H495V46.5H450V0Z"/>
<path d="M405 0H450V46.5H405V0Z"/>
<path d="M360 0H405V46.5H360V0Z"/>
<path d="M315 0H360V46.5H315V0Z"/>
<path d="M270 0H315V46.5H270V0Z"/>
<path d="M225 0H270V46.5H225V0Z"/>
<path d="M180 0H225V46.5H180V0Z"/>
<path d="M135 0H180V46.5H135V0Z"/>
<path d="M90 0H135V46.5H90V0Z"/>
<path d="M45 0H90V46.5H45V0Z"/>
<path d="M0 0H45V46.5H0V0Z"/>
<path d="M1350 0H1395V46.5H1350V0Z"/>
<path d="M1395 46.5H1440V93H1395V46.5Z"/>
<path d="M1395 93H1440V139.5H1395V93Z"/>
<path d="M1395 139.5H1440V186H1395V139.5Z"/>
<path d="M1395 186H1440V232.5H1395V186Z"/>
<path d="M1395 232.5H1440V279H1395V232.5Z"/>
<path d="M1395 279H1440V325.5H1395V279Z"/>
<path d="M1395 325.5H1440V372H1395V325.5Z"/>
<path d="M1395 372H1440V418.5H1395V372Z"/>
<path d="M1395 418.5H1440V465H1395V418.5Z"/>
<path d="M1395 465H1440V511.5H1395V465Z"/>
<path d="M1395 511.5H1440V558H1395V511.5Z"/>
<path d="M1395 558H1440V604.5H1395V558Z"/>
<path d="M1395 604.5H1440V651H1395V604.5Z"/>
<path d="M1395 651H1440V697.5H1395V651Z"/>
<path d="M1395 697.5H1440V744H1395V697.5Z"/>
<path d="M1395 744H1440V790.5H1395V744Z"/>
<path d="M1395 790.5H1440V837H1395V790.5Z"/>
<path d="M1305 46.5H1350V93H1305V46.5Z"/>
<path d="M1305 93H1350V139.5H1305V93Z"/>
<path d="M1305 139.5H1350V186H1305V139.5Z"/>
<path d="M1305 186H1350V232.5H1305V186Z"/>
<path d="M1305 232.5H1350V279H1305V232.5Z"/>
<path d="M1305 279H1350V325.5H1305V279Z"/>
<path d="M1305 325.5H1350V372H1305V325.5Z"/>
<path d="M1305 372H1350V418.5H1305V372Z"/>
<path d="M1305 418.5H1350V465H1305V418.5Z"/>
<path d="M1305 465H1350V511.5H1305V465Z"/>
<path d="M1305 511.5H1350V558H1305V511.5Z"/>
<path d="M1305 558H1350V604.5H1305V558Z"/>
<path d="M1305 604.5H1350V651H1305V604.5Z"/>
<path d="M1305 651H1350V697.5H1305V651Z"/>
<path d="M1305 697.5H1350V744H1305V697.5Z"/>
<path d="M1305 744H1350V790.5H1305V744Z"/>
<path d="M1305 790.5H1350V837H1305V790.5Z"/>
<path d="M1260 46.5H1305V93H1260V46.5Z"/>
<path d="M1260 93H1305V139.5H1260V93Z"/>
<path d="M1260 139.5H1305V186H1260V139.5Z"/>
<path d="M1260 186H1305V232.5H1260V186Z"/>
<path d="M1260 232.5H1305V279H1260V232.5Z"/>
<path d="M1260 279H1305V325.5H1260V279Z"/>
<path d="M1260 325.5H1305V372H1260V325.5Z"/>
<path d="M1260 372H1305V418.5H1260V372Z"/>
<path d="M1260 418.5H1305V465H1260V418.5Z"/>
<path d="M1260 465H1305V511.5H1260V465Z"/>
<path d="M1260 511.5H1305V558H1260V511.5Z"/>
<path d="M1260 558H1305V604.5H1260V558Z"/>
<path d="M1260 604.5H1305V651H1260V604.5Z"/>
<path d="M1260 651H1305V697.5H1260V651Z"/>
<path d="M1260 697.5H1305V744H1260V697.5Z"/>
<path d="M1260 744H1305V790.5H1260V744Z"/>
<path d="M1260 790.5H1305V837H1260V790.5Z"/>
<path d="M1215 46.5H1260V93H1215V46.5Z"/>
<path d="M1215 93H1260V139.5H1215V93Z"/>
<path d="M1215 139.5H1260V186H1215V139.5Z"/>
<path d="M1215 186H1260V232.5H1215V186Z"/>
<path d="M1215 232.5H1260V279H1215V232.5Z"/>
<path d="M1215 279H1260V325.5H1215V279Z"/>
<path d="M1215 325.5H1260V372H1215V325.5Z"/>
<path d="M1215 372H1260V418.5H1215V372Z"/>
<path d="M1215 418.5H1260V465H1215V418.5Z"/>
<path d="M1215 465H1260V511.5H1215V465Z"/>
<path d="M1215 511.5H1260V558H1215V511.5Z"/>
<path d="M1215 558H1260V604.5H1215V558Z"/>
<path d="M1215 604.5H1260V651H1215V604.5Z"/>
<path d="M1215 651H1260V697.5H1215V651Z"/>
<path d="M1215 697.5H1260V744H1215V697.5Z"/>
<path d="M1215 744H1260V790.5H1215V744Z"/>
<path d="M1215 790.5H1260V837H1215V790.5Z"/>
<path d="M1170 46.5H1215V93H1170V46.5Z"/>
<path d="M1170 93H1215V139.5H1170V93Z"/>
<path d="M1170 139.5H1215V186H1170V139.5Z"/>
<path d="M1170 186H1215V232.5H1170V186Z"/>
<path d="M1170 232.5H1215V279H1170V232.5Z"/>
<path d="M1170 279H1215V325.5H1170V279Z"/>
<path d="M1170 325.5H1215V372H1170V325.5Z"/>
<path d="M1170 372H1215V418.5H1170V372Z"/>
<path d="M1170 418.5H1215V465H1170V418.5Z"/>
<path d="M1170 465H1215V511.5H1170V465Z"/>
<path d="M1170 511.5H1215V558H1170V511.5Z"/>
<path d="M1170 558H1215V604.5H1170V558Z"/>
<path d="M1170 604.5H1215V651H1170V604.5Z"/>
<path d="M1170 651H1215V697.5H1170V651Z"/>
<path d="M1170 697.5H1215V744H1170V697.5Z"/>
<path d="M1170 744H1215V790.5H1170V744Z"/>
<path d="M1170 790.5H1215V837H1170V790.5Z"/>
<path d="M1125 46.5H1170V93H1125V46.5Z"/>
<path d="M1125 93H1170V139.5H1125V93Z"/>
<path d="M1125 139.5H1170V186H1125V139.5Z"/>
<path d="M1125 186H1170V232.5H1125V186Z"/>
<path d="M1125 232.5H1170V279H1125V232.5Z"/>
<path d="M1125 279H1170V325.5H1125V279Z"/>
<path d="M1125 325.5H1170V372H1125V325.5Z"/>
<path d="M1125 372H1170V418.5H1125V372Z"/>
<path d="M1125 418.5H1170V465H1125V418.5Z"/>
<path d="M1125 465H1170V511.5H1125V465Z"/>
<path d="M1125 511.5H1170V558H1125V511.5Z"/>
<path d="M1125 558H1170V604.5H1125V558Z"/>
<path d="M1125 604.5H1170V651H1125V604.5Z"/>
<path d="M1125 651H1170V697.5H1125V651Z"/>
<path d="M1125 697.5H1170V744H1125V697.5Z"/>
<path d="M1125 744H1170V790.5H1125V744Z"/>
<path d="M1125 790.5H1170V837H1125V790.5Z"/>
<path d="M1080 46.5H1125V93H1080V46.5Z"/>
<path d="M1080 93H1125V139.5H1080V93Z"/>
<path d="M1080 139.5H1125V186H1080V139.5Z"/>
<path d="M1080 186H1125V232.5H1080V186Z"/>
<path d="M1080 232.5H1125V279H1080V232.5Z"/>
<path d="M1080 279H1125V325.5H1080V279Z"/>
<path d="M1080 325.5H1125V372H1080V325.5Z"/>
<path d="M1080 372H1125V418.5H1080V372Z"/>
<path d="M1080 418.5H1125V465H1080V418.5Z"/>
<path d="M1080 465H1125V511.5H1080V465Z"/>
<path d="M1080 511.5H1125V558H1080V511.5Z"/>
<path d="M1080 558H1125V604.5H1080V558Z"/>
<path d="M1080 604.5H1125V651H1080V604.5Z"/>
<path d="M1080 651H1125V697.5H1080V651Z"/>
<path d="M1080 697.5H1125V744H1080V697.5Z"/>
<path d="M1080 744H1125V790.5H1080V744Z"/>
<path d="M1080 790.5H1125V837H1080V790.5Z"/>
<path d="M1035 46.5H1080V93H1035V46.5Z"/>
<path d="M1035 93H1080V139.5H1035V93Z"/>
<path d="M1035 139.5H1080V186H1035V139.5Z"/>
<path d="M1035 186H1080V232.5H1035V186Z"/>
<path d="M1035 232.5H1080V279H1035V232.5Z"/>
<path d="M1035 279H1080V325.5H1035V279Z"/>
<path d="M1035 325.5H1080V372H1035V325.5Z"/>
<path d="M1035 372H1080V418.5H1035V372Z"/>
<path d="M1035 418.5H1080V465H1035V418.5Z"/>
<path d="M1035 465H1080V511.5H1035V465Z"/>
<path d="M1035 511.5H1080V558H1035V511.5Z"/>
<path d="M1035 558H1080V604.5H1035V558Z"/>
<path d="M1035 604.5H1080V651H1035V604.5Z"/>
<path d="M1035 651H1080V697.5H1035V651Z"/>
<path d="M1035 697.5H1080V744H1035V697.5Z"/>
<path d="M1035 744H1080V790.5H1035V744Z"/>
<path d="M1035 790.5H1080V837H1035V790.5Z"/>
<path d="M990 46.5H1035V93H990V46.5Z"/>
<path d="M990 93H1035V139.5H990V93Z"/>
<path d="M990 139.5H1035V186H990V139.5Z"/>
<path d="M990 186H1035V232.5H990V186Z"/>
<path d="M990 232.5H1035V279H990V232.5Z"/>
<path d="M990 279H1035V325.5H990V279Z"/>
<path d="M990 325.5H1035V372H990V325.5Z"/>
<path d="M990 372H1035V418.5H990V372Z"/>
<path d="M990 418.5H1035V465H990V418.5Z"/>
<path d="M990 465H1035V511.5H990V465Z"/>
<path d="M990 511.5H1035V558H990V511.5Z"/>
<path d="M990 558H1035V604.5H990V558Z"/>
<path d="M990 604.5H1035V651H990V604.5Z"/>
<path d="M990 651H1035V697.5H990V651Z"/>
<path d="M990 697.5H1035V744H990V697.5Z"/>
<path d="M990 744H1035V790.5H990V744Z"/>
<path d="M990 790.5H1035V837H990V790.5Z"/>
<path d="M945 46.5H990V93H945V46.5Z"/>
<path d="M945 93H990V139.5H945V93Z"/>
<path d="M945 139.5H990V186H945V139.5Z"/>
<path d="M945 186H990V232.5H945V186Z"/>
<path d="M945 232.5H990V279H945V232.5Z"/>
<path d="M945 279H990V325.5H945V279Z"/>
<path d="M945 325.5H990V372H945V325.5Z"/>
<path d="M945 372H990V418.5H945V372Z"/>
<path d="M945 418.5H990V465H945V418.5Z"/>
<path d="M945 465H990V511.5H945V465Z"/>
<path d="M945 511.5H990V558H945V511.5Z"/>
<path d="M945 558H990V604.5H945V558Z"/>
<path d="M945 604.5H990V651H945V604.5Z"/>
<path d="M945 651H990V697.5H945V651Z"/>
<path d="M945 697.5H990V744H945V697.5Z"/>
<path d="M945 744H990V790.5H945V744Z"/>
<path d="M945 790.5H990V837H945V790.5Z"/>
<path d="M900 46.5H945V93H900V46.5Z"/>
<path d="M900 93H945V139.5H900V93Z"/>
<path d="M900 139.5H945V186H900V139.5Z"/>
<path d="M900 186H945V232.5H900V186Z"/>
<path d="M900 232.5H945V279H900V232.5Z"/>
<path d="M900 279H945V325.5H900V279Z"/>
<path d="M900 325.5H945V372H900V325.5Z"/>
<path d="M900 372H945V418.5H900V372Z"/>
<path d="M900 418.5H945V465H900V418.5Z"/>
<path d="M900 465H945V511.5H900V465Z"/>
<path d="M900 511.5H945V558H900V511.5Z"/>
<path d="M900 558H945V604.5H900V558Z"/>
<path d="M900 604.5H945V651H900V604.5Z"/>
<path d="M900 651H945V697.5H900V651Z"/>
<path d="M900 697.5H945V744H900V697.5Z"/>
<path d="M900 744H945V790.5H900V744Z"/>
<path d="M900 790.5H945V837H900V790.5Z"/>
<path d="M855 46.5H900V93H855V46.5Z"/>
<path d="M855 93H900V139.5H855V93Z"/>
<path d="M855 139.5H900V186H855V139.5Z"/>
<path d="M855 186H900V232.5H855V186Z"/>
<path d="M855 232.5H900V279H855V232.5Z"/>
<path d="M855 279H900V325.5H855V279Z"/>
<path d="M855 325.5H900V372H855V325.5Z"/>
<path d="M855 372H900V418.5H855V372Z"/>
<path d="M855 418.5H900V465H855V418.5Z"/>
<path d="M855 465H900V511.5H855V465Z"/>
<path d="M855 511.5H900V558H855V511.5Z"/>
<path d="M855 558H900V604.5H855V558Z"/>
<path d="M855 604.5H900V651H855V604.5Z"/>
<path d="M855 651H900V697.5H855V651Z"/>
<path d="M855 697.5H900V744H855V697.5Z"/>
<path d="M855 744H900V790.5H855V744Z"/>
<path d="M855 790.5H900V837H855V790.5Z"/>
<path d="M810 46.5H855V93H810V46.5Z"/>
<path d="M810 93H855V139.5H810V93Z"/>
<path d="M810 139.5H855V186H810V139.5Z"/>
<path d="M810 186H855V232.5H810V186Z"/>
<path d="M810 232.5H855V279H810V232.5Z"/>
<path d="M810 279H855V325.5H810V279Z"/>
<path d="M810 325.5H855V372H810V325.5Z"/>
<path d="M810 372H855V418.5H810V372Z"/>
<path d="M810 418.5H855V465H810V418.5Z"/>
<path d="M810 465H855V511.5H810V465Z"/>
<path d="M810 511.5H855V558H810V511.5Z"/>
<path d="M810 558H855V604.5H810V558Z"/>
<path d="M810 604.5H855V651H810V604.5Z"/>
<path d="M810 651H855V697.5H810V651Z"/>
<path d="M810 697.5H855V744H810V697.5Z"/>
<path d="M810 744H855V790.5H810V744Z"/>
<path d="M810 790.5H855V837H810V790.5Z"/>
<path d="M765 46.5H810V93H765V46.5Z"/>
<path d="M765 93H810V139.5H765V93Z"/>
<path d="M765 139.5H810V186H765V139.5Z"/>
<path d="M765 186H810V232.5H765V186Z"/>
<path d="M765 232.5H810V279H765V232.5Z"/>
<path d="M765 279H810V325.5H765V279Z"/>
<path d="M765 325.5H810V372H765V325.5Z"/>
<path d="M765 372H810V418.5H765V372Z"/>
<path d="M765 418.5H810V465H765V418.5Z"/>
<path d="M765 465H810V511.5H765V465Z"/>
<path d="M765 511.5H810V558H765V511.5Z"/>
<path d="M765 558H810V604.5H765V558Z"/>
<path d="M765 604.5H810V651H765V604.5Z"/>
<path d="M765 651H810V697.5H765V651Z"/>
<path d="M765 697.5H810V744H765V697.5Z"/>
<path d="M765 744H810V790.5H765V744Z"/>
<path d="M765 790.5H810V837H765V790.5Z"/>
<path d="M720 46.5H765V93H720V46.5Z"/>
<path d="M720 93H765V139.5H720V93Z"/>
<path d="M720 139.5H765V186H720V139.5Z"/>
<path d="M720 186H765V232.5H720V186Z"/>
<path d="M720 232.5H765V279H720V232.5Z"/>
<path d="M720 279H765V325.5H720V279Z"/>
<path d="M720 325.5H765V372H720V325.5Z"/>
<path d="M720 372H765V418.5H720V372Z"/>
<path d="M720 418.5H765V465H720V418.5Z"/>
<path d="M720 465H765V511.5H720V465Z"/>
<path d="M720 511.5H765V558H720V511.5Z"/>
<path d="M720 558H765V604.5H720V558Z"/>
<path d="M720 604.5H765V651H720V604.5Z"/>
<path d="M720 651H765V697.5H720V651Z"/>
<path d="M720 697.5H765V744H720V697.5Z"/>
<path d="M720 744H765V790.5H720V744Z"/>
<path d="M720 790.5H765V837H720V790.5Z"/>
<path d="M675 46.5H720V93H675V46.5Z"/>
<path d="M675 93H720V139.5H675V93Z"/>
<path d="M675 139.5H720V186H675V139.5Z"/>
<path d="M675 186H720V232.5H675V186Z"/>
<path d="M675 232.5H720V279H675V232.5Z"/>
<path d="M675 279H720V325.5H675V279Z"/>
<path d="M675 325.5H720V372H675V325.5Z"/>
<path d="M675 372H720V418.5H675V372Z"/>
<path d="M675 418.5H720V465H675V418.5Z"/>
<path d="M675 465H720V511.5H675V465Z"/>
<path d="M675 511.5H720V558H675V511.5Z"/>
<path d="M675 558H720V604.5H675V558Z"/>
<path d="M675 604.5H720V651H675V604.5Z"/>
<path d="M675 651H720V697.5H675V651Z"/>
<path d="M675 697.5H720V744H675V697.5Z"/>
<path d="M675 744H720V790.5H675V744Z"/>
<path d="M675 790.5H720V837H675V790.5Z"/>
<path d="M630 46.5H675V93H630V46.5Z"/>
<path d="M630 93H675V139.5H630V93Z"/>
<path d="M630 139.5H675V186H630V139.5Z"/>
<path d="M630 186H675V232.5H630V186Z"/>
<path d="M630 232.5H675V279H630V232.5Z"/>
<path d="M630 279H675V325.5H630V279Z"/>
<path d="M630 325.5H675V372H630V325.5Z"/>
<path d="M630 372H675V418.5H630V372Z"/>
<path d="M630 418.5H675V465H630V418.5Z"/>
<path d="M630 465H675V511.5H630V465Z"/>
<path d="M630 511.5H675V558H630V511.5Z"/>
<path d="M630 558H675V604.5H630V558Z"/>
<path d="M630 604.5H675V651H630V604.5Z"/>
<path d="M630 651H675V697.5H630V651Z"/>
<path d="M630 697.5H675V744H630V697.5Z"/>
<path d="M630 744H675V790.5H630V744Z"/>
<path d="M630 790.5H675V837H630V790.5Z"/>
<path d="M585 46.5H630V93H585V46.5Z"/>
<path d="M585 93H630V139.5H585V93Z"/>
<path d="M585 139.5H630V186H585V139.5Z"/>
<path d="M585 186H630V232.5H585V186Z"/>
<path d="M585 232.5H630V279H585V232.5Z"/>
<path d="M585 279H630V325.5H585V279Z"/>
<path d="M585 325.5H630V372H585V325.5Z"/>
<path d="M585 372H630V418.5H585V372Z"/>
<path d="M585 418.5H630V465H585V418.5Z"/>
<path d="M585 465H630V511.5H585V465Z"/>
<path d="M585 511.5H630V558H585V511.5Z"/>
<path d="M585 558H630V604.5H585V558Z"/>
<path d="M585 604.5H630V651H585V604.5Z"/>
<path d="M585 651H630V697.5H585V651Z"/>
<path d="M585 697.5H630V744H585V697.5Z"/>
<path d="M585 744H630V790.5H585V744Z"/>
<path d="M585 790.5H630V837H585V790.5Z"/>
<path d="M540 46.5H585V93H540V46.5Z"/>
<path d="M540 93H585V139.5H540V93Z"/>
<path d="M540 139.5H585V186H540V139.5Z"/>
<path d="M540 186H585V232.5H540V186Z"/>
<path d="M540 232.5H585V279H540V232.5Z"/>
<path d="M540 279H585V325.5H540V279Z"/>
<path d="M540 325.5H585V372H540V325.5Z"/>
<path d="M540 372H585V418.5H540V372Z"/>
<path d="M540 418.5H585V465H540V418.5Z"/>
<path d="M540 465H585V511.5H540V465Z"/>
<path d="M540 511.5H585V558H540V511.5Z"/>
<path d="M540 558H585V604.5H540V558Z"/>
<path d="M540 604.5H585V651H540V604.5Z"/>
<path d="M540 651H585V697.5H540V651Z"/>
<path d="M540 697.5H585V744H540V697.5Z"/>
<path d="M540 744H585V790.5H540V744Z"/>
<path d="M540 790.5H585V837H540V790.5Z"/>
<path d="M495 46.5H540V93H495V46.5Z"/>
<path d="M495 93H540V139.5H495V93Z"/>
<path d="M495 139.5H540V186H495V139.5Z"/>
<path d="M495 186H540V232.5H495V186Z"/>
<path d="M495 232.5H540V279H495V232.5Z"/>
<path d="M495 279H540V325.5H495V279Z"/>
<path d="M495 325.5H540V372H495V325.5Z"/>
<path d="M495 372H540V418.5H495V372Z"/>
<path d="M495 418.5H540V465H495V418.5Z"/>
<path d="M495 465H540V511.5H495V465Z"/>
<path d="M495 511.5H540V558H495V511.5Z"/>
<path d="M495 558H540V604.5H495V558Z"/>
<path d="M495 604.5H540V651H495V604.5Z"/>
<path d="M495 651H540V697.5H495V651Z"/>
<path d="M495 697.5H540V744H495V697.5Z"/>
<path d="M495 744H540V790.5H495V744Z"/>
<path d="M495 790.5H540V837H495V790.5Z"/>
<path d="M450 46.5H495V93H450V46.5Z"/>
<path d="M450 93H495V139.5H450V93Z"/>
<path d="M450 139.5H495V186H450V139.5Z"/>
<path d="M450 186H495V232.5H450V186Z"/>
<path d="M450 232.5H495V279H450V232.5Z"/>
<path d="M450 279H495V325.5H450V279Z"/>
<path d="M450 325.5H495V372H450V325.5Z"/>
<path d="M450 372H495V418.5H450V372Z"/>
<path d="M450 418.5H495V465H450V418.5Z"/>
<path d="M450 465H495V511.5H450V465Z"/>
<path d="M450 511.5H495V558H450V511.5Z"/>
<path d="M450 558H495V604.5H450V558Z"/>
<path d="M450 604.5H495V651H450V604.5Z"/>
<path d="M450 651H495V697.5H450V651Z"/>
<path d="M450 697.5H495V744H450V697.5Z"/>
<path d="M450 744H495V790.5H450V744Z"/>
<path d="M450 790.5H495V837H450V790.5Z"/>
<path d="M405 46.5H450V93H405V46.5Z"/>
<path d="M405 93H450V139.5H405V93Z"/>
<path d="M405 139.5H450V186H405V139.5Z"/>
<path d="M405 186H450V232.5H405V186Z"/>
<path d="M405 232.5H450V279H405V232.5Z"/>
<path d="M405 279H450V325.5H405V279Z"/>
<path d="M405 325.5H450V372H405V325.5Z"/>
<path d="M405 372H450V418.5H405V372Z"/>
<path d="M405 418.5H450V465H405V418.5Z"/>
<path d="M405 465H450V511.5H405V465Z"/>
<path d="M405 511.5H450V558H405V511.5Z"/>
<path d="M405 558H450V604.5H405V558Z"/>
<path d="M405 604.5H450V651H405V604.5Z"/>
<path d="M405 651H450V697.5H405V651Z"/>
<path d="M405 697.5H450V744H405V697.5Z"/>
<path d="M405 744H450V790.5H405V744Z"/>
<path d="M405 790.5H450V837H405V790.5Z"/>
<path d="M360 46.5H405V93H360V46.5Z"/>
<path d="M360 93H405V139.5H360V93Z"/>
<path d="M360 139.5H405V186H360V139.5Z"/>
<path d="M360 186H405V232.5H360V186Z"/>
<path d="M360 232.5H405V279H360V232.5Z"/>
<path d="M360 279H405V325.5H360V279Z"/>
<path d="M360 325.5H405V372H360V325.5Z"/>
<path d="M360 372H405V418.5H360V372Z"/>
<path d="M360 418.5H405V465H360V418.5Z"/>
<path d="M360 465H405V511.5H360V465Z"/>
<path d="M360 511.5H405V558H360V511.5Z"/>
<path d="M360 558H405V604.5H360V558Z"/>
<path d="M360 604.5H405V651H360V604.5Z"/>
<path d="M360 651H405V697.5H360V651Z"/>
<path d="M360 697.5H405V744H360V697.5Z"/>
<path d="M360 744H405V790.5H360V744Z"/>
<path d="M360 790.5H405V837H360V790.5Z"/>
<path d="M315 46.5H360V93H315V46.5Z"/>
<path d="M315 93H360V139.5H315V93Z"/>
<path d="M315 139.5H360V186H315V139.5Z"/>
<path d="M315 186H360V232.5H315V186Z"/>
<path d="M315 232.5H360V279H315V232.5Z"/>
<path d="M315 279H360V325.5H315V279Z"/>
<path d="M315 325.5H360V372H315V325.5Z"/>
<path d="M315 372H360V418.5H315V372Z"/>
<path d="M315 418.5H360V465H315V418.5Z"/>
<path d="M315 465H360V511.5H315V465Z"/>
<path d="M315 511.5H360V558H315V511.5Z"/>
<path d="M315 558H360V604.5H315V558Z"/>
<path d="M315 604.5H360V651H315V604.5Z"/>
<path d="M315 651H360V697.5H315V651Z"/>
<path d="M315 697.5H360V744H315V697.5Z"/>
<path d="M315 744H360V790.5H315V744Z"/>
<path d="M315 790.5H360V837H315V790.5Z"/>
<path d="M270 46.5H315V93H270V46.5Z"/>
<path d="M270 93H315V139.5H270V93Z"/>
<path d="M270 139.5H315V186H270V139.5Z"/>
<path d="M270 186H315V232.5H270V186Z"/>
<path d="M270 232.5H315V279H270V232.5Z"/>
<path d="M270 279H315V325.5H270V279Z"/>
<path d="M270 325.5H315V372H270V325.5Z"/>
<path d="M270 372H315V418.5H270V372Z"/>
<path d="M270 418.5H315V465H270V418.5Z"/>
<path d="M270 465H315V511.5H270V465Z"/>
<path d="M270 511.5H315V558H270V511.5Z"/>
<path d="M270 558H315V604.5H270V558Z"/>
<path d="M270 604.5H315V651H270V604.5Z"/>
<path d="M270 651H315V697.5H270V651Z"/>
<path d="M270 697.5H315V744H270V697.5Z"/>
<path d="M270 744H315V790.5H270V744Z"/>
<path d="M270 790.5H315V837H270V790.5Z"/>
<path d="M225 46.5H270V93H225V46.5Z"/>
<path d="M225 93H270V139.5H225V93Z"/>
<path d="M225 139.5H270V186H225V139.5Z"/>
<path d="M225 186H270V232.5H225V186Z"/>
<path d="M225 232.5H270V279H225V232.5Z"/>
<path d="M225 279H270V325.5H225V279Z"/>
<path d="M225 325.5H270V372H225V325.5Z"/>
<path d="M225 372H270V418.5H225V372Z"/>
<path d="M225 418.5H270V465H225V418.5Z"/>
<path d="M225 465H270V511.5H225V465Z"/>
<path d="M225 511.5H270V558H225V511.5Z"/>
<path d="M225 558H270V604.5H225V558Z"/>
<path d="M225 604.5H270V651H225V604.5Z"/>
<path d="M225 651H270V697.5H225V651Z"/>
<path d="M225 697.5H270V744H225V697.5Z"/>
<path d="M225 744H270V790.5H225V744Z"/>
<path d="M225 790.5H270V837H225V790.5Z"/>
<path d="M180 46.5H225V93H180V46.5Z"/>
<path d="M180 93H225V139.5H180V93Z"/>
<path d="M180 139.5H225V186H180V139.5Z"/>
<path d="M180 186H225V232.5H180V186Z"/>
<path d="M180 232.5H225V279H180V232.5Z"/>
<path d="M180 279H225V325.5H180V279Z"/>
<path d="M180 325.5H225V372H180V325.5Z"/>
<path d="M180 372H225V418.5H180V372Z"/>
<path d="M180 418.5H225V465H180V418.5Z"/>
<path d="M180 465H225V511.5H180V465Z"/>
<path d="M180 511.5H225V558H180V511.5Z"/>
<path d="M180 558H225V604.5H180V558Z"/>
<path d="M180 604.5H225V651H180V604.5Z"/>
<path d="M180 651H225V697.5H180V651Z"/>
<path d="M180 697.5H225V744H180V697.5Z"/>
<path d="M180 744H225V790.5H180V744Z"/>
<path d="M180 790.5H225V837H180V790.5Z"/>
<path d="M135 46.5H180V93H135V46.5Z"/>
<path d="M135 93H180V139.5H135V93Z"/>
<path d="M135 139.5H180V186H135V139.5Z"/>
<path d="M135 186H180V232.5H135V186Z"/>
<path d="M135 232.5H180V279H135V232.5Z"/>
<path d="M135 279H180V325.5H135V279Z"/>
<path d="M135 325.5H180V372H135V325.5Z"/>
<path d="M135 372H180V418.5H135V372Z"/>
<path d="M135 418.5H180V465H135V418.5Z"/>
<path d="M135 465H180V511.5H135V465Z"/>
<path d="M135 511.5H180V558H135V511.5Z"/>
<path d="M135 558H180V604.5H135V558Z"/>
<path d="M135 604.5H180V651H135V604.5Z"/>
<path d="M135 651H180V697.5H135V651Z"/>
<path d="M135 697.5H180V744H135V697.5Z"/>
<path d="M135 744H180V790.5H135V744Z"/>
<path d="M135 790.5H180V837H135V790.5Z"/>
<path d="M90 46.5H135V93H90V46.5Z"/>
<path d="M90 93H135V139.5H90V93Z"/>
<path d="M90 139.5H135V186H90V139.5Z"/>
<path d="M90 186H135V232.5H90V186Z"/>
<path d="M90 232.5H135V279H90V232.5Z"/>
<path d="M90 279H135V325.5H90V279Z"/>
<path d="M90 325.5H135V372H90V325.5Z"/>
<path d="M90 372H135V418.5H90V372Z"/>
<path d="M90 418.5H135V465H90V418.5Z"/>
<path d="M90 465H135V511.5H90V465Z"/>
<path d="M90 511.5H135V558H90V511.5Z"/>
<path d="M90 558H135V604.5H90V558Z"/>
<path d="M90 604.5H135V651H90V604.5Z"/>
<path d="M90 651H135V697.5H90V651Z"/>
<path d="M90 697.5H135V744H90V697.5Z"/>
<path d="M90 744H135V790.5H90V744Z"/>
<path d="M90 790.5H135V837H90V790.5Z"/>
<path d="M45 46.5H90V93H45V46.5Z"/>
<path d="M45 93H90V139.5H45V93Z"/>
<path d="M45 139.5H90V186H45V139.5Z"/>
<path d="M45 186H90V232.5H45V186Z"/>
<path d="M45 232.5H90V279H45V232.5Z"/>
<path d="M45 279H90V325.5H45V279Z"/>
<path d="M45 325.5H90V372H45V325.5Z"/>
<path d="M45 372H90V418.5H45V372Z"/>
<path d="M45 418.5H90V465H45V418.5Z"/>
<path d="M45 465H90V511.5H45V465Z"/>
<path d="M45 511.5H90V558H45V511.5Z"/>
<path d="M45 558H90V604.5H45V558Z"/>
<path d="M45 604.5H90V651H45V604.5Z"/>
<path d="M45 651H90V697.5H45V651Z"/>
<path d="M45 697.5H90V744H45V697.5Z"/>
<path d="M45 744H90V790.5H45V744Z"/>
<path d="M45 790.5H90V837H45V790.5Z"/>
<path d="M0 46.5H45V93H0V46.5Z"/>
<path d="M0 93H45V139.5H0V93Z"/>
<path d="M0 139.5H45V186H0V139.5Z"/>
<path d="M0 186H45V232.5H0V186Z"/>
<path d="M0 232.5H45V279H0V232.5Z"/>
<path d="M0 279H45V325.5H0V279Z"/>
<path d="M0 325.5H45V372H0V325.5Z"/>
<path d="M0 372H45V418.5H0V372Z"/>
<path d="M0 418.5H45V465H0V418.5Z"/>
<path d="M0 465H45V511.5H0V465Z"/>
<path d="M0 511.5H45V558H0V511.5Z"/>
<path d="M0 558H45V604.5H0V558Z"/>
<path d="M0 604.5H45V651H0V604.5Z"/>
<path d="M0 651H45V697.5H0V651Z"/>
<path d="M0 697.5H45V744H0V697.5Z"/>
<path d="M0 744H45V790.5H0V744Z"/>
<path d="M0 790.5H45V837H0V790.5Z"/>
<path d="M1350 46.5H1395V93H1350V46.5Z"/>
<path d="M1350 93H1395V139.5H1350V93Z"/>
<path d="M1350 139.5H1395V186H1350V139.5Z"/>
<path d="M1350 186H1395V232.5H1350V186Z"/>
<path d="M1350 232.5H1395V279H1350V232.5Z"/>
<path d="M1350 279H1395V325.5H1350V279Z"/>
<path d="M1350 325.5H1395V372H1350V325.5Z"/>
<path d="M1350 372H1395V418.5H1350V372Z"/>
<path d="M1350 418.5H1395V465H1350V418.5Z"/>
<path d="M1350 465H1395V511.5H1350V465Z"/>
<path d="M1350 511.5H1395V558H1350V511.5Z"/>
<path d="M1350 558H1395V604.5H1350V558Z"/>
<path d="M1350 604.5H1395V651H1350V604.5Z"/>
<path d="M1350 651H1395V697.5H1350V651Z"/>
<path d="M1350 697.5H1395V744H1350V697.5Z"/>
<path d="M1350 744H1395V790.5H1350V744Z"/>
<path d="M1350 790.5H1395V837H1350V790.5Z"/>
</mask>
<path d="M1440 46H1395V47H1440V46ZM1395.5 46.5V0H1394.5V46.5H1395.5ZM1349.5 0V46.5H1350.5V0H1349.5ZM1350 46H1305V47H1350V46ZM1305.5 46.5V0H1304.5V46.5H1305.5ZM1305 46H1260V47H1305V46ZM1260.5 46.5V0H1259.5V46.5H1260.5ZM1260 46H1215V47H1260V46ZM1215.5 46.5V0H1214.5V46.5H1215.5ZM1215 46H1170V47H1215V46ZM1170.5 46.5V0H1169.5V46.5H1170.5ZM1170 46H1125V47H1170V46ZM1125.5 46.5V0H1124.5V46.5H1125.5ZM1125 46H1080V47H1125V46ZM1080.5 46.5V0H1079.5V46.5H1080.5ZM1080 46H1035V47H1080V46ZM1035.5 46.5V0H1034.5V46.5H1035.5ZM1035 46H990V47H1035V46ZM990.5 46.5V0H989.5V46.5H990.5ZM990 46H945V47H990V46ZM945.5 46.5V0H944.5V46.5H945.5ZM945 46H900V47H945V46ZM900.5 46.5V0H899.5V46.5H900.5ZM900 46H855V47H900V46ZM855.5 46.5V0H854.5V46.5H855.5ZM855 46H810V47H855V46ZM810.5 46.5V0H809.5V46.5H810.5ZM810 46H765V47H810V46ZM765.5 46.5V0H764.5V46.5H765.5ZM765 46H720V47H765V46ZM720.5 46.5V0H719.5V46.5H720.5ZM720 46H675V47H720V46ZM675.5 46.5V0H674.5V46.5H675.5ZM675 46H630V47H675V46ZM630.5 46.5V0H629.5V46.5H630.5ZM630 46H585V47H630V46ZM585.5 46.5V0H584.5V46.5H585.5ZM585 46H540V47H585V46ZM540.5 46.5V0H539.5V46.5H540.5ZM540 46H495V47H540V46ZM495.5 46.5V0H494.5V46.5H495.5ZM495 46H450V47H495V46ZM450.5 46.5V0H449.5V46.5H450.5ZM450 46H405V47H450V46ZM405.5 46.5V0H404.5V46.5H405.5ZM405 46H360V47H405V46ZM360.5 46.5V0H359.5V46.5H360.5ZM360 46H315V47H360V46ZM315.5 46.5V0H314.5V46.5H315.5ZM315 46H270V47H315V46ZM270.5 46.5V0H269.5V46.5H270.5ZM270 46H225V47H270V46ZM225.5 46.5V0H224.5V46.5H225.5ZM225 46H180V47H225V46ZM180.5 46.5V0H179.5V46.5H180.5ZM180 46H135V47H180V46ZM135.5 46.5V0H134.5V46.5H135.5ZM135 46H90V47H135V46ZM90.5 46.5V0H89.5V46.5H90.5ZM90 46H45V47H90V46ZM45.5 46.5V0H44.5V46.5H45.5ZM45 46H0V47H45V46ZM1395 46H1350V47H1395V46ZM1440 92.5H1395V93.5H1440V92.5ZM1395.5 93V46.5H1394.5V93H1395.5ZM1440 139H1395V140H1440V139ZM1395.5 139.5V93H1394.5V139.5H1395.5ZM1440 185.5H1395V186.5H1440V185.5ZM1395.5 186V139.5H1394.5V186H1395.5ZM1440 232H1395V233H1440V232ZM1395.5 232.5V186H1394.5V232.5H1395.5ZM1440 278.5H1395V279.5H1440V278.5ZM1395.5 279V232.5H1394.5V279H1395.5ZM1440 325H1395V326H1440V325ZM1395.5 325.5V279H1394.5V325.5H1395.5ZM1440 371.5H1395V372.5H1440V371.5ZM1395.5 372V325.5H1394.5V372H1395.5ZM1440 418H1395V419H1440V418ZM1395.5 418.5V372H1394.5V418.5H1395.5ZM1440 464.5H1395V465.5H1440V464.5ZM1395.5 465V418.5H1394.5V465H1395.5ZM1440 511H1395V512H1440V511ZM1395.5 511.5V465H1394.5V511.5H1395.5ZM1440 557.5H1395V558.5H1440V557.5ZM1395.5 558V511.5H1394.5V558H1395.5ZM1440 604H1395V605H1440V604ZM1395.5 604.5V558H1394.5V604.5H1395.5ZM1440 650.5H1395V651.5H1440V650.5ZM1395.5 651V604.5H1394.5V651H1395.5ZM1440 697H1395V698H1440V697ZM1395.5 697.5V651H1394.5V697.5H1395.5ZM1440 743.5H1395V744.5H1440V743.5ZM1395.5 744V697.5H1394.5V744H1395.5ZM1440 790H1395V791H1440V790ZM1395.5 790.5V744H1394.5V790.5H1395.5ZM1395.5 837V790.5H1394.5V837H1395.5ZM1349.5 46.5V93H1350.5V46.5H1349.5ZM1350 92.5H1305V93.5H1350V92.5ZM1305.5 93V46.5H1304.5V93H1305.5ZM1349.5 93V139.5H1350.5V93H1349.5ZM1350 139H1305V140H1350V139ZM1305.5 139.5V93H1304.5V139.5H1305.5ZM1349.5 139.5V186H1350.5V139.5H1349.5ZM1350 185.5H1305V186.5H1350V185.5ZM1305.5 186V139.5H1304.5V186H1305.5ZM1349.5 186V232.5H1350.5V186H1349.5ZM1350 232H1305V233H1350V232ZM1305.5 232.5V186H1304.5V232.5H1305.5ZM1349.5 232.5V279H1350.5V232.5H1349.5ZM1350 278.5H1305V279.5H1350V278.5ZM1305.5 279V232.5H1304.5V279H1305.5ZM1349.5 279V325.5H1350.5V279H1349.5ZM1350 325H1305V326H1350V325ZM1305.5 325.5V279H1304.5V325.5H1305.5ZM1349.5 325.5V372H1350.5V325.5H1349.5ZM1350 371.5H1305V372.5H1350V371.5ZM1305.5 372V325.5H1304.5V372H1305.5ZM1349.5 372V418.5H1350.5V372H1349.5ZM1350 418H1305V419H1350V418ZM1305.5 418.5V372H1304.5V418.5H1305.5ZM1349.5 418.5V465H1350.5V418.5H1349.5ZM1350 464.5H1305V465.5H1350V464.5ZM1305.5 465V418.5H1304.5V465H1305.5ZM1349.5 465V511.5H1350.5V465H1349.5ZM1350 511H1305V512H1350V511ZM1305.5 511.5V465H1304.5V511.5H1305.5ZM1349.5 511.5V558H1350.5V511.5H1349.5ZM1350 557.5H1305V558.5H1350V557.5ZM1305.5 558V511.5H1304.5V558H1305.5ZM1349.5 558V604.5H1350.5V558H1349.5ZM1350 604H1305V605H1350V604ZM1305.5 604.5V558H1304.5V604.5H1305.5ZM1349.5 604.5V651H1350.5V604.5H1349.5ZM1350 650.5H1305V651.5H1350V650.5ZM1305.5 651V604.5H1304.5V651H1305.5ZM1349.5 651V697.5H1350.5V651H1349.5ZM1350 697H1305V698H1350V697ZM1305.5 697.5V651H1304.5V697.5H1305.5ZM1349.5 697.5V744H1350.5V697.5H1349.5ZM1350 743.5H1305V744.5H1350V743.5ZM1305.5 744V697.5H1304.5V744H1305.5ZM1349.5 744V790.5H1350.5V744H1349.5ZM1350 790H1305V791H1350V790ZM1305.5 790.5V744H1304.5V790.5H1305.5ZM1349.5 790.5V837H1350.5V790.5H1349.5ZM1305.5 837V790.5H1304.5V837H1305.5ZM1305 92.5H1260V93.5H1305V92.5ZM1260.5 93V46.5H1259.5V93H1260.5ZM1305 139H1260V140H1305V139ZM1260.5 139.5V93H1259.5V139.5H1260.5ZM1305 185.5H1260V186.5H1305V185.5ZM1260.5 186V139.5H1259.5V186H1260.5ZM1305 232H1260V233H1305V232ZM1260.5 232.5V186H1259.5V232.5H1260.5ZM1305 278.5H1260V279.5H1305V278.5ZM1260.5 279V232.5H1259.5V279H1260.5ZM1305 325H1260V326H1305V325ZM1260.5 325.5V279H1259.5V325.5H1260.5ZM1305 371.5H1260V372.5H1305V371.5ZM1260.5 372V325.5H1259.5V372H1260.5ZM1305 418H1260V419H1305V418ZM1260.5 418.5V372H1259.5V418.5H1260.5ZM1305 464.5H1260V465.5H1305V464.5ZM1260.5 465V418.5H1259.5V465H1260.5ZM1305 511H1260V512H1305V511ZM1260.5 511.5V465H1259.5V511.5H1260.5ZM1305 557.5H1260V558.5H1305V557.5ZM1260.5 558V511.5H1259.5V558H1260.5ZM1305 604H1260V605H1305V604ZM1260.5 604.5V558H1259.5V604.5H1260.5ZM1305 650.5H1260V651.5H1305V650.5ZM1260.5 651V604.5H1259.5V651H1260.5ZM1305 697H1260V698H1305V697ZM1260.5 697.5V651H1259.5V697.5H1260.5ZM1305 743.5H1260V744.5H1305V743.5ZM1260.5 744V697.5H1259.5V744H1260.5ZM1305 790H1260V791H1305V790ZM1260.5 790.5V744H1259.5V790.5H1260.5ZM1260.5 837V790.5H1259.5V837H1260.5ZM1260 92.5H1215V93.5H1260V92.5ZM1215.5 93V46.5H1214.5V93H1215.5ZM1260 139H1215V140H1260V139ZM1215.5 139.5V93H1214.5V139.5H1215.5ZM1260 185.5H1215V186.5H1260V185.5ZM1215.5 186V139.5H1214.5V186H1215.5ZM1260 232H1215V233H1260V232ZM1215.5 232.5V186H1214.5V232.5H1215.5ZM1260 278.5H1215V279.5H1260V278.5ZM1215.5 279V232.5H1214.5V279H1215.5ZM1260 325H1215V326H1260V325ZM1215.5 325.5V279H1214.5V325.5H1215.5ZM1260 371.5H1215V372.5H1260V371.5ZM1215.5 372V325.5H1214.5V372H1215.5ZM1260 418H1215V419H1260V418ZM1215.5 418.5V372H1214.5V418.5H1215.5ZM1260 464.5H1215V465.5H1260V464.5ZM1215.5 465V418.5H1214.5V465H1215.5ZM1260 511H1215V512H1260V511ZM1215.5 511.5V465H1214.5V511.5H1215.5ZM1260 557.5H1215V558.5H1260V557.5ZM1215.5 558V511.5H1214.5V558H1215.5ZM1260 604H1215V605H1260V604ZM1215.5 604.5V558H1214.5V604.5H1215.5ZM1260 650.5H1215V651.5H1260V650.5ZM1215.5 651V604.5H1214.5V651H1215.5ZM1260 697H1215V698H1260V697ZM1215.5 697.5V651H1214.5V697.5H1215.5ZM1260 743.5H1215V744.5H1260V743.5ZM1215.5 744V697.5H1214.5V744H1215.5ZM1260 790H1215V791H1260V790ZM1215.5 790.5V744H1214.5V790.5H1215.5ZM1215.5 837V790.5H1214.5V837H1215.5ZM1215 92.5H1170V93.5H1215V92.5ZM1170.5 93V46.5H1169.5V93H1170.5ZM1215 139H1170V140H1215V139ZM1170.5 139.5V93H1169.5V139.5H1170.5ZM1215 185.5H1170V186.5H1215V185.5ZM1170.5 186V139.5H1169.5V186H1170.5ZM1215 232H1170V233H1215V232ZM1170.5 232.5V186H1169.5V232.5H1170.5ZM1215 278.5H1170V279.5H1215V278.5ZM1170.5 279V232.5H1169.5V279H1170.5ZM1215 325H1170V326H1215V325ZM1170.5 325.5V279H1169.5V325.5H1170.5ZM1215 371.5H1170V372.5H1215V371.5ZM1170.5 372V325.5H1169.5V372H1170.5ZM1215 418H1170V419H1215V418ZM1170.5 418.5V372H1169.5V418.5H1170.5ZM1215 464.5H1170V465.5H1215V464.5ZM1170.5 465V418.5H1169.5V465H1170.5ZM1215 511H1170V512H1215V511ZM1170.5 511.5V465H1169.5V511.5H1170.5ZM1215 557.5H1170V558.5H1215V557.5ZM1170.5 558V511.5H1169.5V558H1170.5ZM1215 604H1170V605H1215V604ZM1170.5 604.5V558H1169.5V604.5H1170.5ZM1215 650.5H1170V651.5H1215V650.5ZM1170.5 651V604.5H1169.5V651H1170.5ZM1215 697H1170V698H1215V697ZM1170.5 697.5V651H1169.5V697.5H1170.5ZM1215 743.5H1170V744.5H1215V743.5ZM1170.5 744V697.5H1169.5V744H1170.5ZM1215 790H1170V791H1215V790ZM1170.5 790.5V744H1169.5V790.5H1170.5ZM1170.5 837V790.5H1169.5V837H1170.5ZM1170 92.5H1125V93.5H1170V92.5ZM1125.5 93V46.5H1124.5V93H1125.5ZM1170 139H1125V140H1170V139ZM1125.5 139.5V93H1124.5V139.5H1125.5ZM1170 185.5H1125V186.5H1170V185.5ZM1125.5 186V139.5H1124.5V186H1125.5ZM1170 232H1125V233H1170V232ZM1125.5 232.5V186H1124.5V232.5H1125.5ZM1170 278.5H1125V279.5H1170V278.5ZM1125.5 279V232.5H1124.5V279H1125.5ZM1170 325H1125V326H1170V325ZM1125.5 325.5V279H1124.5V325.5H1125.5ZM1170 371.5H1125V372.5H1170V371.5ZM1125.5 372V325.5H1124.5V372H1125.5ZM1170 418H1125V419H1170V418ZM1125.5 418.5V372H1124.5V418.5H1125.5ZM1170 464.5H1125V465.5H1170V464.5ZM1125.5 465V418.5H1124.5V465H1125.5ZM1170 511H1125V512H1170V511ZM1125.5 511.5V465H1124.5V511.5H1125.5ZM1170 557.5H1125V558.5H1170V557.5ZM1125.5 558V511.5H1124.5V558H1125.5ZM1170 604H1125V605H1170V604ZM1125.5 604.5V558H1124.5V604.5H1125.5ZM1170 650.5H1125V651.5H1170V650.5ZM1125.5 651V604.5H1124.5V651H1125.5ZM1170 697H1125V698H1170V697ZM1125.5 697.5V651H1124.5V697.5H1125.5ZM1170 743.5H1125V744.5H1170V743.5ZM1125.5 744V697.5H1124.5V744H1125.5ZM1170 790H1125V791H1170V790ZM1125.5 790.5V744H1124.5V790.5H1125.5ZM1125.5 837V790.5H1124.5V837H1125.5ZM1125 92.5H1080V93.5H1125V92.5ZM1080.5 93V46.5H1079.5V93H1080.5ZM1125 139H1080V140H1125V139ZM1080.5 139.5V93H1079.5V139.5H1080.5ZM1125 185.5H1080V186.5H1125V185.5ZM1080.5 186V139.5H1079.5V186H1080.5ZM1125 232H1080V233H1125V232ZM1080.5 232.5V186H1079.5V232.5H1080.5ZM1125 278.5H1080V279.5H1125V278.5ZM1080.5 279V232.5H1079.5V279H1080.5ZM1125 325H1080V326H1125V325ZM1080.5 325.5V279H1079.5V325.5H1080.5ZM1125 371.5H1080V372.5H1125V371.5ZM1080.5 372V325.5H1079.5V372H1080.5ZM1125 418H1080V419H1125V418ZM1080.5 418.5V372H1079.5V418.5H1080.5ZM1125 464.5H1080V465.5H1125V464.5ZM1080.5 465V418.5H1079.5V465H1080.5ZM1125 511H1080V512H1125V511ZM1080.5 511.5V465H1079.5V511.5H1080.5ZM1125 557.5H1080V558.5H1125V557.5ZM1080.5 558V511.5H1079.5V558H1080.5ZM1125 604H1080V605H1125V604ZM1080.5 604.5V558H1079.5V604.5H1080.5ZM1125 650.5H1080V651.5H1125V650.5ZM1080.5 651V604.5H1079.5V651H1080.5ZM1125 697H1080V698H1125V697ZM1080.5 697.5V651H1079.5V697.5H1080.5ZM1125 743.5H1080V744.5H1125V743.5ZM1080.5 744V697.5H1079.5V744H1080.5ZM1125 790H1080V791H1125V790ZM1080.5 790.5V744H1079.5V790.5H1080.5ZM1080.5 837V790.5H1079.5V837H1080.5ZM1080 92.5H1035V93.5H1080V92.5ZM1035.5 93V46.5H1034.5V93H1035.5ZM1080 139H1035V140H1080V139ZM1035.5 139.5V93H1034.5V139.5H1035.5ZM1080 185.5H1035V186.5H1080V185.5ZM1035.5 186V139.5H1034.5V186H1035.5ZM1080 232H1035V233H1080V232ZM1035.5 232.5V186H1034.5V232.5H1035.5ZM1080 278.5H1035V279.5H1080V278.5ZM1035.5 279V232.5H1034.5V279H1035.5ZM1080 325H1035V326H1080V325ZM1035.5 325.5V279H1034.5V325.5H1035.5ZM1080 371.5H1035V372.5H1080V371.5ZM1035.5 372V325.5H1034.5V372H1035.5ZM1080 418H1035V419H1080V418ZM1035.5 418.5V372H1034.5V418.5H1035.5ZM1080 464.5H1035V465.5H1080V464.5ZM1035.5 465V418.5H1034.5V465H1035.5ZM1080 511H1035V512H1080V511ZM1035.5 511.5V465H1034.5V511.5H1035.5ZM1080 557.5H1035V558.5H1080V557.5ZM1035.5 558V511.5H1034.5V558H1035.5ZM1080 604H1035V605H1080V604ZM1035.5 604.5V558H1034.5V604.5H1035.5ZM1080 650.5H1035V651.5H1080V650.5ZM1035.5 651V604.5H1034.5V651H1035.5ZM1080 697H1035V698H1080V697ZM1035.5 697.5V651H1034.5V697.5H1035.5ZM1080 743.5H1035V744.5H1080V743.5ZM1035.5 744V697.5H1034.5V744H1035.5ZM1080 790H1035V791H1080V790ZM1035.5 790.5V744H1034.5V790.5H1035.5ZM1035.5 837V790.5H1034.5V837H1035.5ZM1035 92.5H990V93.5H1035V92.5ZM990.5 93V46.5H989.5V93H990.5ZM1035 139H990V140H1035V139ZM990.5 139.5V93H989.5V139.5H990.5ZM1035 185.5H990V186.5H1035V185.5ZM990.5 186V139.5H989.5V186H990.5ZM1035 232H990V233H1035V232ZM990.5 232.5V186H989.5V232.5H990.5ZM1035 278.5H990V279.5H1035V278.5ZM990.5 279V232.5H989.5V279H990.5ZM1035 325H990V326H1035V325ZM990.5 325.5V279H989.5V325.5H990.5ZM1035 371.5H990V372.5H1035V371.5ZM990.5 372V325.5H989.5V372H990.5ZM1035 418H990V419H1035V418ZM990.5 418.5V372H989.5V418.5H990.5ZM1035 464.5H990V465.5H1035V464.5ZM990.5 465V418.5H989.5V465H990.5ZM1035 511H990V512H1035V511ZM990.5 511.5V465H989.5V511.5H990.5ZM1035 557.5H990V558.5H1035V557.5ZM990.5 558V511.5H989.5V558H990.5ZM1035 604H990V605H1035V604ZM990.5 604.5V558H989.5V604.5H990.5ZM1035 650.5H990V651.5H1035V650.5ZM990.5 651V604.5H989.5V651H990.5ZM1035 697H990V698H1035V697ZM990.5 697.5V651H989.5V697.5H990.5ZM1035 743.5H990V744.5H1035V743.5ZM990.5 744V697.5H989.5V744H990.5ZM1035 790H990V791H1035V790ZM990.5 790.5V744H989.5V790.5H990.5ZM990.5 837V790.5H989.5V837H990.5ZM990 92.5H945V93.5H990V92.5ZM945.5 93V46.5H944.5V93H945.5ZM990 139H945V140H990V139ZM945.5 139.5V93H944.5V139.5H945.5ZM990 185.5H945V186.5H990V185.5ZM945.5 186V139.5H944.5V186H945.5ZM990 232H945V233H990V232ZM945.5 232.5V186H944.5V232.5H945.5ZM990 278.5H945V279.5H990V278.5ZM945.5 279V232.5H944.5V279H945.5ZM990 325H945V326H990V325ZM945.5 325.5V279H944.5V325.5H945.5ZM990 371.5H945V372.5H990V371.5ZM945.5 372V325.5H944.5V372H945.5ZM990 418H945V419H990V418ZM945.5 418.5V372H944.5V418.5H945.5ZM990 464.5H945V465.5H990V464.5ZM945.5 465V418.5H944.5V465H945.5ZM990 511H945V512H990V511ZM945.5 511.5V465H944.5V511.5H945.5ZM990 557.5H945V558.5H990V557.5ZM945.5 558V511.5H944.5V558H945.5ZM990 604H945V605H990V604ZM945.5 604.5V558H944.5V604.5H945.5ZM990 650.5H945V651.5H990V650.5ZM945.5 651V604.5H944.5V651H945.5ZM990 697H945V698H990V697ZM945.5 697.5V651H944.5V697.5H945.5ZM990 743.5H945V744.5H990V743.5ZM945.5 744V697.5H944.5V744H945.5ZM990 790H945V791H990V790ZM945.5 790.5V744H944.5V790.5H945.5ZM945.5 837V790.5H944.5V837H945.5ZM945 92.5H900V93.5H945V92.5ZM900.5 93V46.5H899.5V93H900.5ZM945 139H900V140H945V139ZM900.5 139.5V93H899.5V139.5H900.5ZM945 185.5H900V186.5H945V185.5ZM900.5 186V139.5H899.5V186H900.5ZM945 232H900V233H945V232ZM900.5 232.5V186H899.5V232.5H900.5ZM945 278.5H900V279.5H945V278.5ZM900.5 279V232.5H899.5V279H900.5ZM945 325H900V326H945V325ZM900.5 325.5V279H899.5V325.5H900.5ZM945 371.5H900V372.5H945V371.5ZM900.5 372V325.5H899.5V372H900.5ZM945 418H900V419H945V418ZM900.5 418.5V372H899.5V418.5H900.5ZM945 464.5H900V465.5H945V464.5ZM900.5 465V418.5H899.5V465H900.5ZM945 511H900V512H945V511ZM900.5 511.5V465H899.5V511.5H900.5ZM945 557.5H900V558.5H945V557.5ZM900.5 558V511.5H899.5V558H900.5ZM945 604H900V605H945V604ZM900.5 604.5V558H899.5V604.5H900.5ZM945 650.5H900V651.5H945V650.5ZM900.5 651V604.5H899.5V651H900.5ZM945 697H900V698H945V697ZM900.5 697.5V651H899.5V697.5H900.5ZM945 743.5H900V744.5H945V743.5ZM900.5 744V697.5H899.5V744H900.5ZM945 790H900V791H945V790ZM900.5 790.5V744H899.5V790.5H900.5ZM900.5 837V790.5H899.5V837H900.5ZM900 92.5H855V93.5H900V92.5ZM855.5 93V46.5H854.5V93H855.5ZM900 139H855V140H900V139ZM855.5 139.5V93H854.5V139.5H855.5ZM900 185.5H855V186.5H900V185.5ZM855.5 186V139.5H854.5V186H855.5ZM900 232H855V233H900V232ZM855.5 232.5V186H854.5V232.5H855.5ZM900 278.5H855V279.5H900V278.5ZM855.5 279V232.5H854.5V279H855.5ZM900 325H855V326H900V325ZM855.5 325.5V279H854.5V325.5H855.5ZM900 371.5H855V372.5H900V371.5ZM855.5 372V325.5H854.5V372H855.5ZM900 418H855V419H900V418ZM855.5 418.5V372H854.5V418.5H855.5ZM900 464.5H855V465.5H900V464.5ZM855.5 465V418.5H854.5V465H855.5ZM900 511H855V512H900V511ZM855.5 511.5V465H854.5V511.5H855.5ZM900 557.5H855V558.5H900V557.5ZM855.5 558V511.5H854.5V558H855.5ZM900 604H855V605H900V604ZM855.5 604.5V558H854.5V604.5H855.5ZM900 650.5H855V651.5H900V650.5ZM855.5 651V604.5H854.5V651H855.5ZM900 697H855V698H900V697ZM855.5 697.5V651H854.5V697.5H855.5ZM900 743.5H855V744.5H900V743.5ZM855.5 744V697.5H854.5V744H855.5ZM900 790H855V791H900V790ZM855.5 790.5V744H854.5V790.5H855.5ZM855.5 837V790.5H854.5V837H855.5ZM855 92.5H810V93.5H855V92.5ZM810.5 93V46.5H809.5V93H810.5ZM855 139H810V140H855V139ZM810.5 139.5V93H809.5V139.5H810.5ZM855 185.5H810V186.5H855V185.5ZM810.5 186V139.5H809.5V186H810.5ZM855 232H810V233H855V232ZM810.5 232.5V186H809.5V232.5H810.5ZM855 278.5H810V279.5H855V278.5ZM810.5 279V232.5H809.5V279H810.5ZM855 325H810V326H855V325ZM810.5 325.5V279H809.5V325.5H810.5ZM855 371.5H810V372.5H855V371.5ZM810.5 372V325.5H809.5V372H810.5ZM855 418H810V419H855V418ZM810.5 418.5V372H809.5V418.5H810.5ZM855 464.5H810V465.5H855V464.5ZM810.5 465V418.5H809.5V465H810.5ZM855 511H810V512H855V511ZM810.5 511.5V465H809.5V511.5H810.5ZM855 557.5H810V558.5H855V557.5ZM810.5 558V511.5H809.5V558H810.5ZM855 604H810V605H855V604ZM810.5 604.5V558H809.5V604.5H810.5ZM855 650.5H810V651.5H855V650.5ZM810.5 651V604.5H809.5V651H810.5ZM855 697H810V698H855V697ZM810.5 697.5V651H809.5V697.5H810.5ZM855 743.5H810V744.5H855V743.5ZM810.5 744V697.5H809.5V744H810.5ZM855 790H810V791H855V790ZM810.5 790.5V744H809.5V790.5H810.5ZM810.5 837V790.5H809.5V837H810.5ZM810 92.5H765V93.5H810V92.5ZM765.5 93V46.5H764.5V93H765.5ZM810 139H765V140H810V139ZM765.5 139.5V93H764.5V139.5H765.5ZM810 185.5H765V186.5H810V185.5ZM765.5 186V139.5H764.5V186H765.5ZM810 232H765V233H810V232ZM765.5 232.5V186H764.5V232.5H765.5ZM810 278.5H765V279.5H810V278.5ZM765.5 279V232.5H764.5V279H765.5ZM810 325H765V326H810V325ZM765.5 325.5V279H764.5V325.5H765.5ZM810 371.5H765V372.5H810V371.5ZM765.5 372V325.5H764.5V372H765.5ZM810 418H765V419H810V418ZM765.5 418.5V372H764.5V418.5H765.5ZM810 464.5H765V465.5H810V464.5ZM765.5 465V418.5H764.5V465H765.5ZM810 511H765V512H810V511ZM765.5 511.5V465H764.5V511.5H765.5ZM810 557.5H765V558.5H810V557.5ZM765.5 558V511.5H764.5V558H765.5ZM810 604H765V605H810V604ZM765.5 604.5V558H764.5V604.5H765.5ZM810 650.5H765V651.5H810V650.5ZM765.5 651V604.5H764.5V651H765.5ZM810 697H765V698H810V697ZM765.5 697.5V651H764.5V697.5H765.5ZM810 743.5H765V744.5H810V743.5ZM765.5 744V697.5H764.5V744H765.5ZM810 790H765V791H810V790ZM765.5 790.5V744H764.5V790.5H765.5ZM765.5 837V790.5H764.5V837H765.5ZM765 92.5H720V93.5H765V92.5ZM720.5 93V46.5H719.5V93H720.5ZM765 139H720V140H765V139ZM720.5 139.5V93H719.5V139.5H720.5ZM765 185.5H720V186.5H765V185.5ZM720.5 186V139.5H719.5V186H720.5ZM765 232H720V233H765V232ZM720.5 232.5V186H719.5V232.5H720.5ZM765 278.5H720V279.5H765V278.5ZM720.5 279V232.5H719.5V279H720.5ZM765 325H720V326H765V325ZM720.5 325.5V279H719.5V325.5H720.5ZM765 371.5H720V372.5H765V371.5ZM720.5 372V325.5H719.5V372H720.5ZM765 418H720V419H765V418ZM720.5 418.5V372H719.5V418.5H720.5ZM765 464.5H720V465.5H765V464.5ZM720.5 465V418.5H719.5V465H720.5ZM765 511H720V512H765V511ZM720.5 511.5V465H719.5V511.5H720.5ZM765 557.5H720V558.5H765V557.5ZM720.5 558V511.5H719.5V558H720.5ZM765 604H720V605H765V604ZM720.5 604.5V558H719.5V604.5H720.5ZM765 650.5H720V651.5H765V650.5ZM720.5 651V604.5H719.5V651H720.5ZM765 697H720V698H765V697ZM720.5 697.5V651H719.5V697.5H720.5ZM765 743.5H720V744.5H765V743.5ZM720.5 744V697.5H719.5V744H720.5ZM765 790H720V791H765V790ZM720.5 790.5V744H719.5V790.5H720.5ZM720.5 837V790.5H719.5V837H720.5ZM720 92.5H675V93.5H720V92.5ZM675.5 93V46.5H674.5V93H675.5ZM720 139H675V140H720V139ZM675.5 139.5V93H674.5V139.5H675.5ZM720 185.5H675V186.5H720V185.5ZM675.5 186V139.5H674.5V186H675.5ZM720 232H675V233H720V232ZM675.5 232.5V186H674.5V232.5H675.5ZM720 278.5H675V279.5H720V278.5ZM675.5 279V232.5H674.5V279H675.5ZM720 325H675V326H720V325ZM675.5 325.5V279H674.5V325.5H675.5ZM720 371.5H675V372.5H720V371.5ZM675.5 372V325.5H674.5V372H675.5ZM720 418H675V419H720V418ZM675.5 418.5V372H674.5V418.5H675.5ZM720 464.5H675V465.5H720V464.5ZM675.5 465V418.5H674.5V465H675.5ZM720 511H675V512H720V511ZM675.5 511.5V465H674.5V511.5H675.5ZM720 557.5H675V558.5H720V557.5ZM675.5 558V511.5H674.5V558H675.5ZM720 604H675V605H720V604ZM675.5 604.5V558H674.5V604.5H675.5ZM720 650.5H675V651.5H720V650.5ZM675.5 651V604.5H674.5V651H675.5ZM720 697H675V698H720V697ZM675.5 697.5V651H674.5V697.5H675.5ZM720 743.5H675V744.5H720V743.5ZM675.5 744V697.5H674.5V744H675.5ZM720 790H675V791H720V790ZM675.5 790.5V744H674.5V790.5H675.5ZM675.5 837V790.5H674.5V837H675.5ZM675 92.5H630V93.5H675V92.5ZM630.5 93V46.5H629.5V93H630.5ZM675 139H630V140H675V139ZM630.5 139.5V93H629.5V139.5H630.5ZM675 185.5H630V186.5H675V185.5ZM630.5 186V139.5H629.5V186H630.5ZM675 232H630V233H675V232ZM630.5 232.5V186H629.5V232.5H630.5ZM675 278.5H630V279.5H675V278.5ZM630.5 279V232.5H629.5V279H630.5ZM675 325H630V326H675V325ZM630.5 325.5V279H629.5V325.5H630.5ZM675 371.5H630V372.5H675V371.5ZM630.5 372V325.5H629.5V372H630.5ZM675 418H630V419H675V418ZM630.5 418.5V372H629.5V418.5H630.5ZM675 464.5H630V465.5H675V464.5ZM630.5 465V418.5H629.5V465H630.5ZM675 511H630V512H675V511ZM630.5 511.5V465H629.5V511.5H630.5ZM675 557.5H630V558.5H675V557.5ZM630.5 558V511.5H629.5V558H630.5ZM675 604H630V605H675V604ZM630.5 604.5V558H629.5V604.5H630.5ZM675 650.5H630V651.5H675V650.5ZM630.5 651V604.5H629.5V651H630.5ZM675 697H630V698H675V697ZM630.5 697.5V651H629.5V697.5H630.5ZM675 743.5H630V744.5H675V743.5ZM630.5 744V697.5H629.5V744H630.5ZM675 790H630V791H675V790ZM630.5 790.5V744H629.5V790.5H630.5ZM630.5 837V790.5H629.5V837H630.5ZM630 92.5H585V93.5H630V92.5ZM585.5 93V46.5H584.5V93H585.5ZM630 139H585V140H630V139ZM585.5 139.5V93H584.5V139.5H585.5ZM630 185.5H585V186.5H630V185.5ZM585.5 186V139.5H584.5V186H585.5ZM630 232H585V233H630V232ZM585.5 232.5V186H584.5V232.5H585.5ZM630 278.5H585V279.5H630V278.5ZM585.5 279V232.5H584.5V279H585.5ZM630 325H585V326H630V325ZM585.5 325.5V279H584.5V325.5H585.5ZM630 371.5H585V372.5H630V371.5ZM585.5 372V325.5H584.5V372H585.5ZM630 418H585V419H630V418ZM585.5 418.5V372H584.5V418.5H585.5ZM630 464.5H585V465.5H630V464.5ZM585.5 465V418.5H584.5V465H585.5ZM630 511H585V512H630V511ZM585.5 511.5V465H584.5V511.5H585.5ZM630 557.5H585V558.5H630V557.5ZM585.5 558V511.5H584.5V558H585.5ZM630 604H585V605H630V604ZM585.5 604.5V558H584.5V604.5H585.5ZM630 650.5H585V651.5H630V650.5ZM585.5 651V604.5H584.5V651H585.5ZM630 697H585V698H630V697ZM585.5 697.5V651H584.5V697.5H585.5ZM630 743.5H585V744.5H630V743.5ZM585.5 744V697.5H584.5V744H585.5ZM630 790H585V791H630V790ZM585.5 790.5V744H584.5V790.5H585.5ZM585.5 837V790.5H584.5V837H585.5ZM585 92.5H540V93.5H585V92.5ZM540.5 93V46.5H539.5V93H540.5ZM585 139H540V140H585V139ZM540.5 139.5V93H539.5V139.5H540.5ZM585 185.5H540V186.5H585V185.5ZM540.5 186V139.5H539.5V186H540.5ZM585 232H540V233H585V232ZM540.5 232.5V186H539.5V232.5H540.5ZM585 278.5H540V279.5H585V278.5ZM540.5 279V232.5H539.5V279H540.5ZM585 325H540V326H585V325ZM540.5 325.5V279H539.5V325.5H540.5ZM585 371.5H540V372.5H585V371.5ZM540.5 372V325.5H539.5V372H540.5ZM585 418H540V419H585V418ZM540.5 418.5V372H539.5V418.5H540.5ZM585 464.5H540V465.5H585V464.5ZM540.5 465V418.5H539.5V465H540.5ZM585 511H540V512H585V511ZM540.5 511.5V465H539.5V511.5H540.5ZM585 557.5H540V558.5H585V557.5ZM540.5 558V511.5H539.5V558H540.5ZM585 604H540V605H585V604ZM540.5 604.5V558H539.5V604.5H540.5ZM585 650.5H540V651.5H585V650.5ZM540.5 651V604.5H539.5V651H540.5ZM585 697H540V698H585V697ZM540.5 697.5V651H539.5V697.5H540.5ZM585 743.5H540V744.5H585V743.5ZM540.5 744V697.5H539.5V744H540.5ZM585 790H540V791H585V790ZM540.5 790.5V744H539.5V790.5H540.5ZM540.5 837V790.5H539.5V837H540.5ZM540 92.5H495V93.5H540V92.5ZM495.5 93V46.5H494.5V93H495.5ZM540 139H495V140H540V139ZM495.5 139.5V93H494.5V139.5H495.5ZM540 185.5H495V186.5H540V185.5ZM495.5 186V139.5H494.5V186H495.5ZM540 232H495V233H540V232ZM495.5 232.5V186H494.5V232.5H495.5ZM540 278.5H495V279.5H540V278.5ZM495.5 279V232.5H494.5V279H495.5ZM540 325H495V326H540V325ZM495.5 325.5V279H494.5V325.5H495.5ZM540 371.5H495V372.5H540V371.5ZM495.5 372V325.5H494.5V372H495.5ZM540 418H495V419H540V418ZM495.5 418.5V372H494.5V418.5H495.5ZM540 464.5H495V465.5H540V464.5ZM495.5 465V418.5H494.5V465H495.5ZM540 511H495V512H540V511ZM495.5 511.5V465H494.5V511.5H495.5ZM540 557.5H495V558.5H540V557.5ZM495.5 558V511.5H494.5V558H495.5ZM540 604H495V605H540V604ZM495.5 604.5V558H494.5V604.5H495.5ZM540 650.5H495V651.5H540V650.5ZM495.5 651V604.5H494.5V651H495.5ZM540 697H495V698H540V697ZM495.5 697.5V651H494.5V697.5H495.5ZM540 743.5H495V744.5H540V743.5ZM495.5 744V697.5H494.5V744H495.5ZM540 790H495V791H540V790ZM495.5 790.5V744H494.5V790.5H495.5ZM495.5 837V790.5H494.5V837H495.5ZM495 92.5H450V93.5H495V92.5ZM450.5 93V46.5H449.5V93H450.5ZM495 139H450V140H495V139ZM450.5 139.5V93H449.5V139.5H450.5ZM495 185.5H450V186.5H495V185.5ZM450.5 186V139.5H449.5V186H450.5ZM495 232H450V233H495V232ZM450.5 232.5V186H449.5V232.5H450.5ZM495 278.5H450V279.5H495V278.5ZM450.5 279V232.5H449.5V279H450.5ZM495 325H450V326H495V325ZM450.5 325.5V279H449.5V325.5H450.5ZM495 371.5H450V372.5H495V371.5ZM450.5 372V325.5H449.5V372H450.5ZM495 418H450V419H495V418ZM450.5 418.5V372H449.5V418.5H450.5ZM495 464.5H450V465.5H495V464.5ZM450.5 465V418.5H449.5V465H450.5ZM495 511H450V512H495V511ZM450.5 511.5V465H449.5V511.5H450.5ZM495 557.5H450V558.5H495V557.5ZM450.5 558V511.5H449.5V558H450.5ZM495 604H450V605H495V604ZM450.5 604.5V558H449.5V604.5H450.5ZM495 650.5H450V651.5H495V650.5ZM450.5 651V604.5H449.5V651H450.5ZM495 697H450V698H495V697ZM450.5 697.5V651H449.5V697.5H450.5ZM495 743.5H450V744.5H495V743.5ZM450.5 744V697.5H449.5V744H450.5ZM495 790H450V791H495V790ZM450.5 790.5V744H449.5V790.5H450.5ZM450.5 837V790.5H449.5V837H450.5ZM450 92.5H405V93.5H450V92.5ZM405.5 93V46.5H404.5V93H405.5ZM450 139H405V140H450V139ZM405.5 139.5V93H404.5V139.5H405.5ZM450 185.5H405V186.5H450V185.5ZM405.5 186V139.5H404.5V186H405.5ZM450 232H405V233H450V232ZM405.5 232.5V186H404.5V232.5H405.5ZM450 278.5H405V279.5H450V278.5ZM405.5 279V232.5H404.5V279H405.5ZM450 325H405V326H450V325ZM405.5 325.5V279H404.5V325.5H405.5ZM450 371.5H405V372.5H450V371.5ZM405.5 372V325.5H404.5V372H405.5ZM450 418H405V419H450V418ZM405.5 418.5V372H404.5V418.5H405.5ZM450 464.5H405V465.5H450V464.5ZM405.5 465V418.5H404.5V465H405.5ZM450 511H405V512H450V511ZM405.5 511.5V465H404.5V511.5H405.5ZM450 557.5H405V558.5H450V557.5ZM405.5 558V511.5H404.5V558H405.5ZM450 604H405V605H450V604ZM405.5 604.5V558H404.5V604.5H405.5ZM450 650.5H405V651.5H450V650.5ZM405.5 651V604.5H404.5V651H405.5ZM450 697H405V698H450V697ZM405.5 697.5V651H404.5V697.5H405.5ZM450 743.5H405V744.5H450V743.5ZM405.5 744V697.5H404.5V744H405.5ZM450 790H405V791H450V790ZM405.5 790.5V744H404.5V790.5H405.5ZM405.5 837V790.5H404.5V837H405.5ZM405 92.5H360V93.5H405V92.5ZM360.5 93V46.5H359.5V93H360.5ZM405 139H360V140H405V139ZM360.5 139.5V93H359.5V139.5H360.5ZM405 185.5H360V186.5H405V185.5ZM360.5 186V139.5H359.5V186H360.5ZM405 232H360V233H405V232ZM360.5 232.5V186H359.5V232.5H360.5ZM405 278.5H360V279.5H405V278.5ZM360.5 279V232.5H359.5V279H360.5ZM405 325H360V326H405V325ZM360.5 325.5V279H359.5V325.5H360.5ZM405 371.5H360V372.5H405V371.5ZM360.5 372V325.5H359.5V372H360.5ZM405 418H360V419H405V418ZM360.5 418.5V372H359.5V418.5H360.5ZM405 464.5H360V465.5H405V464.5ZM360.5 465V418.5H359.5V465H360.5ZM405 511H360V512H405V511ZM360.5 511.5V465H359.5V511.5H360.5ZM405 557.5H360V558.5H405V557.5ZM360.5 558V511.5H359.5V558H360.5ZM405 604H360V605H405V604ZM360.5 604.5V558H359.5V604.5H360.5ZM405 650.5H360V651.5H405V650.5ZM360.5 651V604.5H359.5V651H360.5ZM405 697H360V698H405V697ZM360.5 697.5V651H359.5V697.5H360.5ZM405 743.5H360V744.5H405V743.5ZM360.5 744V697.5H359.5V744H360.5ZM405 790H360V791H405V790ZM360.5 790.5V744H359.5V790.5H360.5ZM360.5 837V790.5H359.5V837H360.5ZM360 92.5H315V93.5H360V92.5ZM315.5 93V46.5H314.5V93H315.5ZM360 139H315V140H360V139ZM315.5 139.5V93H314.5V139.5H315.5ZM360 185.5H315V186.5H360V185.5ZM315.5 186V139.5H314.5V186H315.5ZM360 232H315V233H360V232ZM315.5 232.5V186H314.5V232.5H315.5ZM360 278.5H315V279.5H360V278.5ZM315.5 279V232.5H314.5V279H315.5ZM360 325H315V326H360V325ZM315.5 325.5V279H314.5V325.5H315.5ZM360 371.5H315V372.5H360V371.5ZM315.5 372V325.5H314.5V372H315.5ZM360 418H315V419H360V418ZM315.5 418.5V372H314.5V418.5H315.5ZM360 464.5H315V465.5H360V464.5ZM315.5 465V418.5H314.5V465H315.5ZM360 511H315V512H360V511ZM315.5 511.5V465H314.5V511.5H315.5ZM360 557.5H315V558.5H360V557.5ZM315.5 558V511.5H314.5V558H315.5ZM360 604H315V605H360V604ZM315.5 604.5V558H314.5V604.5H315.5ZM360 650.5H315V651.5H360V650.5ZM315.5 651V604.5H314.5V651H315.5ZM360 697H315V698H360V697ZM315.5 697.5V651H314.5V697.5H315.5ZM360 743.5H315V744.5H360V743.5ZM315.5 744V697.5H314.5V744H315.5ZM360 790H315V791H360V790ZM315.5 790.5V744H314.5V790.5H315.5ZM315.5 837V790.5H314.5V837H315.5ZM315 92.5H270V93.5H315V92.5ZM270.5 93V46.5H269.5V93H270.5ZM315 139H270V140H315V139ZM270.5 139.5V93H269.5V139.5H270.5ZM315 185.5H270V186.5H315V185.5ZM270.5 186V139.5H269.5V186H270.5ZM315 232H270V233H315V232ZM270.5 232.5V186H269.5V232.5H270.5ZM315 278.5H270V279.5H315V278.5ZM270.5 279V232.5H269.5V279H270.5ZM315 325H270V326H315V325ZM270.5 325.5V279H269.5V325.5H270.5ZM315 371.5H270V372.5H315V371.5ZM270.5 372V325.5H269.5V372H270.5ZM315 418H270V419H315V418ZM270.5 418.5V372H269.5V418.5H270.5ZM315 464.5H270V465.5H315V464.5ZM270.5 465V418.5H269.5V465H270.5ZM315 511H270V512H315V511ZM270.5 511.5V465H269.5V511.5H270.5ZM315 557.5H270V558.5H315V557.5ZM270.5 558V511.5H269.5V558H270.5ZM315 604H270V605H315V604ZM270.5 604.5V558H269.5V604.5H270.5ZM315 650.5H270V651.5H315V650.5ZM270.5 651V604.5H269.5V651H270.5ZM315 697H270V698H315V697ZM270.5 697.5V651H269.5V697.5H270.5ZM315 743.5H270V744.5H315V743.5ZM270.5 744V697.5H269.5V744H270.5ZM315 790H270V791H315V790ZM270.5 790.5V744H269.5V790.5H270.5ZM270.5 837V790.5H269.5V837H270.5ZM270 92.5H225V93.5H270V92.5ZM225.5 93V46.5H224.5V93H225.5ZM270 139H225V140H270V139ZM225.5 139.5V93H224.5V139.5H225.5ZM270 185.5H225V186.5H270V185.5ZM225.5 186V139.5H224.5V186H225.5ZM270 232H225V233H270V232ZM225.5 232.5V186H224.5V232.5H225.5ZM270 278.5H225V279.5H270V278.5ZM225.5 279V232.5H224.5V279H225.5ZM270 325H225V326H270V325ZM225.5 325.5V279H224.5V325.5H225.5ZM270 371.5H225V372.5H270V371.5ZM225.5 372V325.5H224.5V372H225.5ZM270 418H225V419H270V418ZM225.5 418.5V372H224.5V418.5H225.5ZM270 464.5H225V465.5H270V464.5ZM225.5 465V418.5H224.5V465H225.5ZM270 511H225V512H270V511ZM225.5 511.5V465H224.5V511.5H225.5ZM270 557.5H225V558.5H270V557.5ZM225.5 558V511.5H224.5V558H225.5ZM270 604H225V605H270V604ZM225.5 604.5V558H224.5V604.5H225.5ZM270 650.5H225V651.5H270V650.5ZM225.5 651V604.5H224.5V651H225.5ZM270 697H225V698H270V697ZM225.5 697.5V651H224.5V697.5H225.5ZM270 743.5H225V744.5H270V743.5ZM225.5 744V697.5H224.5V744H225.5ZM270 790H225V791H270V790ZM225.5 790.5V744H224.5V790.5H225.5ZM225.5 837V790.5H224.5V837H225.5ZM225 92.5H180V93.5H225V92.5ZM180.5 93V46.5H179.5V93H180.5ZM225 139H180V140H225V139ZM180.5 139.5V93H179.5V139.5H180.5ZM225 185.5H180V186.5H225V185.5ZM180.5 186V139.5H179.5V186H180.5ZM225 232H180V233H225V232ZM180.5 232.5V186H179.5V232.5H180.5ZM225 278.5H180V279.5H225V278.5ZM180.5 279V232.5H179.5V279H180.5ZM225 325H180V326H225V325ZM180.5 325.5V279H179.5V325.5H180.5ZM225 371.5H180V372.5H225V371.5ZM180.5 372V325.5H179.5V372H180.5ZM225 418H180V419H225V418ZM180.5 418.5V372H179.5V418.5H180.5ZM225 464.5H180V465.5H225V464.5ZM180.5 465V418.5H179.5V465H180.5ZM225 511H180V512H225V511ZM180.5 511.5V465H179.5V511.5H180.5ZM225 557.5H180V558.5H225V557.5ZM180.5 558V511.5H179.5V558H180.5ZM225 604H180V605H225V604ZM180.5 604.5V558H179.5V604.5H180.5ZM225 650.5H180V651.5H225V650.5ZM180.5 651V604.5H179.5V651H180.5ZM225 697H180V698H225V697ZM180.5 697.5V651H179.5V697.5H180.5ZM225 743.5H180V744.5H225V743.5ZM180.5 744V697.5H179.5V744H180.5ZM225 790H180V791H225V790ZM180.5 790.5V744H179.5V790.5H180.5ZM180.5 837V790.5H179.5V837H180.5ZM180 92.5H135V93.5H180V92.5ZM135.5 93V46.5H134.5V93H135.5ZM180 139H135V140H180V139ZM135.5 139.5V93H134.5V139.5H135.5ZM180 185.5H135V186.5H180V185.5ZM135.5 186V139.5H134.5V186H135.5ZM180 232H135V233H180V232ZM135.5 232.5V186H134.5V232.5H135.5ZM180 278.5H135V279.5H180V278.5ZM135.5 279V232.5H134.5V279H135.5ZM180 325H135V326H180V325ZM135.5 325.5V279H134.5V325.5H135.5ZM180 371.5H135V372.5H180V371.5ZM135.5 372V325.5H134.5V372H135.5ZM180 418H135V419H180V418ZM135.5 418.5V372H134.5V418.5H135.5ZM180 464.5H135V465.5H180V464.5ZM135.5 465V418.5H134.5V465H135.5ZM180 511H135V512H180V511ZM135.5 511.5V465H134.5V511.5H135.5ZM180 557.5H135V558.5H180V557.5ZM135.5 558V511.5H134.5V558H135.5ZM180 604H135V605H180V604ZM135.5 604.5V558H134.5V604.5H135.5ZM180 650.5H135V651.5H180V650.5ZM135.5 651V604.5H134.5V651H135.5ZM180 697H135V698H180V697ZM135.5 697.5V651H134.5V697.5H135.5ZM180 743.5H135V744.5H180V743.5ZM135.5 744V697.5H134.5V744H135.5ZM180 790H135V791H180V790ZM135.5 790.5V744H134.5V790.5H135.5ZM135.5 837V790.5H134.5V837H135.5ZM135 92.5H90V93.5H135V92.5ZM90.5 93V46.5H89.5V93H90.5ZM135 139H90V140H135V139ZM90.5 139.5V93H89.5V139.5H90.5ZM135 185.5H90V186.5H135V185.5ZM90.5 186V139.5H89.5V186H90.5ZM135 232H90V233H135V232ZM90.5 232.5V186H89.5V232.5H90.5ZM135 278.5H90V279.5H135V278.5ZM90.5 279V232.5H89.5V279H90.5ZM135 325H90V326H135V325ZM90.5 325.5V279H89.5V325.5H90.5ZM135 371.5H90V372.5H135V371.5ZM90.5 372V325.5H89.5V372H90.5ZM135 418H90V419H135V418ZM90.5 418.5V372H89.5V418.5H90.5ZM135 464.5H90V465.5H135V464.5ZM90.5 465V418.5H89.5V465H90.5ZM135 511H90V512H135V511ZM90.5 511.5V465H89.5V511.5H90.5ZM135 557.5H90V558.5H135V557.5ZM90.5 558V511.5H89.5V558H90.5ZM135 604H90V605H135V604ZM90.5 604.5V558H89.5V604.5H90.5ZM135 650.5H90V651.5H135V650.5ZM90.5 651V604.5H89.5V651H90.5ZM135 697H90V698H135V697ZM90.5 697.5V651H89.5V697.5H90.5ZM135 743.5H90V744.5H135V743.5ZM90.5 744V697.5H89.5V744H90.5ZM135 790H90V791H135V790ZM90.5 790.5V744H89.5V790.5H90.5ZM90.5 837V790.5H89.5V837H90.5ZM90 92.5H45V93.5H90V92.5ZM45.5 93V46.5H44.5V93H45.5ZM90 139H45V140H90V139ZM45.5 139.5V93H44.5V139.5H45.5ZM90 185.5H45V186.5H90V185.5ZM45.5 186V139.5H44.5V186H45.5ZM90 232H45V233H90V232ZM45.5 232.5V186H44.5V232.5H45.5ZM90 278.5H45V279.5H90V278.5ZM45.5 279V232.5H44.5V279H45.5ZM90 325H45V326H90V325ZM45.5 325.5V279H44.5V325.5H45.5ZM90 371.5H45V372.5H90V371.5ZM45.5 372V325.5H44.5V372H45.5ZM90 418H45V419H90V418ZM45.5 418.5V372H44.5V418.5H45.5ZM90 464.5H45V465.5H90V464.5ZM45.5 465V418.5H44.5V465H45.5ZM90 511H45V512H90V511ZM45.5 511.5V465H44.5V511.5H45.5ZM90 557.5H45V558.5H90V557.5ZM45.5 558V511.5H44.5V558H45.5ZM90 604H45V605H90V604ZM45.5 604.5V558H44.5V604.5H45.5ZM90 650.5H45V651.5H90V650.5ZM45.5 651V604.5H44.5V651H45.5ZM90 697H45V698H90V697ZM45.5 697.5V651H44.5V697.5H45.5ZM90 743.5H45V744.5H90V743.5ZM45.5 744V697.5H44.5V744H45.5ZM90 790H45V791H90V790ZM45.5 790.5V744H44.5V790.5H45.5ZM45.5 837V790.5H44.5V837H45.5ZM45 92.5H0V93.5H45V92.5ZM45 139H0V140H45V139ZM45 185.5H0V186.5H45V185.5ZM45 232H0V233H45V232ZM45 278.5H0V279.5H45V278.5ZM45 325H0V326H45V325ZM45 371.5H0V372.5H45V371.5ZM45 418H0V419H45V418ZM45 464.5H0V465.5H45V464.5ZM45 511H0V512H45V511ZM45 557.5H0V558.5H45V557.5ZM45 604H0V605H45V604ZM45 650.5H0V651.5H45V650.5ZM45 697H0V698H45V697ZM45 743.5H0V744.5H45V743.5ZM45 790H0V791H45V790ZM1395 92.5H1350V93.5H1395V92.5ZM1395 139H1350V140H1395V139ZM1395 185.5H1350V186.5H1395V185.5ZM1395 232H1350V233H1395V232ZM1395 278.5H1350V279.5H1395V278.5ZM1395 325H1350V326H1395V325ZM1395 371.5H1350V372.5H1395V371.5ZM1395 418H1350V419H1395V418ZM1395 464.5H1350V465.5H1395V464.5ZM1395 511H1350V512H1395V511ZM1395 557.5H1350V558.5H1395V557.5ZM1395 604H1350V605H1395V604ZM1395 650.5H1350V651.5H1395V650.5ZM1395 697H1350V698H1395V697ZM1395 743.5H1350V744.5H1395V743.5ZM1395 790H1350V791H1395V790ZM1440 0H1441V-1H1440V0ZM0 0V-1H-1V0H0ZM1440 837V838H1441V837H1440ZM0 837H-1V838H0V837ZM1395 1H1440V-1H1395V1ZM1439 0V46.5H1441V0H1439ZM1305 1H1350V-1H1305V1ZM1260 1H1305V-1H1260V1ZM1215 1H1260V-1H1215V1ZM1170 1H1215V-1H1170V1ZM1125 1H1170V-1H1125V1ZM1080 1H1125V-1H1080V1ZM1035 1H1080V-1H1035V1ZM990 1H1035V-1H990V1ZM945 1H990V-1H945V1ZM900 1H945V-1H900V1ZM855 1H900V-1H855V1ZM810 1H855V-1H810V1ZM765 1H810V-1H765V1ZM720 1H765V-1H720V1ZM675 1H720V-1H675V1ZM630 1H675V-1H630V1ZM585 1H630V-1H585V1ZM540 1H585V-1H540V1ZM495 1H540V-1H495V1ZM450 1H495V-1H450V1ZM405 1H450V-1H405V1ZM360 1H405V-1H360V1ZM315 1H360V-1H315V1ZM270 1H315V-1H270V1ZM225 1H270V-1H225V1ZM180 1H225V-1H180V1ZM135 1H180V-1H135V1ZM90 1H135V-1H90V1ZM45 1H90V-1H45V1ZM0 1H45V-1H0V1ZM1 46.5V0H-1V46.5H1ZM1350 1H1395V-1H1350V1ZM1439 46.5V93H1441V46.5H1439ZM1439 93V139.5H1441V93H1439ZM1439 139.5V186H1441V139.5H1439ZM1439 186V232.5H1441V186H1439ZM1439 232.5V279H1441V232.5H1439ZM1439 279V325.5H1441V279H1439ZM1439 325.5V372H1441V325.5H1439ZM1439 372V418.5H1441V372H1439ZM1439 418.5V465H1441V418.5H1439ZM1439 465V511.5H1441V465H1439ZM1439 511.5V558H1441V511.5H1439ZM1439 558V604.5H1441V558H1439ZM1439 604.5V651H1441V604.5H1439ZM1439 651V697.5H1441V651H1439ZM1439 697.5V744H1441V697.5H1439ZM1439 744V790.5H1441V744H1439ZM1439 790.5V837H1441V790.5H1439ZM1440 836H1395V838H1440V836ZM1350 836H1305V838H1350V836ZM1305 836H1260V838H1305V836ZM1260 836H1215V838H1260V836ZM1215 836H1170V838H1215V836ZM1170 836H1125V838H1170V836ZM1125 836H1080V838H1125V836ZM1080 836H1035V838H1080V836ZM1035 836H990V838H1035V836ZM990 836H945V838H990V836ZM945 836H900V838H945V836ZM900 836H855V838H900V836ZM855 836H810V838H855V836ZM810 836H765V838H810V836ZM765 836H720V838H765V836ZM720 836H675V838H720V836ZM675 836H630V838H675V836ZM630 836H585V838H630V836ZM585 836H540V838H585V836ZM540 836H495V838H540V836ZM495 836H450V838H495V836ZM450 836H405V838H450V836ZM405 836H360V838H405V836ZM360 836H315V838H360V836ZM315 836H270V838H315V836ZM270 836H225V838H270V836ZM225 836H180V838H225V836ZM180 836H135V838H180V836ZM135 836H90V838H135V836ZM90 836H45V838H90V836ZM1 93V46.5H-1V93H1ZM1 139.5V93H-1V139.5H1ZM1 186V139.5H-1V186H1ZM1 232.5V186H-1V232.5H1ZM1 279V232.5H-1V279H1ZM1 325.5V279H-1V325.5H1ZM1 372V325.5H-1V372H1ZM1 418.5V372H-1V418.5H1ZM1 465V418.5H-1V465H1ZM1 511.5V465H-1V511.5H1ZM1 558V511.5H-1V558H1ZM1 604.5V558H-1V604.5H1ZM1 651V604.5H-1V651H1ZM1 697.5V651H-1V697.5H1ZM1 744V697.5H-1V744H1ZM1 790.5V744H-1V790.5H1ZM45 836H0V838H45V836ZM1 837V790.5H-1V837H1ZM1395 836H1350V838H1395V836Z" fill="#ADADAD" fill-opacity="0.05" mask="url(#path-1-inside-1_195_48)"/>
</g>
<g opacity="0.32">
<mask id="path-3-inside-2_195_48" fill="white">
<path d="M1305.09 424.739C1305.09 421.425 1307.78 418.739 1311.09 418.739H1344.1C1347.41 418.739 1350.1 421.425 1350.1 424.739V459.221C1350.1 462.535 1347.41 465.221 1344.1 465.221H1311.09C1307.78 465.221 1305.09 462.535 1305.09 459.221V424.739Z"/>
<path d="M1215.08 703.633C1215.08 700.319 1217.76 697.633 1221.08 697.633H1254.09C1257.4 697.633 1260.09 700.319 1260.09 703.633V738.115C1260.09 741.429 1257.4 744.115 1254.09 744.115H1221.08C1217.76 744.115 1215.08 741.429 1215.08 738.115V703.633Z"/>
<path d="M1170.07 517.703C1170.07 514.39 1172.76 511.703 1176.07 511.703H1209.08C1212.39 511.703 1215.08 514.39 1215.08 517.703V552.186C1215.08 555.499 1212.39 558.186 1209.08 558.186H1176.07C1172.76 558.186 1170.07 555.499 1170.07 552.186V517.703Z"/>
<path d="M1170.07 610.668C1170.07 607.354 1172.76 604.668 1176.07 604.668H1209.08C1212.39 604.668 1215.08 607.354 1215.08 610.668V645.15C1215.08 648.464 1212.39 651.15 1209.08 651.15H1176.07C1172.76 651.15 1170.07 648.464 1170.07 645.15V610.668Z"/>
<path d="M1035.05 471.221C1035.05 467.907 1037.74 465.221 1041.05 465.221H1074.06C1077.37 465.221 1080.06 467.907 1080.06 471.221V505.703C1080.06 509.017 1077.37 511.703 1074.06 511.703H1041.05C1037.74 511.703 1035.05 509.017 1035.05 505.703V471.221Z"/>
<path d="M990.043 564.186C990.043 560.872 992.729 558.186 996.043 558.186H1029.05C1032.36 558.186 1035.05 560.872 1035.05 564.186V598.668C1035.05 601.982 1032.36 604.668 1029.05 604.668H996.043C992.729 604.668 990.043 601.982 990.043 598.668V564.186Z"/>
<path d="M990.043 703.633C990.043 700.319 992.729 697.633 996.043 697.633H1029.05C1032.36 697.633 1035.05 700.319 1035.05 703.633V738.115C1035.05 741.429 1032.36 744.115 1029.05 744.115H996.043C992.729 744.115 990.043 741.429 990.043 738.115V703.633Z"/>
<path d="M855.022 331.774C855.022 328.46 857.708 325.774 861.022 325.774H894.029C897.342 325.774 900.029 328.46 900.029 331.774V366.256C900.029 369.57 897.342 372.256 894.029 372.256H861.022C857.708 372.256 855.022 369.57 855.022 366.256V331.774Z"/>
<path d="M855.022 750.115C855.022 746.801 857.708 744.115 861.022 744.115H894.029C897.342 744.115 900.029 746.801 900.029 750.115V784.597C900.029 787.911 897.342 790.597 894.029 790.597H861.022C857.708 790.597 855.022 787.911 855.022 784.597V750.115Z"/>
<path d="M810.015 471.221C810.015 467.907 812.701 465.221 816.015 465.221H849.022C852.335 465.221 855.022 467.907 855.022 471.221V505.703C855.022 509.017 852.335 511.703 849.022 511.703H816.015C812.701 511.703 810.015 509.017 810.015 505.703V471.221Z"/>
<path d="M720 285.292C720 281.978 722.687 279.292 726 279.292H759.007C762.321 279.292 765.007 281.978 765.007 285.292V319.774C765.007 323.088 762.321 325.774 759.007 325.774H726C722.687 325.774 720 323.088 720 319.774V285.292Z"/>
<path d="M720 378.256C720 374.943 722.687 372.256 726 372.256H759.007C762.321 372.256 765.007 374.943 765.007 378.256V412.739C765.007 416.052 762.321 418.739 759.007 418.739H726C722.687 418.739 720 416.052 720 412.739V378.256Z"/>
<path d="M629.986 517.703C629.986 514.39 632.673 511.703 635.986 511.703H668.993C672.307 511.703 674.993 514.39 674.993 517.703V552.186C674.993 555.499 672.307 558.186 668.993 558.186H635.986C632.673 558.186 629.986 555.499 629.986 552.186V517.703Z"/>
<path d="M584.979 331.774C584.979 328.46 587.666 325.774 590.979 325.774H623.986C627.3 325.774 629.986 328.46 629.986 331.774V366.256C629.986 369.57 627.3 372.256 623.986 372.256H590.979C587.666 372.256 584.979 369.57 584.979 366.256V331.774Z"/>
<path d="M539.972 424.739C539.972 421.425 542.658 418.739 545.972 418.739H578.979C582.293 418.739 584.979 421.425 584.979 424.739V459.221C584.979 462.535 582.293 465.221 578.979 465.221H545.972C542.658 465.221 539.972 462.535 539.972 459.221V424.739Z"/>
<path d="M494.965 657.15C494.965 653.837 497.651 651.15 500.965 651.15H533.972C537.286 651.15 539.972 653.837 539.972 657.15V691.633C539.972 694.946 537.286 697.633 533.972 697.633H500.965C497.651 697.633 494.965 694.946 494.965 691.633V657.15Z"/>
<path d="M404.951 564.186C404.951 560.872 407.637 558.186 410.951 558.186H443.958C447.272 558.186 449.958 560.872 449.958 564.186V598.668C449.958 601.982 447.272 604.668 443.958 604.668H410.951C407.637 604.668 404.951 601.982 404.951 598.668V564.186Z"/>
<path d="M404.951 750.115C404.951 746.801 407.637 744.115 410.951 744.115H443.958C447.272 744.115 449.958 746.801 449.958 750.115V784.597C449.958 787.911 447.272 790.597 443.958 790.597H410.951C407.637 790.597 404.951 787.911 404.951 784.597V750.115Z"/>
<path d="M269.93 424.739C269.93 421.425 272.616 418.739 275.93 418.739H308.937C312.251 418.739 314.937 421.425 314.937 424.739V459.221C314.937 462.535 312.251 465.221 308.937 465.221H275.93C272.616 465.221 269.93 462.535 269.93 459.221V424.739Z"/>
<path d="M269.93 610.668C269.93 607.354 272.616 604.668 275.93 604.668H308.937C312.251 604.668 314.937 607.354 314.937 610.668V645.15C314.937 648.464 312.251 651.15 308.937 651.15H275.93C272.616 651.15 269.93 648.464 269.93 645.15V610.668Z"/>
<path d="M269.93 750.115C269.93 746.801 272.616 744.115 275.93 744.115H308.937C312.251 744.115 314.937 746.801 314.937 750.115V784.597C314.937 787.911 312.251 790.597 308.937 790.597H275.93C272.616 790.597 269.93 787.911 269.93 784.597V750.115Z"/>
<path d="M224.923 517.703C224.923 514.39 227.609 511.703 230.923 511.703H263.93C267.244 511.703 269.93 514.39 269.93 517.703V552.186C269.93 555.499 267.244 558.186 263.93 558.186H230.923C227.609 558.186 224.923 555.499 224.923 552.186V517.703Z"/>
<path d="M134.909 610.668C134.909 607.354 137.595 604.668 140.909 604.668H173.916C177.229 604.668 179.916 607.354 179.916 610.668V645.15C179.916 648.464 177.229 651.15 173.916 651.15H140.909C137.595 651.15 134.909 648.464 134.909 645.15V610.668Z"/>
<path d="M89.9016 424.739C89.9016 421.425 92.5879 418.739 95.9016 418.739H128.909C132.222 418.739 134.909 421.425 134.909 424.739V459.221C134.909 462.535 132.222 465.221 128.909 465.221H95.9016C92.5879 465.221 89.9016 462.535 89.9016 459.221V424.739Z"/>
<path d="M44.8945 517.703C44.8945 514.39 47.5808 511.703 50.8945 511.703H83.9016C87.2153 511.703 89.9016 514.39 89.9016 517.703V552.186C89.9016 555.499 87.2153 558.186 83.9016 558.186H50.8945C47.5808 558.186 44.8945 555.499 44.8945 552.186V517.703Z"/>
<path d="M1350.1 564.186C1350.1 560.872 1352.79 558.186 1356.1 558.186H1389.11C1392.42 558.186 1395.11 560.872 1395.11 564.186V598.668C1395.11 601.982 1392.42 604.668 1389.11 604.668H1356.1C1352.79 604.668 1350.1 601.982 1350.1 598.668V564.186Z"/>
</mask>
<path d="M1305.09 424.739C1305.09 421.425 1307.78 418.739 1311.09 418.739H1344.1C1347.41 418.739 1350.1 421.425 1350.1 424.739V459.221C1350.1 462.535 1347.41 465.221 1344.1 465.221H1311.09C1307.78 465.221 1305.09 462.535 1305.09 459.221V424.739Z" fill="#ADADAD" fill-opacity="0.05"/>
<path d="M1215.08 703.633C1215.08 700.319 1217.76 697.633 1221.08 697.633H1254.09C1257.4 697.633 1260.09 700.319 1260.09 703.633V738.115C1260.09 741.429 1257.4 744.115 1254.09 744.115H1221.08C1217.76 744.115 1215.08 741.429 1215.08 738.115V703.633Z" fill="#ADADAD" fill-opacity="0.05"/>
<path d="M1170.07 517.703C1170.07 514.39 1172.76 511.703 1176.07 511.703H1209.08C1212.39 511.703 1215.08 514.39 1215.08 517.703V552.186C1215.08 555.499 1212.39 558.186 1209.08 558.186H1176.07C1172.76 558.186 1170.07 555.499 1170.07 552.186V517.703Z" fill="#ADADAD" fill-opacity="0.05"/>
<path d="M1170.07 610.668C1170.07 607.354 1172.76 604.668 1176.07 604.668H1209.08C1212.39 604.668 1215.08 607.354 1215.08 610.668V645.15C1215.08 648.464 1212.39 651.15 1209.08 651.15H1176.07C1172.76 651.15 1170.07 648.464 1170.07 645.15V610.668Z" fill="#ADADAD" fill-opacity="0.05"/>
<path d="M1035.05 471.221C1035.05 467.907 1037.74 465.221 1041.05 465.221H1074.06C1077.37 465.221 1080.06 467.907 1080.06 471.221V505.703C1080.06 509.017 1077.37 511.703 1074.06 511.703H1041.05C1037.74 511.703 1035.05 509.017 1035.05 505.703V471.221Z" fill="#ADADAD" fill-opacity="0.05"/>
<path d="M990.043 564.186C990.043 560.872 992.729 558.186 996.043 558.186H1029.05C1032.36 558.186 1035.05 560.872 1035.05 564.186V598.668C1035.05 601.982 1032.36 604.668 1029.05 604.668H996.043C992.729 604.668 990.043 601.982 990.043 598.668V564.186Z" fill="#ADADAD" fill-opacity="0.05"/>
<path d="M990.043 703.633C990.043 700.319 992.729 697.633 996.043 697.633H1029.05C1032.36 697.633 1035.05 700.319 1035.05 703.633V738.115C1035.05 741.429 1032.36 744.115 1029.05 744.115H996.043C992.729 744.115 990.043 741.429 990.043 738.115V703.633Z" fill="#ADADAD" fill-opacity="0.05"/>
<path d="M855.022 331.774C855.022 328.46 857.708 325.774 861.022 325.774H894.029C897.342 325.774 900.029 328.46 900.029 331.774V366.256C900.029 369.57 897.342 372.256 894.029 372.256H861.022C857.708 372.256 855.022 369.57 855.022 366.256V331.774Z" fill="#ADADAD" fill-opacity="0.05"/>
<path d="M855.022 750.115C855.022 746.801 857.708 744.115 861.022 744.115H894.029C897.342 744.115 900.029 746.801 900.029 750.115V784.597C900.029 787.911 897.342 790.597 894.029 790.597H861.022C857.708 790.597 855.022 787.911 855.022 784.597V750.115Z" fill="#ADADAD" fill-opacity="0.05"/>
<path d="M810.015 471.221C810.015 467.907 812.701 465.221 816.015 465.221H849.022C852.335 465.221 855.022 467.907 855.022 471.221V505.703C855.022 509.017 852.335 511.703 849.022 511.703H816.015C812.701 511.703 810.015 509.017 810.015 505.703V471.221Z" fill="#ADADAD" fill-opacity="0.05"/>
<path d="M720 285.292C720 281.978 722.687 279.292 726 279.292H759.007C762.321 279.292 765.007 281.978 765.007 285.292V319.774C765.007 323.088 762.321 325.774 759.007 325.774H726C722.687 325.774 720 323.088 720 319.774V285.292Z" fill="#ADADAD" fill-opacity="0.05"/>
<path d="M720 378.256C720 374.943 722.687 372.256 726 372.256H759.007C762.321 372.256 765.007 374.943 765.007 378.256V412.739C765.007 416.052 762.321 418.739 759.007 418.739H726C722.687 418.739 720 416.052 720 412.739V378.256Z" fill="#ADADAD" fill-opacity="0.05"/>
<path d="M629.986 517.703C629.986 514.39 632.673 511.703 635.986 511.703H668.993C672.307 511.703 674.993 514.39 674.993 517.703V552.186C674.993 555.499 672.307 558.186 668.993 558.186H635.986C632.673 558.186 629.986 555.499 629.986 552.186V517.703Z" fill="#ADADAD" fill-opacity="0.05"/>
<path d="M584.979 331.774C584.979 328.46 587.666 325.774 590.979 325.774H623.986C627.3 325.774 629.986 328.46 629.986 331.774V366.256C629.986 369.57 627.3 372.256 623.986 372.256H590.979C587.666 372.256 584.979 369.57 584.979 366.256V331.774Z" fill="#ADADAD" fill-opacity="0.05"/>
<path d="M539.972 424.739C539.972 421.425 542.658 418.739 545.972 418.739H578.979C582.293 418.739 584.979 421.425 584.979 424.739V459.221C584.979 462.535 582.293 465.221 578.979 465.221H545.972C542.658 465.221 539.972 462.535 539.972 459.221V424.739Z" fill="#ADADAD" fill-opacity="0.05"/>
<path d="M494.965 657.15C494.965 653.837 497.651 651.15 500.965 651.15H533.972C537.286 651.15 539.972 653.837 539.972 657.15V691.633C539.972 694.946 537.286 697.633 533.972 697.633H500.965C497.651 697.633 494.965 694.946 494.965 691.633V657.15Z" fill="#ADADAD" fill-opacity="0.05"/>
<path d="M404.951 564.186C404.951 560.872 407.637 558.186 410.951 558.186H443.958C447.272 558.186 449.958 560.872 449.958 564.186V598.668C449.958 601.982 447.272 604.668 443.958 604.668H410.951C407.637 604.668 404.951 601.982 404.951 598.668V564.186Z" fill="#ADADAD" fill-opacity="0.05"/>
<path d="M404.951 750.115C404.951 746.801 407.637 744.115 410.951 744.115H443.958C447.272 744.115 449.958 746.801 449.958 750.115V784.597C449.958 787.911 447.272 790.597 443.958 790.597H410.951C407.637 790.597 404.951 787.911 404.951 784.597V750.115Z" fill="#ADADAD" fill-opacity="0.05"/>
<path d="M269.93 424.739C269.93 421.425 272.616 418.739 275.93 418.739H308.937C312.251 418.739 314.937 421.425 314.937 424.739V459.221C314.937 462.535 312.251 465.221 308.937 465.221H275.93C272.616 465.221 269.93 462.535 269.93 459.221V424.739Z" fill="#ADADAD" fill-opacity="0.05"/>
<path d="M269.93 610.668C269.93 607.354 272.616 604.668 275.93 604.668H308.937C312.251 604.668 314.937 607.354 314.937 610.668V645.15C314.937 648.464 312.251 651.15 308.937 651.15H275.93C272.616 651.15 269.93 648.464 269.93 645.15V610.668Z" fill="#ADADAD" fill-opacity="0.05"/>
<path d="M269.93 750.115C269.93 746.801 272.616 744.115 275.93 744.115H308.937C312.251 744.115 314.937 746.801 314.937 750.115V784.597C314.937 787.911 312.251 790.597 308.937 790.597H275.93C272.616 790.597 269.93 787.911 269.93 784.597V750.115Z" fill="#ADADAD" fill-opacity="0.05"/>
<path d="M224.923 517.703C224.923 514.39 227.609 511.703 230.923 511.703H263.93C267.244 511.703 269.93 514.39 269.93 517.703V552.186C269.93 555.499 267.244 558.186 263.93 558.186H230.923C227.609 558.186 224.923 555.499 224.923 552.186V517.703Z" fill="#ADADAD" fill-opacity="0.05"/>
<path d="M134.909 610.668C134.909 607.354 137.595 604.668 140.909 604.668H173.916C177.229 604.668 179.916 607.354 179.916 610.668V645.15C179.916 648.464 177.229 651.15 173.916 651.15H140.909C137.595 651.15 134.909 648.464 134.909 645.15V610.668Z" fill="#ADADAD" fill-opacity="0.05"/>
<path d="M89.9016 424.739C89.9016 421.425 92.5879 418.739 95.9016 418.739H128.909C132.222 418.739 134.909 421.425 134.909 424.739V459.221C134.909 462.535 132.222 465.221 128.909 465.221H95.9016C92.5879 465.221 89.9016 462.535 89.9016 459.221V424.739Z" fill="#ADADAD" fill-opacity="0.05"/>
<path d="M44.8945 517.703C44.8945 514.39 47.5808 511.703 50.8945 511.703H83.9016C87.2153 511.703 89.9016 514.39 89.9016 517.703V552.186C89.9016 555.499 87.2153 558.186 83.9016 558.186H50.8945C47.5808 558.186 44.8945 555.499 44.8945 552.186V517.703Z" fill="#ADADAD" fill-opacity="0.05"/>
<path d="M1350.1 564.186C1350.1 560.872 1352.79 558.186 1356.1 558.186H1389.11C1392.42 558.186 1395.11 560.872 1395.11 564.186V598.668C1395.11 601.982 1392.42 604.668 1389.11 604.668H1356.1C1352.79 604.668 1350.1 601.982 1350.1 598.668V564.186Z" fill="#ADADAD" fill-opacity="0.05"/>
<path d="M1305.09 424.739C1305.09 421.425 1307.78 418.739 1311.09 418.739H1344.1C1347.41 418.739 1350.1 421.425 1350.1 424.739V459.221C1350.1 462.535 1347.41 465.221 1344.1 465.221H1311.09C1307.78 465.221 1305.09 462.535 1305.09 459.221V424.739Z" stroke="#0A0A0A" stroke-opacity="0.1" stroke-width="2" mask="url(#path-3-inside-2_195_48)"/>
<path d="M1215.08 703.633C1215.08 700.319 1217.76 697.633 1221.08 697.633H1254.09C1257.4 697.633 1260.09 700.319 1260.09 703.633V738.115C1260.09 741.429 1257.4 744.115 1254.09 744.115H1221.08C1217.76 744.115 1215.08 741.429 1215.08 738.115V703.633Z" stroke="#0A0A0A" stroke-opacity="0.1" stroke-width="2" mask="url(#path-3-inside-2_195_48)"/>
<path d="M1170.07 517.703C1170.07 514.39 1172.76 511.703 1176.07 511.703H1209.08C1212.39 511.703 1215.08 514.39 1215.08 517.703V552.186C1215.08 555.499 1212.39 558.186 1209.08 558.186H1176.07C1172.76 558.186 1170.07 555.499 1170.07 552.186V517.703Z" stroke="#0A0A0A" stroke-opacity="0.1" stroke-width="2" mask="url(#path-3-inside-2_195_48)"/>
<path d="M1170.07 610.668C1170.07 607.354 1172.76 604.668 1176.07 604.668H1209.08C1212.39 604.668 1215.08 607.354 1215.08 610.668V645.15C1215.08 648.464 1212.39 651.15 1209.08 651.15H1176.07C1172.76 651.15 1170.07 648.464 1170.07 645.15V610.668Z" stroke="#0A0A0A" stroke-opacity="0.1" stroke-width="2" mask="url(#path-3-inside-2_195_48)"/>
<path d="M1035.05 471.221C1035.05 467.907 1037.74 465.221 1041.05 465.221H1074.06C1077.37 465.221 1080.06 467.907 1080.06 471.221V505.703C1080.06 509.017 1077.37 511.703 1074.06 511.703H1041.05C1037.74 511.703 1035.05 509.017 1035.05 505.703V471.221Z" stroke="#0A0A0A" stroke-opacity="0.1" stroke-width="2" mask="url(#path-3-inside-2_195_48)"/>
<path d="M990.043 564.186C990.043 560.872 992.729 558.186 996.043 558.186H1029.05C1032.36 558.186 1035.05 560.872 1035.05 564.186V598.668C1035.05 601.982 1032.36 604.668 1029.05 604.668H996.043C992.729 604.668 990.043 601.982 990.043 598.668V564.186Z" stroke="#0A0A0A" stroke-opacity="0.1" stroke-width="2" mask="url(#path-3-inside-2_195_48)"/>
<path d="M990.043 703.633C990.043 700.319 992.729 697.633 996.043 697.633H1029.05C1032.36 697.633 1035.05 700.319 1035.05 703.633V738.115C1035.05 741.429 1032.36 744.115 1029.05 744.115H996.043C992.729 744.115 990.043 741.429 990.043 738.115V703.633Z" stroke="#0A0A0A" stroke-opacity="0.1" stroke-width="2" mask="url(#path-3-inside-2_195_48)"/>
<path d="M855.022 331.774C855.022 328.46 857.708 325.774 861.022 325.774H894.029C897.342 325.774 900.029 328.46 900.029 331.774V366.256C900.029 369.57 897.342 372.256 894.029 372.256H861.022C857.708 372.256 855.022 369.57 855.022 366.256V331.774Z" stroke="#0A0A0A" stroke-opacity="0.1" stroke-width="2" mask="url(#path-3-inside-2_195_48)"/>
<path d="M855.022 750.115C855.022 746.801 857.708 744.115 861.022 744.115H894.029C897.342 744.115 900.029 746.801 900.029 750.115V784.597C900.029 787.911 897.342 790.597 894.029 790.597H861.022C857.708 790.597 855.022 787.911 855.022 784.597V750.115Z" stroke="#0A0A0A" stroke-opacity="0.1" stroke-width="2" mask="url(#path-3-inside-2_195_48)"/>
<path d="M810.015 471.221C810.015 467.907 812.701 465.221 816.015 465.221H849.022C852.335 465.221 855.022 467.907 855.022 471.221V505.703C855.022 509.017 852.335 511.703 849.022 511.703H816.015C812.701 511.703 810.015 509.017 810.015 505.703V471.221Z" stroke="#0A0A0A" stroke-opacity="0.1" stroke-width="2" mask="url(#path-3-inside-2_195_48)"/>
<path d="M720 285.292C720 281.978 722.687 279.292 726 279.292H759.007C762.321 279.292 765.007 281.978 765.007 285.292V319.774C765.007 323.088 762.321 325.774 759.007 325.774H726C722.687 325.774 720 323.088 720 319.774V285.292Z" stroke="#0A0A0A" stroke-opacity="0.1" stroke-width="2" mask="url(#path-3-inside-2_195_48)"/>
<path d="M720 378.256C720 374.943 722.687 372.256 726 372.256H759.007C762.321 372.256 765.007 374.943 765.007 378.256V412.739C765.007 416.052 762.321 418.739 759.007 418.739H726C722.687 418.739 720 416.052 720 412.739V378.256Z" stroke="#0A0A0A" stroke-opacity="0.1" stroke-width="2" mask="url(#path-3-inside-2_195_48)"/>
<path d="M629.986 517.703C629.986 514.39 632.673 511.703 635.986 511.703H668.993C672.307 511.703 674.993 514.39 674.993 517.703V552.186C674.993 555.499 672.307 558.186 668.993 558.186H635.986C632.673 558.186 629.986 555.499 629.986 552.186V517.703Z" stroke="#0A0A0A" stroke-opacity="0.1" stroke-width="2" mask="url(#path-3-inside-2_195_48)"/>
<path d="M584.979 331.774C584.979 328.46 587.666 325.774 590.979 325.774H623.986C627.3 325.774 629.986 328.46 629.986 331.774V366.256C629.986 369.57 627.3 372.256 623.986 372.256H590.979C587.666 372.256 584.979 369.57 584.979 366.256V331.774Z" stroke="#0A0A0A" stroke-opacity="0.1" stroke-width="2" mask="url(#path-3-inside-2_195_48)"/>
<path d="M539.972 424.739C539.972 421.425 542.658 418.739 545.972 418.739H578.979C582.293 418.739 584.979 421.425 584.979 424.739V459.221C584.979 462.535 582.293 465.221 578.979 465.221H545.972C542.658 465.221 539.972 462.535 539.972 459.221V424.739Z" stroke="#0A0A0A" stroke-opacity="0.1" stroke-width="2" mask="url(#path-3-inside-2_195_48)"/>
<path d="M494.965 657.15C494.965 653.837 497.651 651.15 500.965 651.15H533.972C537.286 651.15 539.972 653.837 539.972 657.15V691.633C539.972 694.946 537.286 697.633 533.972 697.633H500.965C497.651 697.633 494.965 694.946 494.965 691.633V657.15Z" stroke="#0A0A0A" stroke-opacity="0.1" stroke-width="2" mask="url(#path-3-inside-2_195_48)"/>
<path d="M404.951 564.186C404.951 560.872 407.637 558.186 410.951 558.186H443.958C447.272 558.186 449.958 560.872 449.958 564.186V598.668C449.958 601.982 447.272 604.668 443.958 604.668H410.951C407.637 604.668 404.951 601.982 404.951 598.668V564.186Z" stroke="#0A0A0A" stroke-opacity="0.1" stroke-width="2" mask="url(#path-3-inside-2_195_48)"/>
<path d="M404.951 750.115C404.951 746.801 407.637 744.115 410.951 744.115H443.958C447.272 744.115 449.958 746.801 449.958 750.115V784.597C449.958 787.911 447.272 790.597 443.958 790.597H410.951C407.637 790.597 404.951 787.911 404.951 784.597V750.115Z" stroke="#0A0A0A" stroke-opacity="0.1" stroke-width="2" mask="url(#path-3-inside-2_195_48)"/>
<path d="M269.93 424.739C269.93 421.425 272.616 418.739 275.93 418.739H308.937C312.251 418.739 314.937 421.425 314.937 424.739V459.221C314.937 462.535 312.251 465.221 308.937 465.221H275.93C272.616 465.221 269.93 462.535 269.93 459.221V424.739Z" stroke="#0A0A0A" stroke-opacity="0.1" stroke-width="2" mask="url(#path-3-inside-2_195_48)"/>
<path d="M269.93 610.668C269.93 607.354 272.616 604.668 275.93 604.668H308.937C312.251 604.668 314.937 607.354 314.937 610.668V645.15C314.937 648.464 312.251 651.15 308.937 651.15H275.93C272.616 651.15 269.93 648.464 269.93 645.15V610.668Z" stroke="#0A0A0A" stroke-opacity="0.1" stroke-width="2" mask="url(#path-3-inside-2_195_48)"/>
<path d="M269.93 750.115C269.93 746.801 272.616 744.115 275.93 744.115H308.937C312.251 744.115 314.937 746.801 314.937 750.115V784.597C314.937 787.911 312.251 790.597 308.937 790.597H275.93C272.616 790.597 269.93 787.911 269.93 784.597V750.115Z" stroke="#0A0A0A" stroke-opacity="0.1" stroke-width="2" mask="url(#path-3-inside-2_195_48)"/>
<path d="M224.923 517.703C224.923 514.39 227.609 511.703 230.923 511.703H263.93C267.244 511.703 269.93 514.39 269.93 517.703V552.186C269.93 555.499 267.244 558.186 263.93 558.186H230.923C227.609 558.186 224.923 555.499 224.923 552.186V517.703Z" stroke="#0A0A0A" stroke-opacity="0.1" stroke-width="2" mask="url(#path-3-inside-2_195_48)"/>
<path d="M134.909 610.668C134.909 607.354 137.595 604.668 140.909 604.668H173.916C177.229 604.668 179.916 607.354 179.916 610.668V645.15C179.916 648.464 177.229 651.15 173.916 651.15H140.909C137.595 651.15 134.909 648.464 134.909 645.15V610.668Z" stroke="#0A0A0A" stroke-opacity="0.1" stroke-width="2" mask="url(#path-3-inside-2_195_48)"/>
<path d="M89.9016 424.739C89.9016 421.425 92.5879 418.739 95.9016 418.739H128.909C132.222 418.739 134.909 421.425 134.909 424.739V459.221C134.909 462.535 132.222 465.221 128.909 465.221H95.9016C92.5879 465.221 89.9016 462.535 89.9016 459.221V424.739Z" stroke="#0A0A0A" stroke-opacity="0.1" stroke-width="2" mask="url(#path-3-inside-2_195_48)"/>
<path d="M44.8945 517.703C44.8945 514.39 47.5808 511.703 50.8945 511.703H83.9016C87.2153 511.703 89.9016 514.39 89.9016 517.703V552.186C89.9016 555.499 87.2153 558.186 83.9016 558.186H50.8945C47.5808 558.186 44.8945 555.499 44.8945 552.186V517.703Z" stroke="#0A0A0A" stroke-opacity="0.1" stroke-width="2" mask="url(#path-3-inside-2_195_48)"/>
<path d="M1350.1 564.186C1350.1 560.872 1352.79 558.186 1356.1 558.186H1389.11C1392.42 558.186 1395.11 560.872 1395.11 564.186V598.668C1395.11 601.982 1392.42 604.668 1389.11 604.668H1356.1C1352.79 604.668 1350.1 601.982 1350.1 598.668V564.186Z" stroke="#0A0A0A" stroke-opacity="0.1" stroke-width="2" mask="url(#path-3-inside-2_195_48)"/>
</g>
</svg>
