<svg width="172" height="40" viewBox="0 0 172 40" fill="none" xmlns="http://www.w3.org/2000/svg">
<path d="M39.3154 9.00977H25.3282C24.3329 9.00977 23.3916 9.46221 22.7699 10.2393L21.461 11.8754C20.8393 12.6526 19.898 13.105 18.9027 13.105H6.55353L3.27734 17.2002H17.2646C18.2599 17.2002 19.2012 16.7478 19.8229 15.9707L21.1318 14.3346C21.7535 13.5574 22.6948 13.105 23.6901 13.105H36.0393L39.3154 9.00977Z" fill="#4577C2"/>
<path d="M37.6748 15.562H23.6875C22.6923 15.562 21.751 16.0145 21.1292 16.7916L19.8204 18.4277C19.1987 19.2048 18.2573 19.6572 17.2621 19.6572H4.91291L1.63672 23.7525H15.624C16.6192 23.7525 17.5606 23.3 18.1823 22.5229L19.4911 20.8868C20.1129 20.1097 21.0542 19.6572 22.0494 19.6572H34.3986L37.6748 15.562Z" fill="#4577C2"/>
<path d="M36.0381 22.1143H22.0508C21.0556 22.1143 20.1143 22.5667 19.4925 23.3438L18.1837 24.9799C17.5619 25.7571 16.6206 26.2095 15.6254 26.2095H3.27619L0 30.3047H13.9873C14.9825 30.3047 15.9238 29.8523 16.5456 29.0752L17.8544 27.4391C18.4762 26.6619 19.4175 26.2095 20.4127 26.2095H32.7619L36.0381 22.1143Z" fill="#4577C2"/>
<path d="M54.3815 11.3276C57.6323 11.3276 60.0427 13.0083 60.0427 16.038C60.0427 18.0283 58.9149 19.333 57.2563 19.8195C58.8928 20.0407 59.6446 20.8589 59.7994 22.5396L60.1754 27.0288H56.7698L56.4823 23.0703C56.3717 21.7435 55.642 21.3012 53.8065 21.3012H50.8874V27.0288H47.5039V11.3276H54.3815ZM50.8874 18.4484H53.9171C55.6199 18.4484 56.5708 17.6966 56.5708 16.3255C56.5708 14.9323 55.6199 14.1804 53.9171 14.1804H50.8874V18.4484Z" fill="#212326"/>
<path d="M60.8555 21.1686C60.8555 17.4534 63.2438 15.043 66.8706 15.043C70.0992 15.043 72.6203 17.2765 72.5982 21.4119V22.0311H64.3495C64.438 23.7781 65.3668 24.8175 66.8706 24.8175C67.8436 24.8175 68.706 24.2646 69.082 23.3579L72.4434 23.6012C71.7357 25.879 69.5464 27.2943 66.8706 27.2943C63.2438 27.2943 60.8555 24.8838 60.8555 21.1686ZM64.3716 20.0187H69.2147C69.0378 18.2495 68.0205 17.5198 66.8706 17.5198C65.4552 17.5198 64.5486 18.4707 64.3716 20.0187Z" fill="#212326"/>
<path d="M74.8929 15.2419C74.8929 12.6766 76.1534 11.3276 78.9619 11.3276H81.3503V13.8266H79.4705C78.7408 13.8266 78.2321 14.3573 78.2321 15.2419V15.7947H81.1733V18.2936H78.2321V27.0288H74.8929V18.2936H73.168V15.7947H74.8929V15.2419Z" fill="#212326"/>
<path d="M82.6602 15.3081H85.8446L85.911 17.6522C86.3754 16.0821 87.2599 15.3081 88.7416 15.3081H89.8031V17.807H88.6974C86.7734 17.807 86.0215 18.6916 86.0215 20.505V27.0287H82.6602V15.3081Z" fill="#212326"/>
<path d="M93.3926 23.8223C93.3926 24.5521 94.0118 25.2377 95.2059 25.1934C96.6655 25.1492 97.7048 23.9993 97.6827 22.0974V21.8099L95.7367 22.1859C94.4098 22.4513 93.3926 22.6061 93.3926 23.8223ZM89.9648 23.9108C89.9648 21.7215 91.5571 20.9254 94.1223 20.4389L97.6385 19.7533V19.7091C97.6385 17.9842 96.9087 17.2323 95.604 17.2323C94.4762 17.2323 93.7464 17.9178 93.5252 19.112L90.1639 18.9351C90.6062 16.4583 92.5743 15.043 95.604 15.043C99.0538 15.043 101 16.7015 101 20.1514V27.0289H98.0144L97.9039 25.3925C97.4174 26.4318 96.2011 27.2722 94.1002 27.3164C91.8003 27.3164 89.9648 25.9895 89.9648 23.9108Z" fill="#212326"/>
<path d="M110.444 19.7975C110.245 18.3822 109.316 17.6082 108.144 17.6082C106.485 17.6082 105.557 18.913 105.557 21.1686C105.557 23.4243 106.485 24.729 108.144 24.729C109.382 24.729 110.289 23.955 110.488 22.4291L113.938 22.5618C113.628 25.4809 111.262 27.2943 108.144 27.2943C104.517 27.2943 102.129 24.8838 102.129 21.1686C102.129 17.4534 104.517 15.043 108.144 15.043C111.174 15.043 113.562 16.79 113.872 19.6427L110.444 19.7975Z" fill="#212326"/>
<path d="M115.886 12.6548H119.248V15.3085H122.321V17.7853H119.248V23.1812C119.248 24.0658 119.69 24.5302 120.53 24.5302H122.344V27.0291H119.823C117.257 27.0291 115.886 25.7686 115.886 23.1812V17.7853H113.984V15.3085H115.886V12.6548Z" fill="#212326"/>
<path d="M123.568 15.3082H126.929V27.0288H123.568V15.3082ZM123.523 13.7823V11.3276H126.973V13.7823H123.523Z" fill="#212326"/>
<path d="M134.277 27.2943C130.65 27.2943 128.262 24.8838 128.262 21.1686C128.262 17.4534 130.65 15.043 134.277 15.043C137.904 15.043 140.292 17.4534 140.292 21.1686C140.292 24.8838 137.904 27.2943 134.277 27.2943ZM131.689 21.1686C131.689 23.4243 132.618 24.729 134.277 24.729C135.935 24.729 136.864 23.4243 136.864 21.1686C136.864 18.913 135.935 17.6082 134.277 17.6082C132.618 17.6082 131.689 18.913 131.689 21.1686Z" fill="#212326"/>
<path d="M141.516 15.3083H144.523L144.612 17.1881C145.253 15.6401 146.558 15.043 148.106 15.043C150.671 15.043 152.153 16.7679 152.153 19.4879V27.0289H148.813V20.5937C148.813 18.7361 148.393 17.6967 147.022 17.6967C145.607 17.6967 144.877 18.7361 144.877 20.5937V27.0289H141.516V15.3083Z" fill="#212326"/>
<path d="M156.893 23.8223C156.893 24.5521 157.512 25.2377 158.706 25.1934C160.165 25.1492 161.205 23.9993 161.183 22.0974V21.8099L159.237 22.1859C157.91 22.4513 156.893 22.6061 156.893 23.8223ZM153.465 23.9108C153.465 21.7215 155.057 20.9254 157.622 20.4389L161.139 19.7533V19.7091C161.139 17.9842 160.409 17.2323 159.104 17.2323C157.976 17.2323 157.246 17.9178 157.025 19.112L153.664 18.9351C154.106 16.4583 156.074 15.043 159.104 15.043C162.554 15.043 164.5 16.7015 164.5 20.1514V27.0289H161.514L161.404 25.3925C160.917 26.4318 159.701 27.2722 157.6 27.3164C155.3 27.3164 153.465 25.9895 153.465 23.9108Z" fill="#212326"/>
<path d="M166.289 11.3276H169.65V23.6232C169.65 24.1982 169.96 24.5299 170.535 24.5299H171.375V27.0288H169.562C167.616 27.0288 166.289 25.8567 166.289 23.7559V11.3276Z" fill="#212326"/>
</svg>
