<svg width="44" height="52" viewBox="0 0 44 52" fill="none" xmlns="http://www.w3.org/2000/svg">
<g clip-path="url(#clip0_473_48)">
<path d="M35.5309 39.0002H35.4192C35.3905 39.0438 35.3617 39.0873 35.3327 39.1307C32.2962 41.1024 28.6592 42.25 24.75 42.25C14.1185 42.25 5.5 33.7621 5.5 23.2917C5.5 19.4417 6.66524 15.8598 8.66733 12.8694C8.71143 12.8408 8.75565 12.8123 8.8 12.784V12.6738C8.75538 12.7387 8.71115 12.8039 8.66733 12.8694C3.44574 16.2601 0 22.0879 0 28.7084C0 39.1788 8.61852 47.6667 19.25 47.6667C25.9723 47.6667 31.8898 44.2731 35.3327 39.1307C35.399 39.0876 35.4651 39.0441 35.5309 39.0002Z" fill="#BE6B22"/>
<g opacity="0.5">
<path d="M44.0006 23.2918C44.0006 29.9123 40.5549 35.7401 35.3333 39.1308C37.3354 36.1404 38.5006 32.5584 38.5006 28.7085C38.5006 18.2381 29.8821 9.75016 19.2506 9.75016C15.3414 9.75016 11.7044 10.8977 8.66797 12.8695C12.1109 7.72703 18.0283 4.3335 24.7506 4.3335C35.3821 4.3335 44.0006 12.8214 44.0006 23.2918Z" fill="#FF6200"/>
<path d="M35.1992 39.2162C35.2435 39.188 35.2878 39.1595 35.3319 39.1309C35.2881 39.1963 35.2439 39.2615 35.1992 39.3264V39.2162Z" fill="#212326"/>
<path d="M8.58058 13.0003C8.6093 12.9566 8.63819 12.9131 8.66728 12.8696C8.6008 12.9127 8.53463 12.9563 8.46875 13.0003H8.58058Z" fill="#212326"/>
</g>
</g>
<defs>
<clipPath id="clip0_473_48">
<rect width="44" height="52" fill="white"/>
</clipPath>
</defs>
</svg>
