<svg width="88" height="42" viewBox="0 0 88 42" fill="none" xmlns="http://www.w3.org/2000/svg">
<g clip-path="url(#clip0_343_235)">
<path d="M79.5752 2.9837C80.3972 4.2122 81.1862 5.7277 80.7982 7.3518C79.4592 6.5854 78.3822 5.3341 77.5282 4.0988C76.6682 2.8552 75.7752 1.5328 75.4692 0C77.1582 0.432 78.6702 1.6312 79.5752 2.9837Z" fill="#394149"/>
<path d="M6.98059 7.34966C6.59359 5.72526 7.38419 4.21035 8.20769 2.98255C9.11419 1.63085 10.6267 0.432753 12.3159 0.00195312C12.009 1.53445 11.1146 2.85636 10.2537 4.09916C9.39859 5.33386 8.32009 6.58436 6.98059 7.34966Z" fill="#394149"/>
<path d="M5.80198 10.4655C6.10408 9.17912 6.09738 7.77082 5.80978 6.56422C5.55688 5.50382 5.18888 4.00482 3.97768 3.49902C3.09728 4.91122 2.74338 6.83433 3.25648 8.27533C3.62748 9.31763 4.29468 10.6957 5.67838 10.909C6.94808 11.2017 8.23198 10.5244 9.24598 9.96523C10.3735 9.34353 11.4779 8.35442 12.1489 7.17852C10.918 6.55722 9.51618 7.06142 8.46158 7.54462C7.32478 8.06552 6.28048 9.18312 5.80198 10.4655Z" fill="#394149"/>
<path d="M30.4431 11.7008V5.24219H28.2381V7.59529H24.9306V5.24219H22.7256V11.7008H24.9306V9.35599H28.2381V11.7008H30.4431Z" fill="#394149"/>
<path d="M37.7547 5.24219H40.19L36.7345 9.56989V11.7008H34.5213V9.57809L31.1069 5.24219H33.6162L35.6567 7.82559L37.7547 5.24219Z" fill="#394149"/>
<path fill-rule="evenodd" clip-rule="evenodd" d="M47.8694 5.79338C48.3055 6.13898 48.5523 6.72319 48.5523 7.57059C48.5523 8.26169 48.3795 8.77999 48.0504 9.14209C47.6061 9.65219 46.8739 9.88249 45.9195 9.89079C45.6233 9.89899 43.0892 9.89079 43.0892 9.89079V11.7008H40.876V5.24219H45.8866C46.7751 5.24219 47.4498 5.42318 47.8694 5.79338ZM46.2321 8.07249C46.298 7.95729 46.3309 7.80919 46.3309 7.60349C46.3309 7.38959 46.2897 7.20859 46.2157 7.10989C46.0758 6.90419 45.8125 6.80539 45.3847 6.80539H43.0728V8.38509H45.3682C45.829 8.38509 46.1005 8.27819 46.2321 8.07249Z" fill="#394149"/>
<path d="M56.237 10.0964V11.7008H49.4331V5.24219H56.18V6.85479H51.6051V7.68579H56.048V9.25719H51.6051V10.0964H56.237Z" fill="#394149"/>
<path fill-rule="evenodd" clip-rule="evenodd" d="M64.4982 5.90039C64.7952 6.20479 64.9342 6.62439 64.9342 7.20859C64.9342 7.71049 64.8112 8.13828 64.6052 8.42628C64.3752 8.73888 64.0212 9.00219 63.5852 9.06799L65.5352 11.7008H63.0832L61.4792 9.42179H59.4802V11.7008H57.2832V5.24219H62.4252C63.4452 5.24219 64.1122 5.48899 64.4982 5.90039ZM62.7212 7.75159C62.7792 7.65289 62.7952 7.52119 62.7952 7.41429C62.7952 7.29089 62.7792 7.15919 62.7212 7.07689C62.6062 6.86299 62.3762 6.80539 62.0302 6.80539H59.4882V7.98199H62.0712C62.4252 7.98199 62.6392 7.91619 62.7212 7.75159Z" fill="#394149"/>
<path d="M55.059 19.8021C55.059 18.3258 54.1211 17.5499 51.9335 17.3128C51.5779 17.2697 50.5326 17.1619 49.8752 17.108C48.1833 16.9248 47.6769 16.8279 47.6769 16.3968C47.6769 16.0089 48.0756 15.8257 49.595 15.8257C50.6727 15.8257 51.2762 16.0304 51.5132 16.3429C51.6318 16.4938 51.6749 16.6123 51.6857 16.7309H54.7893C54.7569 16.4722 54.6492 16.1058 54.4767 15.7826C53.9164 14.7049 52.5693 13.8428 49.6705 13.8428C46.4052 13.8428 44.6164 14.9959 44.6164 16.5046C44.6164 17.9594 45.6293 18.8107 48.3665 19.0586C48.676 19.0851 49.3407 19.1479 49.8849 19.1993L49.9185 19.2025L49.9246 19.2031L49.927 19.2033L50.2201 19.231C51.6533 19.3819 52.0413 19.4788 52.0413 19.9315C52.0413 20.3517 51.6641 20.578 50.08 20.578C48.8515 20.578 48.1295 20.3948 47.8708 20.0823C47.7631 19.953 47.6876 19.759 47.6661 19.6297H44.5625C44.5948 19.8452 44.6487 20.1901 44.7672 20.4703C45.2953 21.6557 46.6747 22.5609 49.8752 22.5609C53.3129 22.5609 55.059 21.591 55.059 19.8021Z" fill="#394149"/>
<path fill-rule="evenodd" clip-rule="evenodd" d="M33.057 21.5691C33.3803 21.1919 33.5419 20.6207 33.5419 20.0388C33.5419 19.5431 33.4126 19.0689 33.1432 18.7564C32.8199 18.3361 32.2487 18.0344 31.6453 17.959C32.0548 17.9051 32.4427 17.6896 32.669 17.4094C32.9492 17.0753 33.0785 16.6227 33.0785 16.0731C33.0785 15.5235 32.9169 15.0386 32.5505 14.6722C32.141 14.2519 31.3974 13.9717 30.2336 13.9717H22.9272V22.4312H30.4383C31.6345 22.4312 32.5613 22.1725 33.057 21.5691ZM30.0827 16.5796C30.0827 16.7844 30.018 16.9568 29.9103 17.0753C29.7594 17.2154 29.4792 17.2693 29.1128 17.2693H25.7506V15.8899H29.0374C29.4469 15.8899 29.7271 15.9438 29.8779 16.0839C30.018 16.2024 30.0827 16.3748 30.0827 16.5796ZM30.406 20.2867C30.2336 20.4483 29.9318 20.513 29.4253 20.513H25.7506V19.1013H29.4577C29.9318 19.1013 30.212 19.1659 30.3736 19.306C30.503 19.4353 30.5568 19.597 30.5568 19.8125C30.5568 20.0173 30.5137 20.1789 30.406 20.2867Z" fill="#394149"/>
<path d="M43.6889 20.3298V22.4312H34.7769V13.9717H43.6135V16.0839H37.6218V17.1723H43.4411V19.2306H37.6218V20.3298H43.6889Z" fill="#394149"/>
<path d="M65.5452 16.0947V13.9717H55.4482V16.0947H59.0152V22.4312H61.9672V16.0947H65.5452Z" fill="#394149"/>
<path d="M65.2892 29.9164H64.8142L64.7802 29.459C64.6352 29.6905 64.3282 29.9684 63.6802 29.9684C62.5852 29.9684 62.0762 29.3084 62.0762 27.6233C62.0762 26.3205 62.4002 25.2725 63.7372 25.2725C64.8962 25.2725 65.2492 26.0311 65.2662 26.8475H64.6872C64.6702 26.3148 64.4322 25.8226 63.7492 25.8226C62.9272 25.8226 62.6892 26.3148 62.6892 27.6408C62.6892 29.0247 62.9852 29.459 63.7612 29.459C64.3052 29.459 64.6232 29.1579 64.7282 28.7989V27.9361H63.5582V27.4091H65.2832V28.741C65.2832 29.1389 65.2872 29.5636 65.2882 29.7771L65.2892 29.8787V29.9164Z" fill="#394149"/>
<path fill-rule="evenodd" clip-rule="evenodd" d="M23.0366 28.7647H24.6579L24.9937 29.917H25.6075L24.2641 25.3311H23.5172L22.0811 29.917H22.6891L23.0366 28.7647ZM24.5131 28.2494H23.1929C23.1929 28.2494 23.7661 26.3965 23.7777 26.356C23.7835 26.327 23.8762 25.9159 23.8762 25.9159L23.9403 26.22L23.9688 26.356C23.9746 26.3849 24.5131 28.2494 24.5131 28.2494Z" fill="#394149"/>
<path d="M30.0024 25.3311H30.5583L29.4755 29.917H28.7864C28.7864 29.917 28.0163 26.3502 28.0163 26.1996C28.0105 26.3502 27.223 29.917 27.223 29.917H26.534L25.4512 25.3311H26.0765C26.0765 25.3311 26.9161 28.9616 26.9161 29.1064C26.9161 28.9616 27.6863 25.3311 27.6863 25.3311H28.3753C28.3753 25.3311 29.1454 28.9674 29.1454 29.1064C29.1454 28.9674 30.0024 25.3311 30.0024 25.3311Z" fill="#394149"/>
<path fill-rule="evenodd" clip-rule="evenodd" d="M32.9361 28.7647H31.3148L30.9674 29.917H30.3594L31.7954 25.3311H32.5424L33.8858 29.917H33.272L32.9361 28.7647ZM31.4712 28.2494H32.7914C32.7914 28.2494 32.2529 26.3849 32.2471 26.356L32.2033 26.1473L32.1544 25.9159C32.1544 25.9159 32.0618 26.327 32.056 26.356C32.0444 26.3965 31.4712 28.2494 31.4712 28.2494Z" fill="#394149"/>
<path fill-rule="evenodd" clip-rule="evenodd" d="M36.1172 25.3311C36.8236 25.3311 37.2058 25.6611 37.2058 26.6223C37.2058 27.4388 36.8989 27.7109 36.5804 27.8035L37.4606 29.917H36.8236L36.0072 27.9194H34.8955V29.917H34.3164V25.3311H36.1172ZM36.0304 27.3982C36.4878 27.3982 36.5978 27.1608 36.5978 26.6397C36.5978 26.0491 36.4241 25.8696 36.0014 25.8696H34.9012V27.3982H36.0304Z" fill="#394149"/>
<path fill-rule="evenodd" clip-rule="evenodd" d="M41.0609 27.5488C41.0609 28.6316 40.9799 29.0716 40.7483 29.4017C40.5167 29.7202 40.1519 29.917 39.5612 29.917H37.9863V25.3311H39.5207C40.0998 25.3311 40.5514 25.5048 40.7599 25.8175C40.9915 26.1533 41.0609 26.5702 41.0609 27.5488ZM39.4397 29.3727C39.7929 29.3727 40.0882 29.2801 40.2387 29.0774C40.4009 28.8574 40.4472 28.4115 40.4472 27.5488C40.4472 26.825 40.4066 26.437 40.2387 26.188C40.0824 25.9738 39.7813 25.8811 39.4281 25.8811H38.5711V29.3727H39.4397Z" fill="#394149"/>
<path d="M47.1699 25.3311H47.7258L46.643 29.917H45.9539C45.9539 29.917 45.1838 26.3502 45.1838 26.1996C45.178 26.3502 44.3905 29.917 44.3905 29.917H43.7015L42.6187 25.3311H43.244C43.244 25.3311 44.0836 28.9616 44.0836 29.1064C44.0836 28.9616 44.8537 25.3311 44.8537 25.3311H45.5428C45.5428 25.3311 46.3129 28.9674 46.3129 29.1064C46.3129 28.9674 47.1699 25.3311 47.1699 25.3311Z" fill="#394149"/>
<path d="M48.7497 25.3311V29.917H48.1475V25.3311H48.7497Z" fill="#394149"/>
<path d="M52.5193 25.3311V29.917H51.8534L50.1452 26.3617V29.917H49.5835V25.3311H50.2842L51.9518 28.8342V25.3311H52.5193Z" fill="#394149"/>
<path d="M56.274 25.3311V29.917H55.608L53.9001 26.3617V29.917H53.3384V25.3311H54.0391L55.707 28.8342V25.3311H56.274Z" fill="#394149"/>
<path d="M57.6948 25.3311V29.917H57.0928V25.3311H57.6948Z" fill="#394149"/>
<path d="M61.4648 25.3311V29.917H60.7988L59.0908 26.3617V29.917H58.5288V25.3311H59.2298L60.8978 28.8342V25.3311H61.4648Z" fill="#394149"/>
<path d="M29.5554 38.9553L28.8919 36.9131L28.2283 38.9553H26.0811L27.8182 40.2175L27.1547 42.2597L28.8919 40.9975L30.6291 42.2597L29.9655 40.2175L31.7027 38.9553H29.5554Z" fill="#FBB03B"/>
<path d="M37.2289 38.9553L36.5518 36.9131L35.8747 38.9553H33.6836L35.4563 40.2174L34.7792 42.2596L36.5518 40.9975L38.3245 42.2596L37.6474 40.2174L39.42 38.9553H37.2289Z" fill="#FBB03B"/>
<path d="M44.829 38.9553L44.1519 36.9131L43.4748 38.9553H41.2837L43.0563 40.2174L42.3792 42.2596L44.1519 40.9975L45.9245 42.2596L45.2474 40.2174L47.0201 38.9553H44.829Z" fill="#FBB03B"/>
<path d="M52.4286 38.9553L51.7515 36.9131L51.0744 38.9553H48.8833L50.6559 40.2174L49.9788 42.2596L51.7515 40.9975L53.5241 42.2596L52.847 40.2174L54.6197 38.9553H52.4286Z" fill="#FBB03B"/>
<path d="M60.0751 38.9553L59.4121 36.9131L58.7481 38.9553H56.6011L58.3381 40.2174L57.6751 42.2596L59.4121 40.9975L61.1491 42.2596L60.4851 40.2174L62.2231 38.9553H60.0751Z" fill="#FBB03B"/>
<path d="M1.8923 13.9361C2.5167 14.8887 3.48291 16.0819 4.89171 16.0479C6.17281 16.1119 7.2796 15.2376 8.1512 14.5079C9.0899 13.722 9.9372 12.5727 10.2949 11.3302C8.9846 10.949 7.73011 11.6552 6.79461 12.3213C5.81771 13.017 5.0664 14.2902 4.905 15.5975C4.8929 14.2878 4.5384 12.9351 3.9669 11.8454C3.4444 10.8492 2.71631 9.5026 1.41731 9.2334C0.905506 10.7835 1.0688 12.6801 1.8923 13.9361Z" fill="#394149"/>
<path d="M5.30843 21.1789C4.00093 21.398 2.72553 20.5969 1.89723 19.6546C0.830832 18.4414 0.196329 16.8139 0.325729 15.1846C1.66893 15.2187 2.68623 16.3798 3.43813 17.2578C4.24793 18.2034 4.91143 19.4475 5.22973 20.7309C5.08973 19.4519 5.51913 18.0708 6.31623 17.2174C7.08563 16.3936 8.16343 15.4958 9.50443 15.6399C9.47553 16.9368 8.82543 18.1724 8.15493 19.0978C7.52993 19.9602 6.56713 21.0269 5.30843 21.1789Z" fill="#394149"/>
<path d="M2.8931 25.4881C4.0973 26.2721 5.5578 27.0481 7.0927 26.4608C8.3519 26.0153 9.1525 24.7478 9.6449 23.5844C10.1665 22.3517 10.5149 20.9303 10.2737 19.5811C8.89 19.7039 7.7426 20.6939 7.1332 21.9024C6.4961 23.1658 6.3739 24.6696 6.8633 25.9942C6.1402 24.6315 5.0827 23.5289 3.9625 22.5101C2.9442 21.584 1.4774 20.6084 0 20.7919C0.2811 22.6184 1.3957 24.5133 2.8931 25.4881Z" fill="#394149"/>
<path d="M10.1945 31.3985C11.3795 30.6901 11.8564 29.1995 12.0513 27.9222C12.2614 26.5447 12.2524 25.0256 11.6803 23.7188C10.3055 24.1028 9.36178 25.3401 9.05018 26.6954C8.72098 28.1273 8.99878 29.6534 9.79958 30.8726C8.73508 29.6513 7.31958 28.6429 5.96308 27.9358C4.65278 27.2528 3.04528 26.429 1.47168 26.9265C2.23048 28.7784 3.85368 30.5026 5.65268 31.2158C7.04588 31.768 8.74078 32.3141 10.1945 31.3985Z" fill="#394149"/>
<path d="M15.8123 31.8781C15.9862 33.2077 15.9813 34.8941 14.949 35.9175C13.659 37.2379 11.6626 36.9831 10.1228 36.6926C8.05564 36.3023 5.72865 34.8924 4.48145 33.0151C6.00465 32.1764 7.86755 32.7129 9.37555 33.1472L9.46165 33.1719C11.1449 33.6562 12.9387 34.4362 14.4389 35.502C13.2417 34.4202 12.3694 32.8324 12.3267 31.232C12.2883 29.8006 12.9096 28.2692 14.2466 27.5869C15.18 28.812 15.6171 30.3849 15.8123 31.8781Z" fill="#394149"/>
<path d="M21.8034 39.6826C22.5636 38.2355 21.8104 36.5371 21.2102 35.2818C20.5006 33.7978 19.5311 32.2854 18.1436 31.1992C16.8113 32.3474 16.938 33.9903 17.3341 35.4181C17.8051 37.1158 19.438 38.563 21.1289 39.3877C19.1706 38.6574 17.0319 38.2191 14.9971 38.0897L14.791 38.0764C13.1563 37.9699 11.0282 37.8313 9.72559 39.0276C11.6951 40.7019 14.4926 41.6679 16.9582 41.6177C18.6105 41.5841 20.8775 41.3886 21.8034 39.6826Z" fill="#394149"/>
<path d="M81.9739 10.4696C81.4969 9.18633 80.4529 8.06733 79.3169 7.54543C78.2619 7.06143 76.8609 6.55633 75.6299 7.17653C76.2999 8.35293 77.4029 9.34283 78.5299 9.96543C79.5429 10.5252 80.8259 11.2034 82.0959 10.9119C83.4799 10.6999 84.1489 9.32213 84.5209 8.27983C85.0359 6.83953 84.6839 4.91603 83.8049 3.50293C82.5929 4.00803 82.2229 5.50663 81.9699 6.56693C81.6809 7.77383 81.6729 9.18263 81.9739 10.4696Z" fill="#394149"/>
<path d="M80.979 12.3245C81.955 13.0205 82.704 14.293 82.865 15.5994C82.879 14.2904 83.235 12.939 83.807 11.8504C84.33 10.8545 85.06 9.50853 86.359 9.24023C86.869 10.7908 86.704 12.6873 85.879 13.9426C85.255 14.8935 84.289 16.0842 82.883 16.0523C81.6 16.1178 80.492 15.2414 79.62 14.5102C78.682 13.7235 77.836 12.5736 77.48 11.3309C78.79 10.9505 80.044 11.6577 80.979 12.3245Z" fill="#394149"/>
<path d="M82.5351 20.7398C82.6781 19.4597 82.2501 18.0757 81.4521 17.2206C80.6841 16.3962 79.6071 15.4976 78.2661 15.6407C78.2931 16.9376 78.9421 18.1738 79.6121 19.0997C80.2361 19.9622 81.1971 21.0289 82.4551 21.1826C83.7631 21.4041 85.0401 20.6034 85.8701 19.6612C86.9371 18.4489 87.5731 16.8219 87.4461 15.1924C86.1021 15.2256 85.0841 16.3858 84.3311 17.2632C83.5191 18.2094 82.8541 19.4549 82.5351 20.7398Z" fill="#394149"/>
<path d="M80.6312 21.9048C81.2672 23.1689 81.3882 24.673 80.8972 25.9972C81.6212 24.6347 82.6802 23.5328 83.8012 22.5147C84.8202 21.5893 86.2882 20.615 87.7652 20.7995C87.4832 22.6259 86.3662 24.52 84.8682 25.4936C83.6642 26.2756 82.2052 27.05 80.6722 26.4651C79.4112 26.0204 78.6102 24.7503 78.1182 23.5849C77.5972 22.3518 77.2502 20.9302 77.4932 19.5811C78.8762 19.705 80.0232 20.6959 80.6312 21.9048Z" fill="#394149"/>
<path d="M77.9579 30.8703C78.7579 29.6523 79.0369 28.1277 78.7099 26.6965C78.3999 25.3409 77.4569 24.1028 76.0819 23.7178C75.5089 25.024 75.4989 26.5431 75.7069 27.9209C75.9009 29.1957 76.3749 30.6833 77.5529 31.3943C79.0079 32.3171 80.7069 31.7713 82.1019 31.2193C83.9019 30.5074 85.5269 28.7844 86.2869 26.9329C84.7139 26.4344 83.1059 27.257 81.7949 27.939C80.4389 28.6447 79.0229 29.651 77.9579 30.8703Z" fill="#394149"/>
<path d="M71.9421 31.8742C71.7671 33.2035 71.7701 34.8898 72.8021 35.9141C74.0901 37.2355 76.0871 36.9821 77.6271 36.6926C79.6951 36.3039 82.0231 34.8955 83.2721 33.0193C81.7501 32.1796 79.8861 32.7145 78.3781 33.1476L78.2911 33.1724C76.6081 33.6552 74.8141 34.4336 73.3131 35.4978C74.5111 34.4169 75.3841 32.8304 75.4281 31.2306C75.4681 29.7993 74.8481 28.2674 73.5121 27.584C72.5771 28.8084 72.1391 30.3811 71.9421 31.8742Z" fill="#394149"/>
<path d="M70.7868 41.6126C69.1348 41.5777 66.8678 41.3806 65.9438 39.6738L65.9308 39.6504C65.1928 38.2077 65.9428 36.5215 66.5408 35.2736C67.2518 33.7901 68.2228 32.2784 69.6108 31.1934C70.9428 32.3425 70.8138 33.9853 70.4168 35.4127C69.9438 37.1101 68.3098 38.5563 66.6178 39.3796C68.5768 38.6508 70.7158 38.2141 72.7508 38.0861L72.9578 38.0729C74.5928 37.9677 76.7208 37.8309 78.0218 39.0279C76.0508 40.7005 73.2528 41.6646 70.7868 41.6126Z" fill="#394149"/>
</g>
<defs>
<clipPath id="clip0_343_235">
<rect width="88" height="42" fill="white"/>
</clipPath>
</defs>
</svg>
