<svg width="118" height="40" viewBox="0 0 118 40" fill="none" xmlns="http://www.w3.org/2000/svg">
<g clip-path="url(#clip0_129_3103)">
<mask id="mask0_129_3103" style="mask-type:luminance" maskUnits="userSpaceOnUse" x="-1" y="0" width="119" height="40">
<path d="M117.998 0H-0.00195312V40H117.998V0Z" fill="white"/>
</mask>
<g mask="url(#mask0_129_3103)">
<mask id="mask1_129_3103" style="mask-type:luminance" maskUnits="userSpaceOnUse" x="-1" y="0" width="119" height="40">
<path d="M117.996 0H-0.00390625V40H117.996V0Z" fill="white"/>
</mask>
<g mask="url(#mask1_129_3103)">
<path d="M-0.195312 27.7367L5.22739 11.1927H10.1369L15.5595 27.7367H11.9444L10.851 24.3326H4.51329L3.41982 27.7367H-0.195312ZM5.31665 21.6319H10.0476L8.66401 17.4109L7.74906 14.3926H7.61517L6.70022 17.4109L5.31665 21.6319Z" fill="#6F6F6F"/>
<path d="M21.6078 27.9411C20.4177 27.9411 19.3763 27.684 18.4837 27.1696C17.5911 26.64 16.8993 25.9063 16.4083 24.9683C15.9174 24.0151 15.6719 22.9107 15.6719 21.655C15.6719 20.3841 15.9174 19.2796 16.4083 18.3417C16.9142 17.3885 17.6208 16.6547 18.5283 16.1403C19.4358 15.6108 20.4995 15.3461 21.7194 15.3461C22.7459 15.3461 23.6609 15.5427 24.4642 15.9361C25.2677 16.3294 25.8999 16.8742 26.3611 17.5701C26.8371 18.266 27.0975 19.0755 27.1421 19.9983H23.9287C23.8246 19.3629 23.5642 18.8863 23.1477 18.5686C22.7311 18.2357 22.2253 18.0693 21.6301 18.0693C20.7673 18.0693 20.1127 18.3946 19.6664 19.0451C19.2201 19.6957 18.9969 20.5657 18.9969 21.655C18.9969 22.8502 19.2349 23.7428 19.711 24.3329C20.202 24.9229 20.8342 25.2179 21.6078 25.2179C22.3071 25.2179 22.8575 25.0364 23.2592 24.6732C23.6758 24.3102 23.9139 23.8336 23.9733 23.2436H27.1644C27.1198 24.1967 26.8521 25.0288 26.3611 25.7398C25.885 26.4358 25.2379 26.9805 24.4196 27.3738C23.6014 27.752 22.6642 27.9411 21.6078 27.9411Z" fill="#6F6F6F"/>
<path d="M28.7363 27.737V15.573H31.9051L32.0167 17.7743H32.1506C32.4481 16.9725 32.9316 16.3673 33.6011 15.9588C34.2706 15.5503 35.007 15.3461 35.8104 15.3461C36.6435 15.3461 37.4022 15.5503 38.0864 15.9588C38.7707 16.3673 39.2766 17.0708 39.6039 18.0693H39.7824C40.0651 17.1616 40.5634 16.4808 41.2775 16.0269C42.0065 15.573 42.8248 15.3461 43.7323 15.3461C44.5059 15.3461 45.1977 15.5125 45.8076 15.8453C46.4176 16.1782 46.9011 16.7153 47.2581 17.4566C47.63 18.1828 47.816 19.1586 47.816 20.3841V27.737H44.5356V21.1103C44.5356 20.0815 44.3646 19.3175 44.0224 18.8183C43.6951 18.319 43.1595 18.0693 42.4156 18.0693C41.6271 18.0693 41.0098 18.3644 40.5634 18.9543C40.132 19.5293 39.9163 20.2025 39.9163 20.9742V27.737H36.636V21.1103C36.636 20.0815 36.465 19.3175 36.1228 18.8183C35.7955 18.319 35.2599 18.0693 34.516 18.0693C33.7127 18.0693 33.0953 18.3644 32.6639 18.9543C32.2324 19.5293 32.0167 20.2025 32.0167 20.9742V27.737H28.7363Z" fill="#6F6F6F"/>
<path d="M55.304 27.9411C54.0544 27.9411 52.9832 27.684 52.0905 27.1696C51.2128 26.6552 50.5359 25.9366 50.0598 25.0137C49.5837 24.0756 49.3457 22.9863 49.3457 21.7457C49.3457 20.4295 49.5837 19.2948 50.0598 18.3417C50.5508 17.3885 51.2351 16.6547 52.1128 16.1403C52.9906 15.6108 54.0171 15.3461 55.1925 15.3461C56.576 15.3461 57.7141 15.6562 58.6067 16.2765C59.4994 16.8817 60.139 17.7213 60.5259 18.7956C60.9127 19.8546 61.0391 21.0573 60.9052 22.4038H52.5815C52.5666 23.3721 52.8121 24.121 53.3179 24.6505C53.8238 25.165 54.4857 25.4222 55.304 25.4222C55.9288 25.4222 56.457 25.286 56.8885 25.0137C57.3348 24.7262 57.6174 24.3479 57.7364 23.879H60.8383C60.7342 24.6959 60.4292 25.407 59.9234 26.0122C59.4324 26.6173 58.7927 27.094 58.0042 27.4419C57.2158 27.7747 56.3157 27.9411 55.304 27.9411ZM55.1925 17.865C54.4486 17.865 53.8461 18.0845 53.3849 18.5232C52.9237 18.9468 52.6633 19.5293 52.6038 20.2706H57.6918C57.6471 19.4537 57.3868 18.8485 56.9107 18.4551C56.4496 18.0618 55.8768 17.865 55.1925 17.865Z" fill="#6F6F6F"/>
<path d="M74.4487 27.941C72.827 27.941 71.3989 27.6082 70.164 26.9425C68.9441 26.2767 67.992 25.3085 67.3078 24.0377C66.6234 22.7668 66.2812 21.2387 66.2812 19.4535C66.2812 17.6682 66.6234 16.1477 67.3078 14.892C67.992 13.6211 68.9441 12.6528 70.164 11.9872C71.3989 11.3215 72.827 10.9886 74.4487 10.9886C75.8471 10.9886 77.0893 11.2383 78.1754 11.7376C79.2614 12.2217 80.1391 12.91 80.8086 13.8027C81.4781 14.6802 81.8872 15.709 82.036 16.8891H78.5101C78.3167 16.0419 77.8555 15.3535 77.1265 14.8239C76.4124 14.2793 75.5198 14.007 74.4487 14.007C73.0502 14.007 71.9345 14.4608 71.1013 15.3686C70.2831 16.2764 69.8739 17.638 69.8739 19.4535C69.8739 21.2841 70.2831 22.6533 71.1013 23.5611C71.9345 24.4688 73.0502 24.9227 74.4487 24.9227C75.49 24.9227 76.3827 24.6579 77.1265 24.1285C77.8704 23.5989 78.3316 22.8953 78.5101 22.0179H82.036C81.9021 23.1979 81.4929 24.2343 80.8086 25.127C80.1243 26.0196 79.2316 26.7155 78.1307 27.2148C77.0447 27.699 75.8174 27.941 74.4487 27.941Z" fill="#6F6F6F"/>
<path d="M89.1592 27.9411C87.969 27.9411 86.9201 27.6916 86.0126 27.1923C85.1051 26.693 84.3985 25.9743 83.8926 25.0364C83.4017 24.0983 83.1562 22.9712 83.1562 21.655C83.1562 20.3993 83.3943 19.3023 83.8703 18.3644C84.3464 17.4112 85.0307 16.6699 85.9234 16.1403C86.816 15.6108 87.8945 15.3461 89.1592 15.3461C90.3493 15.3461 91.3907 15.5957 92.2833 16.095C93.1907 16.5943 93.8905 17.3204 94.3808 18.2736C94.8866 19.2116 95.14 20.3387 95.14 21.655C95.14 22.9107 94.9013 24.0151 94.4256 24.9683C93.95 25.9063 93.2648 26.64 92.373 27.1696C91.4948 27.684 90.4237 27.9411 89.1592 27.9411ZM89.1368 25.2406C89.9402 25.2406 90.5873 24.9456 91.0783 24.3556C91.5689 23.7655 91.815 22.8653 91.815 21.655C91.815 20.4446 91.5762 19.5444 91.1006 18.9543C90.6246 18.3644 89.9774 18.0693 89.1592 18.0693C88.3409 18.0693 87.6863 18.3644 87.1953 18.9543C86.7044 19.5444 86.4589 20.4446 86.4589 21.655C86.4589 22.8502 86.697 23.7503 87.173 24.3556C87.6639 24.9456 88.3185 25.2406 89.1368 25.2406Z" fill="#6F6F6F"/>
<path d="M96.7832 27.7365V15.5726H99.7515L99.886 17.5243H99.9976C100.265 16.7376 100.689 16.1929 101.269 15.8903C101.865 15.5726 102.541 15.4138 103.3 15.4138H103.969V18.5456H103.233C102.132 18.5456 101.336 18.7952 100.846 19.2944C100.354 19.7786 100.094 20.4745 100.064 21.3822V27.7365H96.7832Z" fill="#6F6F6F"/>
<path d="M105.252 31.5268V15.573H108.421L108.533 17.6836H108.711C108.994 16.9725 109.462 16.4051 110.117 15.9815C110.787 15.5579 111.583 15.3461 112.505 15.3461C113.933 15.3461 115.086 15.8756 115.963 16.9346C116.856 17.9785 117.303 19.552 117.303 21.655C117.303 23.7428 116.856 25.3162 115.963 26.3753C115.086 27.4343 113.933 27.9638 112.505 27.9638C111.583 27.9638 110.787 27.752 110.117 27.3284C109.462 26.8897 108.994 26.3223 108.711 25.6264H108.533V31.5268H105.252ZM111.277 25.2633C112.08 25.2633 112.721 24.9758 113.196 24.401C113.688 23.8109 113.933 22.8956 113.933 21.655C113.933 20.4143 113.688 19.5066 113.196 18.9317C112.721 18.3417 112.08 18.0466 111.277 18.0466C110.667 18.0466 110.161 18.1903 109.76 18.4778C109.358 18.7652 109.061 19.1435 108.867 19.6125C108.674 20.0663 108.577 20.5505 108.577 21.065V22.245C108.577 22.7594 108.674 23.2511 108.867 23.7201C109.061 24.174 109.358 24.5447 109.76 24.8321C110.161 25.1196 110.667 25.2633 111.277 25.2633Z" fill="#6F6F6F"/>
</g>
</g>
</g>
<defs>
<clipPath id="clip0_129_3103">
<rect width="118" height="40" fill="white"/>
</clipPath>
</defs>
</svg>
