<svg width="118" height="18" viewBox="0 0 118 18" fill="none" xmlns="http://www.w3.org/2000/svg">
<g clip-path="url(#clip0_129_3144)">
<mask id="mask0_129_3144" style="mask-type:luminance" maskUnits="userSpaceOnUse" x="0" y="0" width="118" height="18">
<path d="M117.426 0H0.00195312V18H117.426V0Z" fill="white"/>
</mask>
<g mask="url(#mask0_129_3144)">
<g opacity="0.8">
<path d="M0.632812 17.3689V0.223083H3.98572L12.6038 12.2987V0.223083H15.9568V17.3689H12.6038L3.98572 5.31784V17.3689H0.632812Z" fill="white"/>
<path d="M24.4353 17.6621C23.1255 17.6621 21.9642 17.4009 20.9515 16.8782C19.9386 16.3557 19.144 15.6208 18.5676 14.6739C17.9912 13.7268 17.7031 12.6326 17.7031 11.3916C17.7031 10.1342 17.9825 9.01565 18.5416 8.03584C19.1176 7.05609 19.9035 6.29678 20.8991 5.75792C21.9118 5.20272 23.0994 4.92511 24.4614 4.92511C25.7365 4.92511 26.8626 5.18638 27.8407 5.70893C28.8187 6.23148 29.5783 6.94996 30.1196 7.86442C30.6786 8.76248 30.958 9.76679 30.958 10.8771C30.958 11.0568 30.9493 11.2446 30.9316 11.4405C30.9316 11.6364 30.923 11.8405 30.9055 12.053H21.03C21.0998 12.9999 21.4491 13.743 22.0778 14.282C22.7238 14.8206 23.501 15.0903 24.4093 15.0903C25.0903 15.0903 25.6577 14.9513 26.1117 14.6739C26.5833 14.3798 26.9325 14.0043 27.1596 13.5471H30.565C30.3204 14.3145 29.9101 15.0166 29.3337 15.6537C28.775 16.2741 28.0765 16.7638 27.2383 17.1231C26.4175 17.4825 25.4833 17.6621 24.4353 17.6621ZM24.4614 7.47251C23.6408 7.47251 22.916 7.69294 22.2873 8.13387C21.6586 8.55839 21.2569 9.21158 21.0824 10.0934H27.5527C27.5002 9.29321 27.1858 8.65636 26.6096 8.18281C26.0333 7.70928 25.3172 7.47251 24.4614 7.47251Z" fill="white"/>
<path d="M30.3418 17.3679L35.0567 11.2934L30.3418 5.21887H33.9306L37.231 9.52985L40.5053 5.21887H44.1203L39.379 11.2934L44.1203 17.3679H40.5053L37.231 13.057L33.9306 17.3679H30.3418Z" fill="white"/>
<path d="M50.7361 17.3682C49.3737 17.3682 48.2824 17.058 47.4614 16.4375C46.6407 15.8169 46.2305 14.7149 46.2305 13.1308V7.84008H44.0039V5.21919H46.2305L46.6234 1.96149H49.5833V5.21919H53.0936V7.84008H49.5833V13.1554C49.5833 13.7432 49.7144 14.1515 49.9762 14.38C50.2557 14.5924 50.7271 14.6984 51.3907 14.6984H53.0151V17.3682H50.7361Z" fill="white"/>
<path d="M54.6641 17.3681V5.21903H57.6243L57.9124 6.86014C58.3314 6.27228 58.8817 5.80691 59.5627 5.46399C60.2612 5.10474 61.0644 4.92511 61.9727 4.92511C63.9809 4.92511 65.4041 5.65178 66.2425 7.1051C66.714 6.43558 67.3425 5.90487 68.1284 5.51299C68.9318 5.12108 69.8049 4.92511 70.7478 4.92511C72.442 4.92511 73.743 5.39866 74.6514 6.34577C75.5591 7.29286 76.0129 8.68086 76.0129 10.5097V17.3681H72.6602V10.8037C72.6602 9.75869 72.442 8.95848 72.0053 8.40331C71.5863 7.84808 70.9313 7.57047 70.0408 7.57047C69.1325 7.57047 68.3991 7.88076 67.8404 8.50121C67.2991 9.12176 67.0284 9.98729 67.0284 11.0976V17.3681H63.6752V10.8037C63.6752 9.75869 63.457 8.95848 63.0205 8.40331C62.5838 7.84808 61.9115 7.57047 61.0033 7.57047C60.1128 7.57047 59.388 7.88076 58.8293 8.50121C58.288 9.12176 58.0173 9.98729 58.0173 11.0976V17.3681H54.6641Z" fill="white"/>
<path d="M84.1203 17.6621C82.8632 17.6621 81.7279 17.3925 80.7151 16.8537C79.7195 16.3148 78.9248 15.5718 78.3313 14.6247C77.755 13.6614 77.4668 12.551 77.4668 11.2935C77.4668 10.0362 77.7636 8.93397 78.3572 7.98689C78.9515 7.02348 79.7461 6.27228 80.7409 5.73343C81.7539 5.19457 82.8892 4.92511 84.147 4.92511C85.3868 4.92511 86.5041 5.19457 87.4997 5.73343C88.5125 6.27228 89.3072 7.02348 89.8835 7.98689C90.477 8.93397 90.7738 10.0362 90.7738 11.2935C90.7738 12.551 90.477 13.6614 89.8835 14.6247C89.3072 15.5718 88.5125 16.3148 87.4997 16.8537C86.4868 17.3925 85.3602 17.6621 84.1203 17.6621ZM84.1203 14.9431C84.9934 14.9431 85.7535 14.641 86.3997 14.0369C87.0459 13.4165 87.3686 12.5019 87.3686 11.2935C87.3686 10.0852 87.0459 9.17891 86.3997 8.57473C85.7535 7.95421 85.002 7.64392 84.147 7.64392C83.2558 7.64392 82.4879 7.95421 81.8417 8.57473C81.2128 9.17891 80.8987 10.0852 80.8987 11.2935C80.8987 12.5019 81.2128 13.4165 81.8417 14.0369C82.4879 14.641 83.2472 14.9431 84.1203 14.9431Z" fill="white"/>
<path d="M95.3324 17.3679L90.5645 5.21887H94.0747L97.3749 14.4043L100.676 5.21887H104.185L99.3922 17.3679H95.3324Z" fill="white"/>
<path d="M110.665 17.6621C109.355 17.6621 108.193 17.4009 107.181 16.8782C106.168 16.3557 105.374 15.6208 104.797 14.6739C104.221 13.7268 103.932 12.6326 103.932 11.3916C103.932 10.1342 104.213 9.01565 104.771 8.03584C105.347 7.05609 106.132 6.29678 107.129 5.75792C108.141 5.20272 109.329 4.92511 110.69 4.92511C111.966 4.92511 113.092 5.18638 114.07 5.70893C115.048 6.23148 115.808 6.94996 116.349 7.86442C116.908 8.76248 117.187 9.76679 117.187 10.8771C117.187 11.0568 117.179 11.2446 117.162 11.4405C117.162 11.6364 117.152 11.8405 117.135 12.053H107.26C107.328 12.9999 107.679 13.743 108.307 14.282C108.953 14.8206 109.731 15.0903 110.638 15.0903C111.32 15.0903 111.887 14.9513 112.341 14.6739C112.813 14.3798 113.162 14.0043 113.388 13.5471H116.794C116.55 14.3145 116.139 15.0166 115.563 15.6537C115.005 16.2741 114.305 16.7638 113.467 17.1231C112.647 17.4825 111.712 17.6621 110.665 17.6621ZM110.69 7.47251C109.87 7.47251 109.145 7.69294 108.517 8.13387C107.887 8.55839 107.487 9.21158 107.311 10.0934H113.782C113.729 9.29321 113.416 8.65636 112.839 8.18281C112.263 7.70928 111.546 7.47251 110.69 7.47251Z" fill="white"/>
</g>
</g>
</g>
<defs>
<clipPath id="clip0_129_3144">
<rect width="118" height="18" fill="white"/>
</clipPath>
</defs>
</svg>
