<svg width="151" height="36" viewBox="0 0 151 36" fill="none" xmlns="http://www.w3.org/2000/svg">
<path d="M6.58594 11.7102H19.8632L6.80347 24.2486L8.91335 26.2744L21.9731 13.736V26.4833H22.0576L24.957 23.6996V11.9678L21.7049 8.84552H9.48361L6.58594 11.6275V11.7102Z" fill="#6F6F6F"/>
<path d="M42.7593 18.814H45.2869V21.0687H42.7593V24.2787H39.9531V21.0687H32.6094V19.1006L40.2119 10.4449H42.7593V18.814ZM36.1917 18.814H39.9531V14.4001L36.1917 18.814Z" fill="#6F6F6F"/>
<path d="M52.337 14.8778C53.3188 14.8778 54.1945 15.0625 54.9641 15.432C55.7468 15.8013 56.3572 16.3491 56.795 17.0752C57.2461 17.8012 57.4717 18.6738 57.4717 19.6929C57.4717 21.2087 56.9742 22.3934 55.979 23.2469C54.9839 24.0876 53.5842 24.508 51.7798 24.508C50.5325 24.508 49.4844 24.3105 48.6352 23.9157C47.7994 23.5208 47.1625 22.9985 46.7246 22.3488C46.3001 21.6992 46.0546 20.9859 45.9883 20.2089H48.8541C49.2787 21.6864 50.2473 22.4253 51.7598 22.4253C52.6885 22.4253 53.3918 22.1769 53.8695 21.6801C54.3604 21.1833 54.6058 20.5146 54.6058 19.6738C54.6058 18.8203 54.3604 18.1579 53.8695 17.6866C53.3785 17.2026 52.6819 16.9605 51.7798 16.9605C50.5857 16.9605 49.6701 17.4382 49.0333 18.3936L46.446 18.1452L47.4213 10.4449H56.6358V12.6996H49.7498L49.3119 15.8714C50.0284 15.209 51.0367 14.8778 52.337 14.8778Z" fill="#6F6F6F"/>
<path d="M68.5182 10.4449C70.5217 10.4449 72.3326 10.9034 73.9514 11.8206C75.5834 12.725 76.3993 14.5721 76.3993 17.3618C76.3993 20.1515 75.5834 22.005 73.9514 22.9221C72.3326 23.8265 70.5217 24.2787 68.5182 24.2787H63.6621V10.4449H68.5182ZM68.4187 21.8712C69.3341 21.8583 70.1501 21.7566 70.8666 21.5655C71.5963 21.3615 72.2133 20.9285 72.7174 20.2662C73.2349 19.6037 73.4936 18.6356 73.4936 17.3618C73.4936 16.0879 73.2349 15.1198 72.7174 14.4574C72.2133 13.795 71.5963 13.362 70.8666 13.1581C70.1501 12.9543 69.3341 12.8524 68.4187 12.8524H66.4683V21.8712H68.4187Z" fill="#6F6F6F"/>
<path d="M82.9835 13.7697C84.1381 13.7697 85.1264 14.0181 85.9492 14.5149C86.7851 14.9988 87.402 15.6931 87.8001 16.5975C88.2112 17.5019 88.3833 18.5656 88.3176 19.7885H80.2769C80.3698 20.6547 80.655 21.3107 81.1327 21.7566C81.6103 22.2024 82.2339 22.4253 83.0035 22.4253C83.6805 22.4253 84.2239 22.266 84.6357 21.9477C85.0598 21.6291 85.3453 21.2279 85.4914 20.7439H88.2579C88.019 21.9413 87.4281 22.8711 86.4866 23.5335C85.5573 24.1833 84.3968 24.5081 83.0035 24.5081C81.8625 24.5081 80.874 24.2851 80.0381 23.8393C79.2021 23.3934 78.5653 22.7693 78.1275 21.9668C77.6896 21.1515 77.4707 20.2089 77.4707 19.1388C77.4707 18.0816 77.6963 17.1453 78.1474 16.33C78.5985 15.5148 79.242 14.8842 80.0778 14.4384C80.9137 13.9926 81.8823 13.7697 82.9835 13.7697ZM85.5512 18.1071C85.4716 17.4192 85.2129 16.8651 84.7751 16.4446C84.3502 16.0243 83.7462 15.8142 82.9637 15.8142C82.2472 15.8142 81.6634 16.0053 81.2123 16.3873C80.7612 16.7695 80.4626 17.3427 80.3167 18.1071H85.5512Z" fill="#6F6F6F"/>
<path d="M99.9903 13.9989V23.8584C99.9903 25.196 99.5463 26.2723 98.6569 27.0876C97.7682 27.9155 96.4677 28.3296 94.7561 28.3296C93.2704 28.3296 92.0893 28.0111 91.2136 27.3742C90.3379 26.75 89.8204 25.9092 89.6612 24.852H92.3878C92.7063 25.7946 93.4962 26.2659 94.7561 26.2659C95.6318 26.2659 96.2686 26.0558 96.6667 25.6354C97.0648 25.2278 97.2638 24.6227 97.2638 23.8202V22.4445C96.5213 23.5399 95.3999 24.0877 93.9004 24.0877C92.9588 24.0877 92.1291 23.8838 91.4126 23.4762C90.7099 23.0559 90.1588 22.4571 89.7607 21.6801C89.3766 20.9031 89.1836 19.9859 89.1836 18.9286C89.1836 17.8713 89.3766 16.9542 89.7607 16.1772C90.1588 15.4001 90.7099 14.8077 91.4126 14.4001C92.1291 13.9798 92.9588 13.7697 93.9004 13.7697C95.4129 13.7697 96.5343 14.3173 97.2638 15.4129V13.9989H99.9903ZM94.6367 22.0241C95.5262 22.0241 96.2089 21.7374 96.6866 21.1642C97.1643 20.5911 97.4031 19.8459 97.4031 18.9286C97.4031 18.0115 97.1643 17.2663 96.6866 16.693C96.2089 16.1199 95.5262 15.8332 94.6367 15.8332C93.735 15.8332 93.0583 16.1262 92.6067 16.7122C92.1689 17.2854 91.9499 18.0242 91.9499 18.9286C91.9499 19.833 92.1689 20.5782 92.6067 21.1642C93.0583 21.7374 93.735 22.0241 94.6367 22.0241Z" fill="#6F6F6F"/>
<path d="M107.433 13.8843C107.658 13.8843 107.884 13.9034 108.109 13.9416V16.5594C107.87 16.5211 107.618 16.5021 107.353 16.5021C106.517 16.5021 105.893 16.6932 105.482 17.0752C105.07 17.4446 104.812 17.8841 104.706 18.3937C104.599 18.8905 104.546 19.47 104.546 20.1324V24.2788H101.82V13.9989H104.507V15.7569C105.091 14.5084 106.066 13.8843 107.433 13.8843Z" fill="#6F6F6F"/>
<path d="M114.21 13.7697C115.365 13.7697 116.354 14.0181 117.176 14.5149C118.012 14.9988 118.628 15.6931 119.026 16.5975C119.438 17.5019 119.61 18.5656 119.544 19.7885H111.503C111.597 20.6547 111.881 21.3107 112.359 21.7566C112.837 22.2024 113.46 22.4253 114.23 22.4253C114.907 22.4253 115.451 22.266 115.862 21.9477C116.287 21.6291 116.573 21.2279 116.717 20.7439H119.484C119.245 21.9413 118.655 22.8711 117.713 23.5335C116.784 24.1833 115.623 24.5081 114.23 24.5081C113.089 24.5081 112.1 24.2851 111.264 23.8393C110.428 23.3934 109.792 22.7693 109.354 21.9668C108.916 21.1515 108.697 20.2089 108.697 19.1388C108.697 18.0816 108.923 17.1453 109.374 16.33C109.825 15.5148 110.469 14.8842 111.304 14.4384C112.14 13.9926 113.109 13.7697 114.21 13.7697ZM116.777 18.1071C116.697 17.4192 116.439 16.8651 116.001 16.4446C115.577 16.0243 114.973 15.8142 114.19 15.8142C113.474 15.8142 112.89 16.0053 112.439 16.3873C111.988 16.7695 111.689 17.3427 111.543 18.1071H116.777Z" fill="#6F6F6F"/>
<path d="M125.88 13.7697C127.034 13.7697 128.023 14.0181 128.845 14.5149C129.682 14.9988 130.299 15.6931 130.697 16.5975C131.107 17.5019 131.28 18.5656 131.214 19.7885H123.173C123.267 20.6547 123.551 21.3107 124.03 21.7566C124.507 22.2024 125.13 22.4253 125.9 22.4253C126.576 22.4253 127.121 22.266 127.532 21.9477C127.957 21.6291 128.241 21.2279 128.388 20.7439H131.154C130.916 21.9413 130.325 22.8711 129.383 23.5335C128.454 24.1833 127.293 24.5081 125.9 24.5081C124.759 24.5081 123.77 24.2851 122.935 23.8393C122.099 23.3934 121.462 22.7693 121.024 21.9668C120.586 21.1515 120.367 20.2089 120.367 19.1388C120.367 18.0816 120.592 17.1453 121.044 16.33C121.495 15.5148 122.139 14.8842 122.975 14.4384C123.811 13.9926 124.779 13.7697 125.88 13.7697ZM128.447 18.1071C128.368 17.4192 128.11 16.8651 127.672 16.4446C127.246 16.0243 126.642 15.8142 125.861 15.8142C125.144 15.8142 124.56 16.0053 124.109 16.3873C123.658 16.7695 123.359 17.3427 123.214 18.1071H128.447Z" fill="#6F6F6F"/>
<path d="M137.171 24.5081C135.552 24.5081 134.298 24.1641 133.41 23.4762C132.521 22.7884 132.016 21.9222 131.896 20.8776H134.624C134.981 21.9731 135.851 22.5209 137.231 22.5209C137.868 22.5209 138.365 22.4126 138.723 22.1961C139.082 21.9668 139.261 21.6738 139.261 21.3171C139.261 20.9349 139.061 20.6674 138.663 20.5146C138.279 20.3489 137.615 20.1834 136.674 20.0178C135.798 19.8777 135.048 19.7121 134.425 19.521C133.801 19.3172 133.264 18.9987 132.813 18.5656C132.362 18.1325 132.136 17.553 132.136 16.8268C132.136 15.795 132.587 15.0307 133.49 14.5339C134.392 14.0244 135.492 13.7697 136.792 13.7697C138.225 13.7697 139.367 14.0689 140.216 14.6677C141.079 15.2664 141.589 16.0689 141.748 17.0752H139.022C138.863 16.6549 138.604 16.33 138.246 16.1008C137.9 15.8715 137.396 15.7569 136.734 15.7569C136.163 15.7569 135.705 15.846 135.36 16.0243C135.028 16.2026 134.863 16.4446 134.863 16.7505C134.863 17.0179 134.995 17.2408 135.26 17.4192C135.539 17.5848 135.845 17.7058 136.176 17.7822C136.508 17.8587 137.078 17.9733 137.888 18.1261C139.321 18.3809 140.363 18.7185 141.012 19.1388C141.662 19.5592 141.987 20.196 141.987 21.0496C141.987 22.0941 141.57 22.9349 140.734 23.5718C139.897 24.1959 138.711 24.5081 137.171 24.5081Z" fill="#6F6F6F"/>
<path d="M146.678 16.5973C146.08 16.5973 145.523 16.4699 145.005 16.2151C144.501 15.9477 144.096 15.5718 143.791 15.0877C143.499 14.6037 143.354 14.0432 143.354 13.4064C143.354 12.7693 143.499 12.2088 143.791 11.7249C144.096 11.2408 144.501 10.8714 145.005 10.6166C145.523 10.3491 146.08 10.2154 146.678 10.2154C147.274 10.2154 147.825 10.3491 148.329 10.6166C148.846 10.8714 149.258 11.2471 149.563 11.7439C149.868 12.228 150.021 12.7821 150.021 13.4064C150.021 14.0305 149.868 14.5909 149.563 15.0877C149.258 15.5718 148.846 15.9477 148.329 16.2151C147.825 16.4699 147.274 16.5973 146.678 16.5973ZM146.678 14.9922C147.129 14.9922 147.486 14.8521 147.752 14.5719C148.03 14.2789 148.169 13.8903 148.169 13.4064C148.169 12.9222 148.03 12.5401 147.752 12.2599C147.486 11.9796 147.129 11.8395 146.678 11.8395C146.24 11.8395 145.881 11.9796 145.602 12.2599C145.337 12.5401 145.204 12.9222 145.204 13.4064C145.204 13.8903 145.337 14.2789 145.602 14.5719C145.881 14.8521 146.24 14.9922 146.678 14.9922Z" fill="#6F6F6F"/>
<path fill-rule="evenodd" clip-rule="evenodd" d="M146.693 11.9836C145.87 11.9836 145.204 12.6235 145.204 13.413C145.204 14.2024 145.87 14.8424 146.693 14.8424C147.515 14.8424 148.181 14.2024 148.181 13.413C148.181 12.6235 147.515 11.9836 146.693 11.9836ZM146.693 16.6135C148.534 16.6135 150.027 15.1806 150.027 13.413C150.027 11.6454 148.534 10.2125 146.693 10.2125C144.851 10.2125 143.359 11.6454 143.359 13.413C143.359 15.1806 144.851 16.6135 146.693 16.6135Z" fill="#6F6F6F"/>
</svg>
