<svg width="141" height="31" viewBox="0 0 141 31" fill="none" xmlns="http://www.w3.org/2000/svg">
<g clip-path="url(#clip0_129_3203)">
<mask id="mask0_129_3203" style="mask-type:luminance" maskUnits="userSpaceOnUse" x="-1" y="-1" width="142" height="32">
<path d="M140.263 -0.000244141H-0.00585938V30.9998H140.263V-0.000244141Z" fill="white"/>
</mask>
<g mask="url(#mask0_129_3203)">
<g opacity="0.8">
<path fill-rule="evenodd" clip-rule="evenodd" d="M5.88957 8.39607C8.22411 5.33434 11.9625 3.35074 16.1761 3.35074C20.4143 3.35074 24.1718 5.35773 26.5034 8.45017C26.4043 8.5497 26.3139 8.65281 26.232 8.75581C25.8049 9.29509 25.4836 9.98975 25.2261 10.6951C24.7077 12.1138 24.3122 13.9669 23.946 15.7024L23.9135 15.8583C23.5482 17.5905 23.2087 19.2015 22.798 20.3973C22.6136 20.9345 22.4387 21.3142 22.2835 21.5576C22.1216 21.3123 21.938 20.9279 21.7437 20.383C21.3045 19.1527 20.9353 17.4795 20.5438 15.6928L20.5311 15.6344C20.1548 13.9182 19.7557 12.0974 19.2582 10.7036C19.0081 10.0034 18.7014 9.31579 18.3002 8.78148C17.9064 8.25714 17.251 7.66537 16.2925 7.66537C15.3399 7.66537 14.6815 8.25072 14.2821 8.76919C13.8732 9.3 13.5544 9.98484 13.2918 10.6853C12.7629 12.0959 12.3305 13.941 11.928 15.6788L11.8865 15.8583C11.4879 17.5798 11.1154 19.1891 10.6925 20.3871C10.5311 20.8447 10.3788 21.1927 10.2408 21.4415C10.1061 21.194 9.9576 20.8482 9.80059 20.3946C9.39484 19.2219 9.03949 17.6577 8.65781 15.9775L8.591 15.6835C8.19551 13.9447 7.76647 12.0962 7.23004 10.6812C6.9635 9.97808 6.63752 9.2898 6.21565 8.75651C6.12013 8.6358 6.01156 8.51327 5.88957 8.39607ZM4.47664 10.747C4.58782 10.9611 4.70544 11.2264 4.82706 11.5472C5.29138 12.772 5.68477 14.4432 6.08986 16.2244L6.16868 16.5713C6.53752 18.1965 6.92119 19.8868 7.37308 21.1927C7.61343 21.8874 7.90368 22.5678 8.27699 23.0965C8.63 23.5967 9.2633 24.2426 10.2371 24.2426C11.2081 24.2426 11.8429 23.5998 12.1983 23.1019C12.5748 22.5744 12.8698 21.8948 13.115 21.1999C13.5851 19.868 13.9853 18.1379 14.3684 16.4822L14.427 16.229C14.8396 14.4469 15.2369 12.7723 15.6979 11.543C15.9114 10.9735 16.1114 10.5767 16.2854 10.3307C16.4504 10.5747 16.6388 10.9651 16.8387 11.5248C17.2778 12.755 17.6468 14.4283 18.0384 16.2149L18.0513 16.2734C18.4274 17.9896 18.8265 19.8104 19.324 21.2041C19.5741 21.9045 19.8808 22.5922 20.282 23.1263C20.6758 23.6508 21.3312 24.2426 22.2896 24.2426C23.2531 24.2426 23.9059 23.6454 24.2951 23.1162C24.6903 22.5794 24.9874 21.8894 25.2273 21.1902C25.6886 19.8469 26.0556 18.1042 26.4051 16.4462L26.4554 16.2054C26.8318 14.421 27.1933 12.7544 27.6395 11.5333C27.7363 11.2676 27.8315 11.0411 27.9224 10.8509C28.6062 12.379 28.9854 14.0665 28.9854 15.8403C28.9854 22.738 23.2506 28.3299 16.1761 28.3299C9.10158 28.3299 3.36657 22.738 3.36657 15.8403C3.36657 14.0262 3.76325 12.3024 4.47664 10.747ZM16.1761 0.852844C7.6867 0.852844 0.804688 7.56295 0.804688 15.8403C0.804688 24.1177 7.6867 30.8277 16.1761 30.8277C24.6657 30.8277 31.5472 24.1177 31.5472 15.8403C31.5472 7.56295 24.6657 0.852844 16.1761 0.852844ZM9.97461 21.817C9.97461 21.817 9.97826 21.8133 9.98566 21.8082C9.97836 21.8148 9.97461 21.817 9.97461 21.817ZM10.4934 21.8106C10.5007 21.8156 10.5044 21.8193 10.5044 21.8193C10.5044 21.8193 10.5006 21.8175 10.4934 21.8106Z" fill="white"/>
<path d="M40.0322 24.7124L36.3047 12.2804H39.5698L41.7805 21.2283L44.3509 12.2804H48.0012L50.5721 21.2283L52.8086 12.2804H56.0732L52.3202 24.7124H48.9012L46.1761 15.4135L43.4513 24.7124H40.0322Z" fill="white"/>
<path d="M60.8651 25.0139C59.7684 25.0139 58.8686 24.8465 58.1661 24.5123C57.4636 24.1616 56.9408 23.702 56.5979 23.1339C56.2553 22.5657 56.084 21.9391 56.084 21.2542C56.084 20.1012 56.5465 19.1655 57.472 18.4469C58.3974 17.7284 59.7858 17.3691 61.6368 17.3691H64.8756V17.0682C64.8756 16.2161 64.6268 15.5895 64.1302 15.1886C63.6332 14.7874 63.0159 14.5869 62.2793 14.5869C61.6109 14.5869 61.0281 14.7457 60.5311 15.0632C60.0341 15.3639 59.7254 15.815 59.6057 16.4167H56.3921C56.4782 15.5143 56.7864 14.7289 57.3176 14.0606C57.8663 13.3922 58.5688 12.8826 59.4255 12.5317C60.2827 12.1641 61.2424 11.9803 62.3047 11.9803C64.1215 11.9803 65.5523 12.423 66.5979 13.3086C67.6432 14.1943 68.166 15.4476 68.166 17.0682V24.7131H65.3639L65.0556 22.7081C64.6784 23.3765 64.1473 23.9275 63.4617 24.3623C62.7934 24.7965 61.9277 25.0139 60.8651 25.0139ZM61.6109 22.5074C62.5534 22.5074 63.2816 22.2064 63.7959 21.605C64.327 21.0036 64.6613 20.2598 64.7986 19.3742H61.9964C61.1222 19.3742 60.497 19.5331 60.1198 19.8504C59.7429 20.1513 59.5541 20.5274 59.5541 20.9784C59.5541 21.463 59.7429 21.839 60.1198 22.1063C60.497 22.3736 60.9935 22.5074 61.6109 22.5074Z" fill="white"/>
<path d="M73.3464 24.7124L68.668 12.2804H72.1122L75.3516 21.6798L78.5905 12.2804H82.0353L77.331 24.7124H73.3464Z" fill="white"/>
<path d="M88.6512 25.0139C87.366 25.0139 86.2263 24.7464 85.2322 24.2118C84.2384 23.6769 83.4587 22.9251 82.893 21.9559C82.3273 20.9869 82.0449 19.8673 82.0449 18.5972C82.0449 17.3107 82.3189 16.166 82.8673 15.1635C83.4329 14.1608 84.204 13.3839 85.1809 12.8324C86.1747 12.2643 87.3402 11.9803 88.6769 11.9803C89.9281 11.9803 91.0337 12.2476 91.9933 12.7823C92.9528 13.317 93.6982 14.0523 94.2293 14.988C94.7782 15.9069 95.0522 16.9347 95.0522 18.071C95.0522 18.2547 95.0439 18.4469 95.027 18.6473C95.027 18.848 95.0176 19.0568 95.0007 19.2741H85.3096C85.3782 20.2432 85.7209 21.0036 86.3377 21.5551C86.9716 22.1063 87.7344 22.382 88.6257 22.382C89.2938 22.382 89.8512 22.2401 90.2966 21.9559C90.7591 21.6553 91.102 21.2708 91.3248 20.8028H94.6669C94.4267 21.5884 94.0236 22.307 93.4586 22.9586C92.9099 23.5933 92.2246 24.0946 91.4018 24.4624C90.5966 24.8298 89.6794 25.0139 88.6512 25.0139ZM88.6769 14.5869C87.8717 14.5869 87.1605 14.8126 86.5432 15.2636C85.9264 15.6982 85.5322 16.3666 85.3608 17.2689H91.7103C91.6589 16.45 91.3506 15.7984 90.785 15.3138C90.2192 14.8292 89.5168 14.5869 88.6769 14.5869Z" fill="white"/>
<path d="M96.793 24.7119V6.66528H100.083V24.7119H96.793Z" fill="white"/>
<path d="M108.611 25.0139C107.325 25.0139 106.185 24.7464 105.191 24.2118C104.198 23.6769 103.418 22.9251 102.852 21.9559C102.286 20.9869 102.004 19.8673 102.004 18.5972C102.004 17.3107 102.278 16.166 102.826 15.1635C103.392 14.1608 104.163 13.3839 105.14 12.8324C106.134 12.2643 107.299 11.9803 108.636 11.9803C109.887 11.9803 110.992 12.2476 111.953 12.7823C112.912 13.317 113.657 14.0523 114.189 14.988C114.736 15.9069 115.011 16.9347 115.011 18.071C115.011 18.2547 115.003 18.4469 114.985 18.6473C114.985 18.848 114.977 19.0568 114.96 19.2741H105.268C105.338 20.2432 105.68 21.0036 106.297 21.5551C106.931 22.1063 107.693 22.382 108.584 22.382C109.253 22.382 109.81 22.2401 110.255 21.9559C110.718 21.6553 111.061 21.2708 111.284 20.8028H114.626C114.386 21.5884 113.983 22.307 113.418 22.9586C112.869 23.5933 112.184 24.0946 111.361 24.4624C110.556 24.8298 109.639 25.0139 108.611 25.0139ZM108.636 14.5869C107.831 14.5869 107.119 14.8126 106.502 15.2636C105.886 15.6982 105.491 16.3666 105.32 17.2689H111.669C111.618 16.45 111.309 15.7984 110.744 15.3138C110.178 14.8292 109.476 14.5869 108.636 14.5869Z" fill="white"/>
<path d="M122.023 25.0139C120.892 25.0139 119.898 24.8383 119.041 24.4876C118.184 24.1198 117.499 23.6185 116.984 22.9834C116.47 22.3487 116.162 21.6135 116.059 20.7781H119.375C119.477 21.2623 119.752 21.6804 120.198 22.0312C120.66 22.3653 121.252 22.5325 121.971 22.5325C122.691 22.5325 123.214 22.3905 123.54 22.1063C123.882 21.8223 124.054 21.4962 124.054 21.1288C124.054 20.594 123.814 20.2347 123.334 20.0511C122.854 19.8504 122.185 19.6584 121.329 19.4745C120.781 19.3575 120.224 19.2155 119.658 19.0485C119.092 18.8813 118.569 18.6724 118.09 18.4219C117.627 18.1544 117.25 17.8203 116.958 17.4192C116.667 17.0015 116.522 16.4919 116.522 15.8902C116.522 14.7874 116.967 13.8601 117.859 13.1081C118.767 12.3562 120.035 11.9803 121.663 11.9803C123.171 11.9803 124.371 12.3227 125.262 13.0078C126.17 13.693 126.711 14.637 126.882 15.8401H123.771C123.583 14.9211 122.871 14.4617 121.637 14.4617C121.02 14.4617 120.541 14.5787 120.198 14.8126C119.872 15.0465 119.709 15.3388 119.709 15.6898C119.709 16.0574 119.958 16.3498 120.455 16.5671C120.952 16.7842 121.611 16.9848 122.434 17.1686C123.325 17.3691 124.139 17.5947 124.876 17.8454C125.631 18.0792 126.23 18.4386 126.676 18.9231C127.121 19.3911 127.344 20.0677 127.344 20.9532C127.361 21.7221 127.156 22.4152 126.727 23.0337C126.299 23.6518 125.682 24.1364 124.876 24.4876C124.071 24.8383 123.12 25.0139 122.023 25.0139Z" fill="white"/>
<path d="M134.499 25.0139C133.368 25.0139 132.374 24.8383 131.517 24.4876C130.661 24.1198 129.974 23.6185 129.461 22.9834C128.947 22.3487 128.638 21.6135 128.535 20.7781H131.851C131.954 21.2623 132.228 21.6804 132.674 22.0312C133.137 22.3653 133.728 22.5325 134.448 22.5325C135.167 22.5325 135.69 22.3905 136.016 22.1063C136.358 21.8223 136.53 21.4962 136.53 21.1288C136.53 20.594 136.29 20.2347 135.81 20.0511C135.331 19.8504 134.662 19.6584 133.806 19.4745C133.257 19.3575 132.699 19.2155 132.134 19.0485C131.569 18.8813 131.046 18.6724 130.566 18.4219C130.103 18.1544 129.727 17.8203 129.435 17.4192C129.143 17.0015 128.998 16.4919 128.998 15.8902C128.998 14.7874 129.443 13.8601 130.334 13.1081C131.243 12.3562 132.511 11.9803 134.139 11.9803C135.648 11.9803 136.847 12.3227 137.739 13.0078C138.647 13.693 139.186 14.637 139.358 15.8401H136.247C136.058 14.9211 135.348 14.4617 134.113 14.4617C133.497 14.4617 133.016 14.5787 132.674 14.8126C132.348 15.0465 132.186 15.3388 132.186 15.6898C132.186 16.0574 132.434 16.3498 132.931 16.5671C133.428 16.7842 134.088 16.9848 134.91 17.1686C135.802 17.3691 136.616 17.5947 137.352 17.8454C138.107 18.0792 138.707 18.4386 139.152 18.9231C139.598 19.3911 139.821 20.0677 139.821 20.9532C139.837 21.7221 139.633 22.4152 139.204 23.0337C138.774 23.6518 138.158 24.1364 137.352 24.4876C136.547 24.8383 135.595 25.0139 134.499 25.0139Z" fill="white"/>
</g>
</g>
</g>
<defs>
<clipPath id="clip0_129_3203">
<rect width="141" height="31" fill="white"/>
</clipPath>
</defs>
</svg>
