<svg width="144" height="38" viewBox="0 0 144 38" fill="none" xmlns="http://www.w3.org/2000/svg">
<g clip-path="url(#clip0_129_3173)">
<mask id="mask0_129_3173" style="mask-type:luminance" maskUnits="userSpaceOnUse" x="0" y="0" width="145" height="38">
<path d="M144.002 6.10352e-05H0.00195312V38.0001H144.002V6.10352e-05Z" fill="white"/>
</mask>
<g mask="url(#mask0_129_3173)">
<path fill-rule="evenodd" clip-rule="evenodd" d="M12.8701 22.2836L16.505 25.8565C18.717 28.0309 22.3033 28.0309 24.5154 25.8565C25.2449 25.1394 25.7338 24.2754 25.9821 23.3613L28.5205 25.8565C30.7325 28.0309 34.3188 28.0309 36.5308 25.8565C38.7428 23.6822 38.7428 20.1568 36.5308 17.9825L28.5205 10.1085C26.3085 7.93414 22.7222 7.93414 20.5102 10.1085C19.7806 10.8256 19.2918 11.6897 19.0435 12.6037L16.505 10.1085C14.293 7.93414 10.7068 7.93414 8.4947 10.1086L1.90288 16.5881C-0.631689 19.0796 -0.631689 23.119 1.90288 25.6105C4.43744 28.1019 8.54681 28.1019 11.0814 25.6105C12.0408 24.6674 12.6371 23.5023 12.8701 22.2836ZM14.5025 12.077C13.3965 10.9898 11.6032 10.9898 10.4972 12.077C9.39179 13.1638 9.39131 14.9253 10.4959 16.0126L18.5076 23.888C19.6136 24.9752 21.4068 24.9752 22.5127 23.888C23.6181 22.8014 23.6187 21.0401 22.5145 19.9528L14.5025 12.077ZM9.07881 18.5566L6.49212 16.014L3.90545 18.5566C2.47689 19.9609 2.47689 22.2377 3.90545 23.642C5.33403 25.0463 7.65022 25.0463 9.07881 23.642C10.5074 22.2377 10.5074 19.9609 9.07881 18.5566ZM22.5104 16.0117C21.4068 14.9243 21.4075 13.1634 22.5127 12.077C23.6187 10.9898 25.4119 10.9898 26.518 12.077L34.5282 19.951C35.6342 21.0382 35.6342 22.8009 34.5282 23.888C33.4222 24.9752 31.6291 24.9752 30.5231 23.888L22.5104 16.0117Z" fill="white"/>
<path d="M48.173 25.8074H44.5508V9.02472H48.173L53.2488 19.9796L58.3477 9.02472H62.0161V25.8074H58.3938V22.2921C58.3938 18.6634 58.3938 17.8697 58.5784 16.6223L54.9561 24.2433H51.5415L47.9423 16.6223C48.1499 17.8697 48.173 19.2758 48.173 21.1128V25.8074Z" fill="white"/>
<path d="M68.6188 26.1025C66.1731 26.1025 64.6504 24.6963 64.6504 22.4737C64.6504 20.3873 66.1501 19.0945 68.9187 18.8904L72.1487 18.641V18.4595C72.1487 17.3482 71.4566 16.7585 70.1876 16.7585C68.688 16.7585 67.8804 17.3255 67.8804 18.3461H64.9273C64.9273 15.7834 67.073 14.1051 70.3722 14.1051C73.7177 14.1051 75.6096 15.9421 75.6096 19.1852V25.8076H72.4718L72.241 24.3108C71.8719 25.3541 70.3491 26.1025 68.6188 26.1025ZM69.8646 23.517C71.2259 23.517 72.1718 22.8593 72.1718 21.5666V20.9542L70.3722 21.113C68.8264 21.2491 68.2727 21.5893 68.2727 22.315C68.2727 23.1314 68.7803 23.517 69.8646 23.517Z" fill="white"/>
<path d="M77.5832 19.9335C77.5832 16.4863 79.8673 14.0823 83.1204 14.0823C84.6894 14.0823 85.9352 14.6719 86.5582 15.6018L86.7428 14.4678H90.0881V25.0817C90.0881 29.1413 87.7117 31.5907 83.7665 31.5907C80.2365 31.5907 77.8601 29.6175 77.5371 26.3971H81.1362C81.2055 27.6671 82.1745 28.4156 83.7434 28.4156C85.4507 28.4156 86.5351 27.4176 86.5351 25.8075V24.3333C85.8429 25.1498 84.5509 25.6713 83.0512 25.6713C79.8212 25.6713 77.5832 23.3354 77.5832 19.9335ZM81.1593 19.8428C81.1593 21.4756 82.2668 22.6324 83.8357 22.6324C85.4507 22.6324 86.5351 21.5211 86.5351 19.8428C86.5351 18.1872 85.4507 17.1212 83.8126 17.1212C82.2437 17.1212 81.1593 18.2325 81.1593 19.8428Z" fill="white"/>
<path d="M96.3128 25.8076H92.7598V14.468H96.1051L96.3359 15.6472C97.0513 14.6721 98.3666 14.1051 99.8655 14.1051C102.611 14.1051 104.203 15.8287 104.203 18.7997V25.8076H100.65V19.6389C100.65 18.2101 99.8423 17.2802 98.6198 17.2802C97.2127 17.2802 96.3128 18.1873 96.3128 19.5934V25.8076Z" fill="white"/>
<path d="M106.127 20.1149C106.127 16.5316 108.804 14.1276 112.495 14.1276C116.163 14.1276 118.84 16.5316 118.84 20.1149C118.84 23.6982 116.163 26.0796 112.495 26.0796C108.804 26.0796 106.127 23.6982 106.127 20.1149ZM109.704 20.0923C109.704 21.8159 110.835 22.9498 112.495 22.9498C114.133 22.9498 115.264 21.8159 115.264 20.0923C115.264 18.3913 114.133 17.2573 112.495 17.2573C110.835 17.2573 109.704 18.3913 109.704 20.0923Z" fill="white"/>
<path d="M124.455 25.8075H120.902V8.70734H124.455V25.8075Z" fill="white"/>
<path d="M128.872 12.6988C127.742 12.6988 126.842 11.8143 126.842 10.7031C126.842 9.59175 127.742 8.72992 128.872 8.72992C129.98 8.72992 130.88 9.59175 130.88 10.7031C130.88 11.8143 129.98 12.6988 128.872 12.6988ZM127.119 25.8074V14.4678H130.672V25.8074H127.119Z" fill="white"/>
<path d="M136.824 26.1025C134.378 26.1025 132.855 24.6963 132.855 22.4737C132.855 20.3873 134.355 19.0945 137.123 18.8904L140.354 18.641V18.4595C140.354 17.3482 139.661 16.7585 138.392 16.7585C136.893 16.7585 136.085 17.3255 136.085 18.3461H133.132C133.132 15.7834 135.277 14.1051 138.577 14.1051C141.923 14.1051 143.814 15.9421 143.814 19.1852V25.8076H140.677L140.446 24.3108C140.077 25.3541 138.554 26.1025 136.824 26.1025ZM138.069 23.517C139.431 23.517 140.376 22.8593 140.376 21.5666V20.9542L138.577 21.113C137.031 21.2491 136.478 21.5893 136.478 22.315C136.478 23.1314 136.985 23.517 138.069 23.517Z" fill="white"/>
</g>
</g>
<defs>
<clipPath id="clip0_129_3173">
<rect width="144" height="38" fill="white"/>
</clipPath>
</defs>
</svg>
