<svg width="118" height="31" viewBox="0 0 118 31" fill="none" xmlns="http://www.w3.org/2000/svg">
<g clip-path="url(#clip0_129_3120)">
<mask id="mask0_129_3120" style="mask-type:luminance" maskUnits="userSpaceOnUse" x="0" y="0" width="118" height="31">
<path d="M117.883 -6.10352e-05H0.00390625V30.9999H117.883V-6.10352e-05Z" fill="white"/>
</mask>
<g mask="url(#mask0_129_3120)">
<g opacity="0.8">
<path d="M29.918 11.3193C30.7924 12.1784 30.7924 13.5713 29.918 14.4303L14.029 30.0385C13.1545 30.8975 11.7365 30.8975 10.8619 30.0385L0.862953 20.2162C-0.0116092 19.357 -0.0116092 17.9643 0.862953 17.1052L16.752 1.49714C17.6265 0.638078 19.0445 0.638078 19.919 1.49714L29.918 11.3193Z" fill="#6F6F6F"/>
<path d="M33.6486 14.4303C34.5232 13.5713 34.5232 12.1784 33.6486 11.3193L26.2964 4.09709L28.9433 1.49714C29.8177 0.638078 31.2358 0.638078 32.1102 1.49714L42.1091 11.3193C42.9836 12.1784 42.9836 13.5713 42.1091 14.4303L26.2202 30.0385C25.3456 30.8975 23.9277 30.8975 23.0529 30.0385L20.4062 27.4383L33.6486 14.4303Z" fill="#6F6F6F"/>
<path d="M59.6441 16.8649C60.4881 17.0196 61.182 17.4342 61.7257 18.1086C62.2692 18.7832 62.5412 19.5561 62.5412 20.4277C62.5412 21.2144 62.3408 21.9099 61.9403 22.5145C61.5539 23.1048 60.9889 23.5683 60.2451 23.9055C59.5013 24.2429 58.6211 24.4115 57.6056 24.4115H51.1465V9.69781H57.3264C58.3423 9.69781 59.2149 9.85947 59.9446 10.1827C60.6884 10.5059 61.2465 10.9556 61.6183 11.5318C62.0045 12.108 62.1979 12.7614 62.1979 13.4922C62.1979 14.3494 61.9616 15.0662 61.4895 15.6424C61.0319 16.2184 60.4168 16.626 59.6441 16.8649ZM54.1505 15.7688H56.8972C57.6127 15.7688 58.1635 15.6142 58.5499 15.305C58.9359 14.9818 59.1292 14.525 59.1292 13.9348C59.1292 13.3447 58.9359 12.8879 58.5499 12.5647C58.1635 12.2415 57.6127 12.0799 56.8972 12.0799H54.1505V15.7688ZM57.1763 22.0086C57.9061 22.0086 58.4711 21.8398 58.8715 21.5026C59.2867 21.1652 59.4939 20.6876 59.4939 20.0691C59.4939 19.4365 59.2793 18.945 58.85 18.5936C58.4212 18.2281 57.8415 18.0454 57.1118 18.0454H54.1505V22.0086H57.1763Z" fill="#6F6F6F"/>
<path d="M69.3581 24.6013C68.2137 24.6013 67.1836 24.3553 66.2681 23.8634C65.3525 23.3574 64.63 22.6479 64.1006 21.7342C63.5857 20.8209 63.3281 19.7669 63.3281 18.5725C63.3281 17.3779 63.5928 16.3239 64.122 15.4105C64.6658 14.4971 65.4026 13.7943 66.3323 13.3024C67.2623 12.7966 68.2996 12.5436 69.444 12.5436C70.5883 12.5436 71.6256 12.7966 72.5556 13.3024C73.4853 13.7943 74.215 14.4971 74.7442 15.4105C75.288 16.3239 75.5596 17.3779 75.5596 18.5725C75.5596 19.7669 75.281 20.8209 74.7229 21.7342C74.1792 22.6479 73.4352 23.3574 72.4911 23.8634C71.5614 24.3553 70.5171 24.6013 69.3581 24.6013ZM69.3581 22.0294C69.902 22.0294 70.4095 21.903 70.8816 21.65C71.3679 21.3831 71.7543 20.9897 72.0405 20.4697C72.3267 19.9494 72.4697 19.317 72.4697 18.5725C72.4697 17.4621 72.1692 16.6119 71.5684 16.0217C70.9821 15.4175 70.2594 15.1153 69.401 15.1153C68.5426 15.1153 67.8204 15.4175 67.2336 16.0217C66.6615 16.6119 66.3751 17.4621 66.3751 18.5725C66.3751 19.6826 66.6544 20.5398 67.2124 21.144C67.7845 21.7342 68.4997 22.0294 69.3581 22.0294Z" fill="#6F6F6F"/>
<path d="M79.9064 14.5461C80.2928 13.9279 80.7937 13.443 81.4087 13.0916C82.0384 12.7403 82.7535 12.5646 83.5548 12.5646V15.6635H82.7606C81.8162 15.6635 81.1012 15.8813 80.6148 16.3169C80.1428 16.7525 79.9064 17.5115 79.9064 18.5935V24.4115H76.9023V12.7333H79.9064V14.5461Z" fill="#6F6F6F"/>
<path d="M83.9492 18.531C83.9492 17.3506 84.1852 16.3036 84.6572 15.3902C85.1436 14.4766 85.8017 13.7742 86.6317 13.2822C87.4614 12.7903 88.3841 12.5444 89.3996 12.5444C90.1722 12.5444 90.9089 12.7131 91.6103 13.0503C92.3112 13.3736 92.8688 13.8092 93.2837 14.3572V8.81329H96.3309V24.4123H93.2837V22.684C92.9124 23.2599 92.3899 23.7237 91.7173 24.0749C91.0449 24.4266 90.2651 24.6022 89.3783 24.6022C88.377 24.6022 87.4614 24.3492 86.6317 23.8432C85.8017 23.3374 85.1436 22.6275 84.6572 21.7142C84.1852 20.7866 83.9492 19.7256 83.9492 18.531ZM93.3059 18.5732C93.3059 17.8566 93.1621 17.2452 92.8762 16.7394C92.5901 16.2194 92.2037 15.8258 91.7173 15.5588C91.2311 15.2778 90.709 15.1372 90.1509 15.1372C89.5929 15.1372 89.078 15.2708 88.6057 15.5378C88.1336 15.8048 87.7473 16.1982 87.4468 16.7182C87.1609 17.2242 87.0176 17.8284 87.0176 18.531C87.0176 19.2339 87.1609 19.852 87.4468 20.3862C87.7473 20.906 88.1336 21.3065 88.6057 21.5878C89.0921 21.8685 89.6072 22.0094 90.1509 22.0094C90.709 22.0094 91.2311 21.8758 91.7173 21.6087C92.2037 21.3278 92.5901 20.9339 92.8762 20.4284C93.1621 19.9081 93.3059 19.29 93.3059 18.5732Z" fill="#6F6F6F"/>
<path d="M109.459 18.3194C109.459 18.741 109.43 19.1205 109.373 19.4579H100.682C100.754 20.3011 101.054 20.9615 101.583 21.4392C102.113 21.9173 102.764 22.1558 103.536 22.1558C104.653 22.1558 105.446 21.6852 105.919 20.7436H109.159C108.816 21.8678 108.158 22.7952 107.185 23.526C106.212 24.2428 105.017 24.6013 103.6 24.6013C102.457 24.6013 101.426 24.3553 100.51 23.8634C99.6091 23.3574 98.9008 22.6479 98.3867 21.7342C97.8854 20.8209 97.6348 19.7669 97.6348 18.5725C97.6348 17.3639 97.8854 16.3027 98.3867 15.3893C98.8869 14.4759 99.5877 13.7733 100.489 13.2814C101.39 12.7895 102.428 12.5436 103.6 12.5436C104.731 12.5436 105.74 12.7825 106.626 13.2603C107.528 13.7381 108.222 14.4197 108.708 15.3051C109.209 16.1763 109.459 17.1811 109.459 18.3194ZM106.348 17.4762C106.333 16.7173 106.054 16.1131 105.51 15.6633C104.967 15.1997 104.302 14.9677 103.515 14.9677C102.771 14.9677 102.142 15.1927 101.627 15.6423C101.126 16.0779 100.818 16.6893 100.703 17.4762H106.348Z" fill="#6F6F6F"/>
<path d="M113.795 14.5461C114.182 13.9279 114.683 13.443 115.297 13.0916C115.928 12.7403 116.642 12.5646 117.444 12.5646V15.6635H116.65C115.706 15.6635 114.99 15.8813 114.504 16.3169C114.031 16.7525 113.795 17.5115 113.795 18.5935V24.4115H110.791V12.7333H113.795V14.5461Z" fill="#6F6F6F"/>
</g>
</g>
</g>
<defs>
<clipPath id="clip0_129_3120">
<rect width="118" height="31" fill="white"/>
</clipPath>
</defs>
</svg>
