<svg width="159" height="37" viewBox="0 0 159 37" fill="none" xmlns="http://www.w3.org/2000/svg">
<g clip-path="url(#clip0_129_3187)">
<path d="M36.3435 8.33374H23.4135C22.4934 8.33374 21.6233 8.75226 21.0486 9.4711L19.8386 10.9845C19.2639 11.7033 18.3937 12.1219 17.4737 12.1219H6.05787L3.0293 15.9099H15.9594C16.8795 15.9099 17.7496 15.4915 18.3243 14.7726L19.5343 13.2592C20.109 12.5403 20.9792 12.1219 21.8992 12.1219H33.3151L36.3435 8.33374Z" fill="white"/>
<path d="M34.8279 14.3947H21.8978C20.9778 14.3947 20.1077 14.8132 19.5329 15.532L18.323 17.0454C17.7483 17.7642 16.878 18.1827 15.9581 18.1827H4.54224L1.51367 21.9709H14.4438C15.3638 21.9709 16.234 21.5523 16.8087 20.8335L18.0186 19.3201C18.5934 18.6013 19.4636 18.1827 20.3835 18.1827H31.7994L34.8279 14.3947Z" fill="white"/>
<path d="M33.3143 20.4559H20.3842C19.4642 20.4559 18.594 20.8743 18.0192 21.5932L16.8094 23.1066C16.2345 23.8255 15.3644 24.2439 14.4444 24.2439H3.02857L0 28.0321H12.9301C13.8501 28.0321 14.7203 27.6135 15.2951 26.8947L16.5049 25.3813C17.0797 24.6625 17.9499 24.2439 18.8699 24.2439H30.2857L33.3143 20.4559Z" fill="white"/>
<path d="M50.2679 10.4778C53.273 10.4778 55.5013 12.0324 55.5013 14.8349C55.5013 16.6758 54.4587 17.8828 52.9255 18.3328C54.4383 18.5373 55.1332 19.2942 55.2763 20.8489L55.6239 25.0014H52.4757L52.21 21.3398C52.1077 20.1124 51.4332 19.7034 49.7364 19.7034H47.0379V25.0014H43.9102V10.4778H50.2679ZM47.0379 17.0645H49.8386C51.4127 17.0645 52.2918 16.369 52.2918 15.1007C52.2918 13.812 51.4127 13.1166 49.8386 13.1166H47.0379V17.0645Z" fill="white"/>
<path d="M56.2559 19.5807C56.2559 16.1441 58.4636 13.9144 61.8163 13.9144C64.8009 13.9144 67.1315 15.9805 67.111 19.8058V20.3785H59.4858C59.5676 21.9945 60.4262 22.9559 61.8163 22.9559C62.7158 22.9559 63.513 22.4445 63.8606 21.6058L66.9679 21.8309C66.3137 23.9377 64.2899 25.247 61.8163 25.247C58.4636 25.247 56.2559 23.0173 56.2559 19.5807ZM59.5062 18.517H63.9833C63.8197 16.8805 62.8793 16.2055 61.8163 16.2055C60.5079 16.2055 59.6698 17.0851 59.5062 18.517Z" fill="white"/>
<path d="M69.2332 14.0984C69.2332 11.7256 70.3984 10.4778 72.9947 10.4778H75.2025V12.7893H73.4648C72.7903 12.7893 72.32 13.2803 72.32 14.0984V14.6099H75.0389V16.9213H72.32V25.0014H69.2332V16.9213H67.6387V14.6099H69.2332V14.0984Z" fill="white"/>
<path d="M76.4141 14.1601H79.3578L79.4192 16.3284C79.8485 14.876 80.6661 14.1601 82.0358 14.1601H83.0171V16.4716H81.995C80.2164 16.4716 79.5213 17.2898 79.5213 18.9672V25.0017H76.4141V14.1601Z" fill="white"/>
<path d="M86.3347 22.0354C86.3347 22.7104 86.9071 23.3445 88.011 23.3036C89.3603 23.2628 90.321 22.199 90.3006 20.4398V20.1739L88.5017 20.5217C87.2751 20.7671 86.3347 20.9103 86.3347 22.0354ZM83.166 22.1172C83.166 20.0921 84.638 19.3556 87.0093 18.9056L90.2597 18.2715V18.2307C90.2597 16.635 89.5851 15.9396 88.379 15.9396C87.3364 15.9396 86.6618 16.5737 86.4573 17.6783L83.3501 17.5147C83.7589 15.2237 85.5783 13.9144 88.379 13.9144C91.5681 13.9144 93.3672 15.4486 93.3672 18.6397V25.0015H90.6072L90.5051 23.4877C90.0553 24.4492 88.931 25.2264 86.9889 25.2674C84.8628 25.2674 83.166 24.04 83.166 22.1172Z" fill="white"/>
<path d="M102.095 18.3124C101.911 17.0033 101.052 16.2873 99.9686 16.2873C98.435 16.2873 97.5771 17.4942 97.5771 19.5807C97.5771 21.6672 98.435 22.8741 99.9686 22.8741C101.113 22.8741 101.951 22.1581 102.135 20.7467L105.325 20.8694C105.038 23.5696 102.851 25.247 99.9686 25.247C96.6157 25.247 94.4082 23.0173 94.4082 19.5807C94.4082 16.1441 96.6157 13.9144 99.9686 13.9144C102.77 13.9144 104.977 15.5305 105.264 18.1692L102.095 18.3124Z" fill="white"/>
<path d="M107.127 11.7053H110.235V14.1599H113.076V16.451H110.235V21.4422C110.235 22.2604 110.644 22.69 111.42 22.69H113.097V25.0015H110.767C108.395 25.0015 107.127 23.8355 107.127 21.4422V16.451H105.369V14.1599H107.127V11.7053Z" fill="white"/>
<path d="M114.227 14.1598H117.334V25.0014H114.227V14.1598ZM114.186 12.7484V10.4778H117.375V12.7484H114.186Z" fill="white"/>
<path d="M124.127 25.247C120.774 25.247 118.566 23.0173 118.566 19.5807C118.566 16.1441 120.774 13.9144 124.127 13.9144C127.48 13.9144 129.687 16.1441 129.687 19.5807C129.687 23.0173 127.48 25.247 124.127 25.247ZM121.734 19.5807C121.734 21.6672 122.593 22.8741 124.127 22.8741C125.659 22.8741 126.518 21.6672 126.518 19.5807C126.518 17.4942 125.659 16.2873 124.127 16.2873C122.593 16.2873 121.734 17.4942 121.734 19.5807Z" fill="white"/>
<path d="M130.818 14.1599H133.598L133.68 15.8986C134.273 14.4667 135.479 13.9144 136.91 13.9144C139.281 13.9144 140.651 15.5101 140.651 18.0261V25.0015H137.564V19.0488C137.564 17.3305 137.176 16.3692 135.908 16.3692C134.6 16.3692 133.925 17.3305 133.925 19.0488V25.0015H130.818V14.1599Z" fill="white"/>
<path d="M145.032 22.0354C145.032 22.7104 145.604 23.3445 146.708 23.3036C148.057 23.2628 149.018 22.199 148.998 20.4398V20.1739L147.199 20.5217C145.972 20.7671 145.032 20.9103 145.032 22.0354ZM141.863 22.1172C141.863 20.0921 143.335 19.3556 145.706 18.9056L148.957 18.2715V18.2307C148.957 16.635 148.282 15.9396 147.076 15.9396C146.033 15.9396 145.359 16.5737 145.154 17.6783L142.047 17.5147C142.456 15.2237 144.275 13.9144 147.076 13.9144C150.265 13.9144 152.064 15.4486 152.064 18.6397V25.0015H149.304L149.202 23.4877C148.752 24.4492 147.628 25.2264 145.686 25.2674C143.56 25.2674 141.863 24.04 141.863 22.1172Z" fill="white"/>
<path d="M153.721 10.4778H156.828V21.8512C156.828 22.383 157.114 22.6898 157.646 22.6898H158.422V25.0014H156.746C154.947 25.0014 153.721 23.9172 153.721 21.9739V10.4778Z" fill="white"/>
</g>
<defs>
<clipPath id="clip0_129_3187">
<rect width="159" height="37" fill="white"/>
</clipPath>
</defs>
</svg>
