<svg width="152" height="37" viewBox="0 0 152 37" fill="none" xmlns="http://www.w3.org/2000/svg">
<path d="M0 6.77214C0 4.69424 1.68448 3.00977 3.76238 3.00977H11.2871C13.365 3.00977 15.0495 4.69424 15.0495 6.77214V14.1608C15.0497 14.206 15.0497 14.2514 15.0497 14.2969C15.0497 16.3718 16.7294 18.0545 18.8032 18.0593H18.8119H26.3366C28.4145 18.0593 30.099 19.7438 30.099 21.8216V29.3464C30.099 31.4243 28.4145 33.1088 26.3366 33.1088H18.8119C16.734 33.1088 15.0495 31.4243 15.0495 29.3464V21.8216C15.0495 21.8112 15.0496 21.8008 15.0497 21.7903C15.0328 19.7269 13.3549 18.0593 11.2874 18.0593C11.2776 18.0593 11.2679 18.0593 11.2582 18.0593H3.76238C1.68448 18.0593 0 16.3748 0 14.2969V6.77214Z" fill="white"/>
<path fill-rule="evenodd" clip-rule="evenodd" d="M70.8441 25.1027C69.7906 25.1027 68.85 24.8468 68.0223 24.3352C67.1946 23.8235 66.5399 23.1237 66.0583 22.2358C65.5767 21.3478 65.3359 20.3395 65.3359 19.2108C65.3359 18.0821 65.5767 17.0813 66.0583 16.2084C66.5399 15.3205 67.1946 14.6282 68.0223 14.1316C68.85 13.6199 69.7906 13.3641 70.8441 13.3641C71.6868 13.3641 72.4243 13.5221 73.0563 13.8381C73.6884 14.1542 74.2001 14.5981 74.5914 15.17V8.57831H77.4813V24.8318H74.9074L74.5914 23.229C74.2302 23.7257 73.7486 24.1621 73.1466 24.5383C72.5597 24.9146 71.7922 25.1027 70.8441 25.1027ZM71.4536 22.5744C72.3866 22.5744 73.1466 22.2658 73.7336 21.6488C74.3356 21.0167 74.6365 20.2116 74.6365 19.2334C74.6365 18.2552 74.3356 17.4575 73.7336 16.8405C73.1466 16.2084 72.3866 15.8924 71.4536 15.8924C70.5356 15.8924 69.7756 16.2009 69.1736 16.8179C68.5716 17.435 68.2706 18.2326 68.2706 19.2108C68.2706 20.189 68.5716 20.9942 69.1736 21.6262C69.7756 22.2583 70.5356 22.5744 71.4536 22.5744Z" fill="white"/>
<path d="M41.1878 24.0869C42.3316 24.7641 43.7011 25.1028 45.2963 25.1028C47.1926 25.1028 48.7427 24.6437 49.9466 23.7257C51.1657 22.8077 51.9257 21.536 52.2266 19.9107H49.0437C48.848 20.7233 48.4266 21.3629 47.7795 21.8295C47.1474 22.281 46.3047 22.5067 45.2512 22.5067C43.7914 22.5067 42.6476 22.0176 41.8199 21.0394C40.9922 20.0461 40.5783 18.6841 40.5783 16.9534C40.5783 15.2228 40.9922 13.8608 41.8199 12.8675C42.6476 11.8742 43.7914 11.3776 45.2512 11.3776C46.3047 11.3776 47.1474 11.6259 47.7795 12.1226C48.4266 12.6041 48.848 13.2738 49.0437 14.1317H52.2266C51.9257 12.4311 51.1657 11.1142 49.9466 10.1812C48.7427 9.23303 47.1926 8.75897 45.2963 8.75897C43.7011 8.75897 42.3316 9.10511 41.1878 9.79739C40.0441 10.4897 39.1637 11.4528 38.5466 12.6869C37.9296 13.921 37.6211 15.3431 37.6211 16.9534C37.6211 18.5637 37.9296 19.9859 38.5466 21.22C39.1637 22.439 40.0441 23.3946 41.1878 24.0869Z" fill="white"/>
<path fill-rule="evenodd" clip-rule="evenodd" d="M55.8051 24.3574C56.678 24.8541 57.6562 25.1024 58.7398 25.1024C59.8083 25.1024 60.779 24.8541 61.6518 24.3574C62.5247 23.8608 63.2095 23.176 63.7061 22.3032C64.2178 21.4153 64.4736 20.3919 64.4736 19.2331C64.4736 18.0743 64.2178 17.0584 63.7061 16.1856C63.2095 15.2976 62.5247 14.6054 61.6518 14.1087C60.794 13.6121 59.8309 13.3638 58.7623 13.3638C57.6788 13.3638 56.7006 13.6121 55.8277 14.1087C54.9699 14.6054 54.2851 15.2976 53.7734 16.1856C53.2617 17.0584 53.0059 18.0743 53.0059 19.2331C53.0059 20.3919 53.2542 21.4153 53.7509 22.3032C54.2625 23.176 54.9473 23.8608 55.8051 24.3574ZM60.7037 21.7614C60.1469 22.3182 59.4922 22.5966 58.7398 22.5966C57.9873 22.5966 57.3326 22.3182 56.7758 21.7614C56.234 21.1895 55.9631 20.3467 55.9631 19.2331C55.9631 18.1194 56.234 17.2842 56.7758 16.7273C57.3326 16.1555 57.9948 15.8695 58.7623 15.8695C59.4998 15.8695 60.1469 16.1555 60.7037 16.7273C61.2606 17.2842 61.539 18.1194 61.539 19.2331C61.539 20.3467 61.2606 21.1895 60.7037 21.7614Z" fill="white"/>
<path fill-rule="evenodd" clip-rule="evenodd" d="M81.5082 24.38C82.3811 24.8616 83.3819 25.1024 84.5106 25.1024C85.4136 25.1024 86.2187 24.9368 86.9261 24.6058C87.6484 24.2747 88.2504 23.8232 88.732 23.2513C89.2286 22.6644 89.5823 22.0172 89.793 21.3099H86.8583C86.6627 21.7313 86.3617 22.0774 85.9554 22.3483C85.5641 22.6042 85.075 22.7321 84.488 22.7321C83.7055 22.7321 83.0358 22.4838 82.4789 21.9871C81.9372 21.4905 81.6362 20.8058 81.576 19.9329H90.0865C90.1015 19.7372 90.109 19.5491 90.109 19.3685C90.1241 19.1879 90.1316 19.0149 90.1316 18.8493C90.1316 17.8259 89.8908 16.9004 89.4092 16.0727C88.9427 15.2299 88.288 14.5677 87.4453 14.0861C86.6025 13.6046 85.6318 13.3638 84.5332 13.3638C83.3593 13.3638 82.336 13.6196 81.4631 14.1313C80.6053 14.6279 79.9281 15.3277 79.4314 16.2307C78.9498 17.1337 78.709 18.1646 78.709 19.3234C78.709 20.4671 78.9574 21.4755 79.454 22.3483C79.9506 23.2212 80.6354 23.8984 81.5082 24.38ZM82.6595 16.321C83.2013 15.9147 83.8259 15.7115 84.5332 15.7115C85.2706 15.7115 85.8877 15.9297 86.3843 16.3661C86.8809 16.8026 87.1518 17.3895 87.197 18.1269H81.6211C81.7716 17.3143 82.1178 16.7123 82.6595 16.321Z" fill="white"/>
<path d="M96.6924 25.1024C95.5486 25.1024 94.5403 24.8541 93.6674 24.3574C92.7946 23.8608 92.1023 23.1685 91.5906 22.2806C91.0932 21.3927 90.8457 20.3768 90.8457 19.2331C90.8457 18.0893 91.0932 17.0735 91.5906 16.1856C92.1023 15.2976 92.7946 14.6054 93.6674 14.1087C94.5403 13.6121 95.5486 13.3638 96.6924 13.3638C98.1221 13.3638 99.326 13.74 100.304 14.4925C101.282 15.2299 101.907 16.2533 102.178 17.5626H99.1304C98.9799 17.0208 98.6789 16.5994 98.2274 16.2984C97.791 15.9824 97.2718 15.8244 96.6698 15.8244C95.8722 15.8244 95.195 16.1254 94.6381 16.7273C94.0813 17.3293 93.8029 18.1646 93.8029 19.2331C93.8029 20.3016 94.0813 21.1368 94.6381 21.7388C95.195 22.3408 95.8722 22.6418 96.6698 22.6418C97.2718 22.6418 97.791 22.4913 98.2274 22.1903C98.6789 21.8893 98.9799 21.4604 99.1304 20.9036H102.178C101.907 22.1677 101.282 23.1836 100.304 23.9511C99.326 24.7186 98.1221 25.1024 96.6924 25.1024Z" fill="white"/>
<path d="M106.233 15.7341L105.962 13.6347H103.389V24.8315H106.278V19.7297C106.278 18.8719 106.414 18.2022 106.684 17.7206C106.97 17.239 107.362 16.9004 107.858 16.7048C108.355 16.5091 108.919 16.4113 109.551 16.4113H110.364V13.3638C109.416 13.3638 108.588 13.582 107.881 14.0184C107.189 14.4398 106.639 15.0117 106.233 15.7341Z" fill="white"/>
<path fill-rule="evenodd" clip-rule="evenodd" d="M114.845 25.1024C113.882 25.1024 113.092 24.9519 112.475 24.6509C111.858 24.3349 111.399 23.921 111.098 23.4093C110.797 22.8976 110.646 22.3333 110.646 21.7162C110.646 20.6778 111.053 19.8351 111.865 19.1879C112.678 18.5408 113.897 18.2172 115.522 18.2172H118.367V17.9463C118.367 17.1788 118.149 16.6145 117.712 16.2533C117.276 15.8921 116.734 15.7115 116.087 15.7115C115.5 15.7115 114.988 15.8545 114.552 16.1404C114.115 16.4113 113.844 16.8176 113.739 17.3594H110.917C110.993 16.5467 111.263 15.8394 111.73 15.2374C112.212 14.6355 112.829 14.1764 113.581 13.8604C114.334 13.5293 115.176 13.3638 116.109 13.3638C117.705 13.3638 118.961 13.7626 119.879 14.5602C120.797 15.3578 121.256 16.4865 121.256 17.9463V24.8315H118.796L118.525 23.0256C118.194 23.6275 117.727 24.1242 117.125 24.5155C116.538 24.9067 115.778 25.1024 114.845 25.1024ZM115.5 22.845C116.328 22.845 116.967 22.5741 117.419 22.0323C117.885 21.4905 118.179 20.8208 118.299 20.0232H115.839C115.071 20.0232 114.522 20.1661 114.191 20.4521C113.86 20.723 113.694 21.0616 113.694 21.4679C113.694 21.9044 113.86 22.243 114.191 22.4838C114.522 22.7246 114.958 22.845 115.5 22.845Z" fill="white"/>
<path d="M124.196 9.43615C123.519 10.008 123.181 10.9712 123.181 12.3257V13.635H121.646V16.0504H123.181V24.8318H126.07V16.0504H130.525V20.9264C130.525 22.3862 130.879 23.4021 131.586 23.974C132.294 24.5458 133.234 24.8318 134.408 24.8318H136.372V22.3712H134.973C134.401 22.3712 133.994 22.2734 133.754 22.0777C133.528 21.867 133.415 21.4908 133.415 20.949V16.0504H136.44V13.635H133.415V10.6326H130.864L130.525 13.635H126.07V12.3257C126.07 11.8591 126.175 11.528 126.386 11.3324C126.597 11.1367 126.95 11.0389 127.447 11.0389H128.237V8.57831H126.996C125.822 8.57831 124.889 8.86427 124.196 9.43615Z" fill="white"/>
<path d="M137.316 25.6895V28.4435H151.756V25.6895H137.316Z" fill="white"/>
</svg>
